<?xml version="1.0" standalone="no"?><!DOCTYPE svg PUBLIC "-//W3C//DTD SVG 1.1//EN" "http://www.w3.org/Graphics/SVG/1.1/DTD/svg11.dtd"><svg height="1024" node-id="1" sillyvg="true" template-height="1024" template-width="1024" version="1.1" viewBox="0 0 1024 1024" width="1024" xmlns="http://www.w3.org/2000/svg" xmlns:xlink="http://www.w3.org/1999/xlink"><defs node-id="56"></defs><path d="M 0.00 0.00 L 1024.00 0.00 L 1024.00 1024.00 L 0.00 1024.00 Z" fill="#ffffff" fill-rule="nonzero" hidden="true" node-id="58" stroke="none" target-height="1024" target-width="1024" target-x="0" target-y="0" visibility="hidden"></path><path d="M 490.40 81.00 L 503.80 79.40 L 517.20 78.30 L 530.80 77.60 L 544.40 77.50 L 558.00 77.90 L 571.60 78.80 L 585.10 80.20 L 598.60 82.10 L 612.00 84.60 L 625.20 87.70 L 638.20 91.30 L 651.10 95.40 L 661.30 99.10 L 671.30 103.20 L 681.10 107.70 L 690.80 112.50 L 700.20 117.80 L 709.50 123.40 L 718.50 129.30 L 727.20 135.70 L 735.70 142.50 L 749.70 154.90 L 754.90 160.40 L 775.00 183.40 L 782.40 190.30 L 786.40 193.40 L 793.60 194.30 L 823.00 195.10 L 830.30 195.70 L 839.80 197.60 L 850.30 201.30 L 856.10 204.10 L 859.80 206.30 L 866.50 211.50 L 869.50 214.40 L 872.20 217.60 L 874.50 221.10 L 876.30 224.80 L 877.70 228.70 L 878.60 233.00 L 879.40 240.20 L 879.90 254.60 L 879.70 265.40 L 877.20 308.60 L 877.30 319.40 L 877.60 324.00 L 878.30 328.40 L 879.40 332.70 L 881.60 338.90 L 892.80 363.50 L 895.10 369.80 L 896.30 374.10 L 897.00 378.50 L 899.90 412.90 L 901.00 432.90 L 900.80 442.80 L 900.30 449.40 L 899.30 456.00 L 898.00 462.50 L 896.80 466.30 L 895.20 469.60 L 893.40 472.70 L 891.30 475.40 L 888.00 478.80 L 884.40 481.80 L 880.40 484.50 L 874.00 488.10 L 853.90 496.90 L 849.80 518.40 L 844.30 539.70 L 840.90 550.20 L 837.20 560.60 L 833.10 570.80 L 828.70 580.80 L 823.80 590.70 L 818.50 600.30 L 812.90 609.70 L 806.80 618.90 L 802.40 624.90 L 797.50 630.50 L 782.10 646.70 L 777.30 652.30 L 774.50 656.30 L 771.90 660.50 L 769.70 664.90 L 769.40 673.90 L 770.50 682.90 L 773.00 691.70 L 774.70 695.90 L 779.00 703.80 L 781.50 705.50 L 787.00 708.00 L 791.40 709.20 L 812.90 713.80 L 820.90 715.80 L 828.80 718.10 L 836.60 720.90 L 844.20 724.00 L 851.60 727.60 L 858.70 731.70 L 865.50 736.20 L 871.90 741.20 L 876.40 745.30 L 880.60 749.80 L 884.50 754.60 L 888.10 759.70 L 890.90 764.60 L 893.30 769.60 L 895.20 774.70 L 896.60 780.00 L 897.70 785.30 L 898.80 796.00 L 898.70 801.50 L 898.00 808.70 L 896.80 815.80 L 894.90 822.90 L 892.50 829.90 L 889.60 836.60 L 886.10 843.10 L 882.10 849.30 L 877.70 855.10 L 872.80 860.60 L 867.50 865.70 L 861.80 870.20 L 848.40 878.80 L 840.90 882.90 L 833.10 886.50 L 825.20 889.80 L 809.00 895.10 L 792.30 899.10 L 781.00 901.00 L 769.60 902.50 L 754.80 903.70 L 751.50 904.40 L 748.50 905.50 L 744.20 907.70 L 740.20 910.60 L 725.00 923.50 L 718.80 927.70 L 712.50 931.50 L 706.00 934.70 L 699.20 937.40 L 692.30 939.60 L 685.30 941.50 L 678.10 942.90 L 670.80 943.90 L 661.00 944.80 L 651.10 945.20 L 641.20 945.10 L 621.50 943.80 L 605.80 942.00 L 599.70 940.70 L 593.90 938.80 L 588.20 936.50 L 582.80 933.80 L 572.30 927.30 L 562.60 919.70 L 552.00 922.60 L 541.40 925.00 L 530.70 927.00 L 519.80 928.50 L 508.90 929.60 L 498.00 930.10 L 487.10 930.10 L 476.20 929.60 L 465.40 928.60 L 454.60 926.90 L 443.90 924.70 L 433.30 921.90 L 425.80 919.30 L 411.00 913.30 L 403.80 909.70 L 396.90 905.70 L 390.30 901.30 L 385.60 897.70 L 381.20 893.70 L 377.00 889.40 L 363.10 872.10 L 359.50 868.20 L 356.80 865.90 L 353.90 863.90 L 350.70 862.20 L 330.90 854.40 L 324.50 851.50 L 316.30 846.90 L 312.30 844.20 L 308.00 841.00 L 300.00 834.00 L 289.00 822.40 L 278.70 810.20 L 273.60 805.10 L 266.10 800.10 L 251.70 792.30 L 247.20 789.30 L 243.20 785.90 L 240.80 783.40 L 238.70 780.40 L 236.90 777.00 L 234.50 771.40 L 232.60 765.80 L 231.30 760.20 L 230.40 754.50 L 230.10 743.00 L 231.30 731.40 L 232.80 723.80 L 234.80 716.20 L 237.20 708.60 L 241.40 697.60 L 245.90 687.00 L 238.70 678.90 L 231.30 671.20 L 223.50 663.70 L 211.40 653.00 L 199.00 642.70 L 173.60 622.70 L 168.30 618.80 L 151.30 607.20 L 140.50 598.80 L 134.30 592.40 L 129.10 585.30 L 127.00 581.20 L 125.30 576.80 L 124.10 572.50 L 123.30 568.10 L 122.90 563.80 L 123.00 559.50 L 123.70 553.80 L 125.00 548.30 L 126.90 542.80 L 129.30 537.50 L 132.10 532.40 L 135.50 527.50 L 139.20 522.90 L 143.10 518.70 L 151.70 511.20 L 156.30 508.20 L 161.20 505.60 L 176.40 498.60 L 181.20 496.00 L 185.90 493.00 L 186.40 487.40 L 186.40 476.50 L 185.80 468.20 L 182.00 435.30 L 181.50 427.10 L 181.70 416.10 L 182.30 410.60 L 184.10 403.90 L 187.80 395.90 L 193.00 386.50 L 196.80 378.60 L 198.70 372.10 L 199.00 368.70 L 198.90 365.20 L 196.20 351.50 L 185.90 311.80 L 183.80 301.80 L 181.80 288.40 L 181.30 281.50 L 181.40 275.70 L 182.00 269.90 L 183.10 264.10 L 184.80 258.50 L 187.00 253.10 L 189.70 247.90 L 192.10 244.20 L 197.70 237.50 L 201.00 234.60 L 205.90 230.70 L 211.10 227.30 L 216.50 224.40 L 222.10 221.80 L 227.90 219.60 L 239.80 216.10 L 268.40 211.20 L 272.40 210.10 L 276.10 208.50 L 278.40 207.20 L 282.60 203.50 L 303.80 177.80 L 315.80 163.90 L 321.10 158.60 L 335.10 146.00 L 343.90 138.80 L 353.00 132.00 L 362.50 125.70 L 372.20 119.80 L 382.10 114.30 L 392.30 109.20 L 402.70 104.60 L 413.30 100.30 L 424.00 96.50 L 434.80 93.00 L 445.80 89.90 L 460.60 86.30 L 475.50 83.30 L 490.40 81.00 Z M 349.90 154.60 L 341.30 161.50 L 333.00 168.80 L 325.00 176.40 L 317.30 184.30 L 302.80 200.90 L 292.60 214.00 L 282.90 227.40 L 270.40 226.80 L 263.90 227.00 L 257.40 227.60 L 251.00 228.60 L 244.60 230.00 L 238.40 231.90 L 232.50 234.20 L 226.80 237.00 L 219.00 242.20 L 212.20 248.60 L 209.20 252.20 L 206.60 256.10 L 204.30 260.50 L 202.40 265.20 L 200.70 277.70 L 200.60 290.10 L 201.20 298.30 L 202.20 306.50 L 206.30 326.90 L 212.00 351.40 L 214.60 363.60 L 215.90 371.90 L 216.90 380.10 L 217.50 388.40 L 209.40 394.40 L 205.80 397.90 L 202.60 401.70 L 199.40 407.30 L 198.30 410.30 L 197.60 413.50 L 197.40 416.90 L 197.70 420.50 L 201.40 457.00 L 206.30 493.30 L 209.20 499.20 L 213.00 503.50 L 216.00 505.70 L 219.30 507.50 L 222.90 508.80 L 230.60 510.50 L 234.70 510.90 L 258.90 511.90 L 262.40 523.10 L 266.30 534.20 L 270.70 545.20 L 275.50 555.90 L 280.80 566.40 L 286.60 576.70 L 296.40 591.40 L 301.70 598.40 L 315.30 614.70 L 316.90 617.30 L 318.20 620.10 L 318.10 622.00 L 317.00 625.10 L 315.60 627.20 L 310.10 633.10 L 299.80 623.70 L 289.80 613.90 L 260.60 583.90 L 250.70 574.10 L 236.90 561.60 L 229.70 555.70 L 227.00 549.00 L 223.80 542.30 L 221.40 538.00 L 215.90 529.90 L 212.70 526.20 L 209.20 522.90 L 205.40 519.90 L 201.40 517.30 L 196.90 515.20 L 192.10 513.60 L 186.80 513.50 L 181.60 514.10 L 176.30 515.30 L 171.20 517.10 L 166.40 519.40 L 161.70 522.20 L 157.30 525.40 L 153.40 529.10 L 149.90 533.10 L 147.60 536.40 L 144.00 543.40 L 142.70 547.20 L 141.80 551.00 L 141.30 554.90 L 141.30 559.00 L 141.70 563.20 L 142.80 566.90 L 144.30 570.30 L 146.10 573.40 L 150.70 579.00 L 157.60 584.90 L 176.20 597.50 L 180.40 600.90 L 240.80 650.70 L 270.10 676.50 L 268.80 680.70 L 266.90 684.70 L 257.50 699.80 L 255.40 703.80 L 251.50 715.00 L 249.40 722.30 L 247.70 729.70 L 246.70 737.30 L 246.40 742.30 L 246.40 747.30 L 246.90 752.20 L 247.90 757.10 L 249.30 761.90 L 251.40 766.60 L 253.10 769.50 L 255.10 772.00 L 257.40 774.10 L 261.30 776.70 L 265.60 778.80 L 279.30 783.90 L 283.60 785.90 L 297.30 803.70 L 307.20 814.90 L 312.60 820.20 L 318.20 825.10 L 324.20 829.50 L 334.60 835.90 L 342.90 839.80 L 349.30 842.10 L 369.10 848.00 L 372.70 851.90 L 385.30 868.80 L 388.80 872.80 L 393.40 877.60 L 398.30 881.90 L 403.50 886.00 L 408.90 889.60 L 414.60 892.90 L 426.50 898.50 L 432.70 900.90 L 441.10 903.50 L 449.60 905.60 L 458.20 907.20 L 470.40 908.90 L 482.60 909.90 L 495.00 910.40 L 504.20 910.40 L 513.50 910.00 L 522.60 909.10 L 531.70 907.80 L 540.80 906.00 L 549.70 903.70 L 558.40 900.90 L 567.10 897.50 L 571.10 902.00 L 575.20 906.00 L 579.60 909.60 L 584.10 912.80 L 593.90 918.30 L 604.40 922.50 L 611.70 924.70 L 619.10 926.30 L 626.70 927.50 L 634.30 928.20 L 642.00 928.50 L 649.70 928.40 L 664.90 927.20 L 678.70 925.00 L 685.00 923.40 L 691.10 921.50 L 697.20 919.20 L 703.00 916.40 L 708.70 913.30 L 714.10 909.90 L 719.30 906.00 L 724.30 901.90 L 728.90 897.40 L 733.30 892.60 L 737.40 887.40 L 749.70 887.40 L 762.10 886.70 L 774.50 885.60 L 783.70 884.30 L 792.90 882.50 L 801.90 880.40 L 810.80 877.90 L 819.60 874.90 L 828.20 871.40 L 836.50 867.40 L 844.70 862.80 L 850.00 859.40 L 855.10 855.40 L 859.80 851.10 L 864.10 846.40 L 868.00 841.30 L 871.40 835.90 L 874.40 830.30 L 876.80 824.50 L 878.70 818.40 L 880.30 809.00 L 880.60 804.30 L 880.20 793.50 L 879.30 787.80 L 877.80 782.20 L 875.80 776.80 L 873.30 771.70 L 870.30 766.70 L 866.90 762.00 L 863.10 757.50 L 859.00 753.30 L 854.70 749.50 L 850.10 745.90 L 845.30 742.70 L 838.90 739.10 L 832.30 735.90 L 825.60 733.10 L 818.70 730.80 L 809.40 728.30 L 799.80 726.40 L 790.20 725.00 L 780.40 724.10 L 761.00 723.30 L 760.80 717.50 L 759.20 706.10 L 751.50 672.40 L 750.10 664.00 L 749.20 655.40 L 755.10 649.40 L 773.50 632.00 L 779.30 625.90 L 784.70 619.40 L 790.40 611.90 L 795.70 604.20 L 805.30 588.20 L 811.00 577.10 L 816.20 565.80 L 820.80 554.20 L 824.90 542.50 L 828.60 530.50 L 831.80 518.40 L 834.50 506.20 L 836.90 494.00 L 838.80 481.70 L 859.50 475.70 L 864.50 473.90 L 872.50 470.00 L 878.30 465.80 L 880.30 462.70 L 881.80 459.50 L 882.80 456.20 L 883.80 451.10 L 884.20 445.80 L 884.20 440.40 L 883.10 424.40 L 881.20 409.20 L 879.20 386.10 L 878.30 378.50 L 877.10 370.90 L 875.30 363.40 L 872.80 360.90 L 870.10 358.80 L 858.00 352.00 L 859.80 334.70 L 861.00 317.40 L 861.80 300.00 L 862.10 282.60 L 862.10 247.80 L 862.10 243.90 L 861.50 240.20 L 860.40 236.60 L 859.00 233.20 L 857.10 229.90 L 852.30 224.10 L 849.50 221.60 L 843.20 217.40 L 836.20 214.70 L 826.90 212.50 L 817.60 212.00 L 811.40 212.30 L 805.10 213.10 L 798.90 214.30 L 789.70 216.60 L 780.70 219.20 L 770.70 205.60 L 760.20 192.10 L 753.00 183.40 L 745.40 174.90 L 737.60 166.80 L 729.40 159.00 L 720.70 151.70 L 703.80 139.10 L 695.70 133.80 L 687.50 128.80 L 679.10 124.20 L 670.40 120.00 L 659.40 115.20 L 648.20 110.90 L 636.80 107.10 L 625.20 103.80 L 613.40 101.10 L 601.60 98.80 L 589.70 97.00 L 577.70 95.70 L 565.60 94.80 L 553.60 94.30 L 541.60 94.30 L 517.70 95.20 L 505.70 96.10 L 493.70 97.50 L 481.80 99.20 L 469.90 101.40 L 458.10 103.90 L 446.50 107.00 L 434.90 110.40 L 423.50 114.30 L 412.30 118.70 L 401.30 123.50 L 390.50 128.70 L 379.90 134.50 L 369.70 140.70 L 359.70 147.40 L 349.90 154.60 Z" fill="#fcfaf8" fill-rule="nonzero" hidden="true" node-id="60" stroke="none" target-height="867.7" target-width="778.1" target-x="122.9" target-y="77.5" visibility="hidden"></path><path d="M 414.20 526.60 L 413.80 521.90 L 413.90 517.40 L 414.70 512.90 L 416.00 508.40 L 417.70 504.20 L 420.00 500.20 L 422.60 496.40 L 425.60 492.90 L 429.00 489.80 L 432.70 487.10 L 436.60 484.90 L 440.80 483.20 L 445.20 482.00 L 449.70 481.40 L 459.10 481.60 L 463.50 482.40 L 467.80 483.70 L 471.90 485.50 L 475.70 487.70 L 479.30 490.40 L 482.60 493.40 L 485.60 496.80 L 488.20 500.50 L 490.50 504.40 L 492.30 508.50 L 493.80 512.80 L 494.70 517.20 L 495.20 521.70 L 495.10 526.20 L 483.30 506.30 L 479.90 501.70 L 476.00 497.60 L 473.10 495.20 L 469.90 493.10 L 466.30 491.30 L 461.70 490.00 L 456.90 489.10 L 451.90 488.70 L 447.00 488.90 L 440.70 490.20 L 434.90 492.80 L 432.20 494.70 L 429.80 496.90 L 427.10 499.70 L 424.90 502.70 L 423.00 505.90 L 420.60 510.90 L 414.20 526.60 Z" fill="#fcfaf7" fill-rule="nonzero" node-id="62" stroke="none" target-height="45.19998" target-width="81.400024" target-x="413.8" target-y="481.4"></path><path d="M 518.40 743.30 L 520.90 737.30 L 522.60 734.40 L 524.70 731.70 L 527.90 728.80 L 531.70 727.00 L 533.80 726.60 L 536.20 726.60 L 550.60 727.10 L 565.10 727.00 L 584.30 725.70 L 593.90 724.50 L 596.90 740.50 L 598.10 748.60 L 598.70 756.80 L 598.80 762.20 L 598.00 773.00 L 596.90 778.20 L 595.40 783.30 L 593.30 788.40 L 588.20 790.70 L 583.00 792.50 L 577.70 793.80 L 572.30 794.70 L 561.30 795.60 L 552.90 795.60 L 519.10 793.80 L 510.90 793.70 L 510.60 782.30 L 510.90 776.70 L 512.00 768.20 L 513.70 759.80 L 518.40 743.30 Z M 528.50 733.70 L 525.90 742.30 L 521.80 752.60 L 532.60 751.80 L 543.60 760.70 L 547.00 764.00 L 553.10 771.30 L 553.20 774.50 L 552.90 777.60 L 550.50 790.20 L 575.80 787.80 L 564.40 771.90 L 569.00 773.00 L 577.80 776.50 L 584.10 779.80 L 590.10 783.60 L 591.30 762.90 L 591.30 752.60 L 590.70 742.20 L 588.50 732.80 L 528.50 733.70 Z M 518.30 758.20 L 516.90 768.60 L 516.10 779.00 L 515.70 789.50 L 534.10 790.90 L 543.40 791.10 L 543.50 779.80 L 543.30 774.20 L 542.50 768.70 L 540.50 766.20 L 538.30 764.30 L 535.80 762.80 L 531.60 761.10 L 527.20 759.90 L 518.30 758.20 Z" fill="#301b30" fill-rule="nonzero" node-id="64" stroke="none" target-height="71.099976" target-width="88.19998" target-x="510.6" target-y="724.5"></path><path d="M 508.50 294.20 L 529.40 293.30 L 550.20 292.80 L 571.00 292.80 L 591.90 293.20 L 619.60 294.40 L 647.30 296.30 L 675.00 298.70 L 693.30 301.80 L 711.60 305.50 L 723.70 308.40 L 735.70 311.70 L 747.50 315.40 L 759.20 319.60 L 770.70 324.30 L 781.90 329.60 L 786.20 332.00 L 790.00 334.70 L 793.50 337.70 L 796.50 340.90 L 800.10 345.70 L 803.20 350.80 L 805.80 356.20 L 809.80 367.80 L 813.30 383.20 L 818.10 410.40 L 818.40 421.90 L 818.20 433.50 L 817.50 445.00 L 816.40 456.70 L 814.60 468.20 L 812.40 479.60 L 809.60 490.80 L 806.30 502.00 L 802.40 512.90 L 798.00 523.60 L 793.00 534.00 L 787.50 544.10 L 782.60 552.00 L 777.30 559.60 L 771.70 566.90 L 765.70 574.00 L 759.20 580.80 L 751.40 588.20 L 743.20 595.10 L 734.80 601.60 L 726.00 607.60 L 717.00 613.30 L 707.80 618.70 L 698.30 623.60 L 688.60 628.20 L 675.50 633.70 L 662.10 638.70 L 648.50 643.00 L 634.70 646.80 L 620.80 650.10 L 593.30 655.10 L 579.80 656.80 L 566.20 658.00 L 552.50 658.70 L 538.80 658.90 L 525.10 658.50 L 511.50 657.70 L 497.90 656.40 L 484.30 654.50 L 470.80 652.20 L 457.40 649.40 L 444.10 646.10 L 431.00 642.30 L 418.00 638.10 L 405.10 633.40 L 396.20 629.60 L 387.60 625.40 L 379.30 620.70 L 371.20 615.50 L 363.40 609.90 L 356.00 603.90 L 348.80 597.50 L 341.90 590.80 L 335.40 583.70 L 329.20 576.40 L 323.30 568.80 L 311.30 551.20 L 305.30 541.20 L 299.90 530.90 L 294.90 520.30 L 290.50 509.50 L 286.50 498.60 L 283.10 487.50 L 280.10 476.20 L 277.50 464.80 L 275.50 453.30 L 273.90 441.70 L 272.70 430.10 L 272.00 418.40 L 271.80 406.70 L 272.00 395.10 L 272.60 383.50 L 274.00 371.90 L 275.10 366.10 L 276.60 360.40 L 277.80 356.70 L 281.10 349.90 L 283.30 346.70 L 285.80 343.80 L 288.80 341.10 L 293.40 337.80 L 303.20 332.10 L 310.90 328.60 L 318.80 325.40 L 334.90 319.70 L 349.00 315.60 L 363.20 311.90 L 377.50 308.80 L 406.30 303.60 L 420.90 301.50 L 442.70 299.00 L 464.70 297.00 L 508.50 294.20 Z M 330.30 335.60 L 309.50 343.60 L 309.80 355.10 L 310.80 366.90 L 313.20 382.60 L 315.00 390.30 L 317.10 398.00 L 319.60 405.50 L 322.60 412.80 L 326.00 419.80 L 329.90 426.60 L 334.20 433.00 L 341.80 441.90 L 350.60 449.90 L 351.60 452.80 L 354.80 452.90 L 357.90 452.50 L 360.90 451.80 L 363.70 450.60 L 366.30 449.10 L 368.50 447.20 L 370.40 444.90 L 371.90 442.10 L 372.90 438.90 L 373.50 432.60 L 373.70 420.20 L 371.30 382.90 L 371.10 373.60 L 373.00 344.30 L 373.60 324.40 L 362.60 326.50 L 351.70 329.10 L 340.90 332.10 L 330.30 335.60 Z M 774.40 336.50 L 768.70 381.10 L 766.30 395.80 L 764.30 405.50 L 761.90 415.20 L 756.40 433.20 L 753.50 441.50 L 750.10 449.60 L 744.60 461.50 L 738.50 473.20 L 725.20 496.00 L 704.10 512.40 L 689.60 522.70 L 681.90 527.30 L 676.40 529.00 L 671.00 530.20 L 659.90 531.50 L 648.60 531.60 L 640.20 531.10 L 615.00 527.80 L 601.40 526.80 L 587.60 526.30 L 569.30 526.40 L 551.00 528.00 L 542.00 529.40 L 526.70 532.60 L 520.50 534.20 L 505.30 539.20 L 478.20 549.00 L 465.90 552.30 L 459.70 553.40 L 453.40 554.10 L 446.90 554.30 L 440.40 554.00 L 424.30 547.20 L 416.20 544.20 L 407.90 541.40 L 399.60 539.20 L 391.00 537.50 L 383.30 532.50 L 359.50 518.40 L 351.70 513.60 L 344.20 508.30 L 337.60 503.20 L 331.40 497.80 L 325.40 491.90 L 319.70 485.80 L 314.40 479.30 L 309.50 472.60 L 305.10 465.50 L 301.10 458.20 L 297.70 450.70 L 295.50 444.90 L 292.10 432.90 L 290.00 420.70 L 289.20 408.70 L 289.30 399.60 L 290.60 372.50 L 290.60 363.40 L 290.00 354.40 L 286.30 366.60 L 284.10 379.00 L 283.40 387.30 L 283.10 395.70 L 283.30 404.20 L 284.20 416.90 L 285.60 429.60 L 289.10 454.60 L 290.80 464.20 L 293.00 473.60 L 295.70 482.80 L 302.20 500.90 L 306.00 509.80 L 312.10 522.90 L 318.60 535.90 L 332.00 561.50 L 339.40 570.80 L 347.20 579.80 L 352.80 585.60 L 358.60 591.00 L 364.60 596.20 L 371.00 600.80 L 377.80 605.00 L 395.90 614.50 L 407.20 619.90 L 418.70 624.70 L 430.50 628.90 L 442.40 632.60 L 454.40 635.80 L 466.60 638.50 L 479.00 640.70 L 491.40 642.40 L 503.80 643.70 L 516.30 644.50 L 528.80 644.80 L 541.40 644.70 L 553.90 644.20 L 566.30 643.30 L 589.40 641.00 L 611.00 637.80 L 632.50 633.20 L 653.60 627.00 L 664.00 623.30 L 674.30 619.30 L 684.30 614.80 L 694.20 610.00 L 703.80 604.80 L 713.30 599.20 L 722.40 593.20 L 731.30 586.80 L 739.80 580.00 L 748.10 572.80 L 755.90 565.30 L 763.40 557.30 L 770.60 548.90 L 775.80 541.40 L 780.60 533.60 L 786.20 522.80 L 788.40 517.20 L 790.30 511.50 L 791.60 505.50 L 792.30 499.40 L 798.20 475.40 L 800.80 463.20 L 802.90 450.80 L 804.00 442.50 L 805.00 426.10 L 804.90 417.80 L 804.20 409.70 L 803.00 401.60 L 801.70 395.60 L 797.90 383.80 L 795.40 377.90 L 794.90 371.90 L 793.80 365.80 L 792.30 359.90 L 790.20 354.20 L 788.40 350.60 L 783.90 344.10 L 781.10 341.30 L 778.00 338.70 L 774.40 336.50 Z M 648.60 461.10 L 644.30 462.80 L 640.40 464.90 L 636.80 467.40 L 633.40 470.40 L 630.40 473.70 L 627.80 477.30 L 625.60 481.20 L 623.70 485.30 L 622.30 489.50 L 621.30 493.90 L 620.80 498.40 L 620.70 502.80 L 621.10 507.30 L 622.00 511.70 L 623.50 516.00 L 627.80 497.00 L 630.70 487.70 L 632.40 484.50 L 634.40 481.40 L 636.80 478.50 L 639.50 476.00 L 642.50 473.70 L 645.70 471.90 L 649.10 470.30 L 652.60 469.30 L 656.20 468.70 L 659.90 468.60 L 663.50 469.00 L 670.80 471.20 L 674.20 472.80 L 677.30 474.80 L 681.60 478.20 L 697.70 494.20 L 702.00 497.70 L 701.10 492.80 L 699.70 488.20 L 697.70 483.80 L 695.20 479.60 L 692.30 475.80 L 688.90 472.30 L 685.20 469.10 L 681.20 466.40 L 677.00 464.00 L 672.50 462.20 L 667.90 460.90 L 663.10 460.00 L 658.30 459.80 L 653.50 460.10 L 648.60 461.10 Z M 414.20 526.60 L 420.60 510.90 L 423.00 505.90 L 424.90 502.70 L 427.10 499.70 L 432.20 494.70 L 434.90 492.80 L 440.70 490.20 L 447.00 488.90 L 451.90 488.70 L 456.90 489.10 L 461.70 490.00 L 466.30 491.30 L 469.90 493.10 L 473.10 495.20 L 476.00 497.60 L 479.90 501.70 L 483.30 506.30 L 495.10 526.20 L 495.20 521.70 L 494.70 517.20 L 493.80 512.80 L 492.30 508.50 L 490.50 504.40 L 488.20 500.50 L 485.60 496.80 L 482.60 493.40 L 479.30 490.40 L 475.70 487.70 L 471.90 485.50 L 467.80 483.70 L 463.50 482.40 L 459.10 481.60 L 449.70 481.40 L 445.20 482.00 L 440.80 483.20 L 436.60 484.90 L 432.70 487.10 L 429.00 489.80 L 425.60 492.90 L 422.60 496.40 L 420.00 500.20 L 417.70 504.20 L 416.00 508.40 L 414.70 512.90 L 413.90 517.40 L 413.80 521.90 L 414.20 526.60 Z" fill="#311b30" fill-rule="nonzero" node-id="66" stroke="none" target-height="366.10004" target-width="546.60004" target-x="271.8" target-y="292.8"></path><path d="M 321.10 653.00 L 344.30 668.90 L 360.30 678.60 L 368.70 682.90 L 378.00 687.10 L 387.50 690.80 L 397.10 694.00 L 416.70 699.50 L 426.60 701.70 L 441.60 704.70 L 456.70 707.20 L 495.40 712.80 L 512.40 714.40 L 521.00 714.60 L 517.30 718.90 L 514.00 723.40 L 511.00 728.10 L 508.40 733.10 L 506.30 738.30 L 499.70 762.00 L 497.50 771.20 L 494.80 786.70 L 494.10 799.20 L 498.80 802.60 L 503.70 805.30 L 508.90 807.40 L 514.20 809.00 L 519.70 810.30 L 525.40 811.10 L 534.10 811.80 L 542.70 812.10 L 559.70 812.00 L 576.70 809.80 L 582.60 808.70 L 588.30 807.20 L 593.70 805.20 L 600.30 801.60 L 603.20 799.30 L 605.70 796.70 L 608.00 793.60 L 609.90 790.00 L 611.50 783.90 L 612.70 777.80 L 613.50 771.50 L 614.10 762.20 L 614.20 752.70 L 613.70 743.20 L 611.20 714.90 L 618.20 715.00 L 625.00 714.70 L 631.70 713.90 L 641.80 712.20 L 651.70 710.00 L 681.40 702.00 L 691.40 699.70 L 704.80 697.30 L 711.60 696.50 L 706.40 704.50 L 700.80 712.10 L 694.80 719.40 L 685.30 729.90 L 675.50 740.10 L 641.40 774.00 L 634.70 781.20 L 628.60 788.80 L 624.80 794.10 L 621.50 799.70 L 618.60 805.60 L 617.40 811.10 L 617.70 817.80 L 621.60 833.90 L 622.30 837.90 L 622.80 844.40 L 608.90 845.10 L 595.00 845.30 L 581.10 845.10 L 560.30 844.10 L 518.70 840.70 L 497.90 838.70 L 472.70 835.50 L 460.10 833.40 L 447.70 830.80 L 439.50 828.70 L 431.40 826.20 L 423.50 823.30 L 415.80 819.90 L 408.20 816.10 L 400.90 811.70 L 393.60 806.80 L 386.80 801.40 L 380.40 795.50 L 374.30 789.30 L 368.50 782.70 L 360.80 773.10 L 378.60 763.50 L 384.40 760.00 L 390.00 756.20 L 395.30 752.00 L 400.80 747.30 L 406.10 742.30 L 411.10 737.10 L 418.20 728.80 L 425.00 720.30 L 376.30 735.20 L 360.00 739.90 L 349.00 742.60 L 338.00 745.00 L 318.60 748.20 L 301.70 749.40 L 293.10 749.50 L 288.00 749.10 L 282.90 748.10 L 278.00 746.70 L 263.60 741.20 L 279.20 722.40 L 260.90 730.90 L 262.80 722.50 L 265.30 714.10 L 267.40 708.60 L 269.80 703.40 L 272.60 698.30 L 275.90 693.60 L 279.60 689.20 L 283.90 685.10 L 303.00 669.60 L 312.20 661.50 L 321.10 653.00 Z" fill="#f3ddc8" fill-rule="nonzero" node-id="68" stroke="none" target-height="192.29999" target-width="450.69998" target-x="260.9" target-y="653"></path><path d="M 759.20 580.80 L 787.80 587.90 L 783.20 595.50 L 778.40 602.80 L 773.20 609.90 L 767.70 616.60 L 761.80 623.10 L 754.00 630.70 L 745.90 638.00 L 737.30 644.70 L 728.40 651.10 L 719.10 657.00 L 709.60 662.40 L 699.80 667.40 L 689.70 671.90 L 679.50 676.00 L 669.10 679.60 L 658.70 682.80 L 648.20 685.50 L 619.70 690.70 L 591.10 694.40 L 571.90 696.10 L 552.60 697.10 L 533.40 697.50 L 514.10 697.40 L 494.80 696.80 L 475.60 695.70 L 460.10 693.80 L 434.40 689.40 L 414.20 684.60 L 404.20 681.70 L 394.30 678.40 L 384.50 674.70 L 389.10 670.70 L 396.30 663.30 L 400.90 656.70 L 402.80 653.20 L 404.20 649.50 L 405.30 645.70 L 405.80 641.80 L 405.70 637.70 L 405.10 633.40 L 418.00 638.10 L 431.00 642.30 L 444.10 646.10 L 457.40 649.40 L 470.80 652.20 L 484.30 654.50 L 497.90 656.40 L 511.50 657.70 L 525.10 658.50 L 538.80 658.90 L 552.50 658.70 L 566.20 658.00 L 579.80 656.80 L 593.30 655.10 L 620.80 650.10 L 634.70 646.80 L 648.50 643.00 L 662.10 638.70 L 675.50 633.70 L 688.60 628.20 L 698.30 623.60 L 707.80 618.70 L 717.00 613.30 L 726.00 607.70 L 734.80 601.60 L 743.20 595.10 L 751.40 588.20 L 759.20 580.80 Z" fill="#919ea9" fill-rule="nonzero" node-id="70" stroke="none" target-height="116.70001" target-width="403.3" target-x="384.5" target-y="580.8"></path><path d="M 527.40 722.90 L 537.10 722.10 L 576.30 721.20 L 594.80 720.10 L 597.00 720.40 L 598.80 721.10 L 599.70 721.90 L 600.40 723.10 L 600.90 724.70 L 602.90 737.50 L 603.90 753.70 L 603.30 773.30 L 602.10 785.60 L 601.30 787.80 L 600.00 789.80 L 596.50 793.10 L 590.90 795.90 L 587.40 797.00 L 580.20 798.70 L 565.60 801.00 L 550.90 801.90 L 543.40 801.90 L 532.30 801.40 L 521.30 800.30 L 514.20 799.00 L 510.60 798.00 L 507.30 796.60 L 505.40 795.40 L 503.70 793.70 L 502.30 791.70 L 503.20 782.20 L 504.70 772.80 L 506.80 763.50 L 512.20 745.20 L 515.40 736.30 L 518.20 730.70 L 519.90 727.90 L 521.90 725.60 L 523.50 724.30 L 525.30 723.40 L 527.40 722.90 Z M 518.40 743.30 L 513.70 759.80 L 512.00 768.20 L 510.90 776.70 L 510.60 782.30 L 510.90 793.70 L 519.10 793.80 L 552.90 795.60 L 561.30 795.60 L 572.30 794.70 L 577.70 793.80 L 583.00 792.50 L 588.20 790.70 L 593.30 788.40 L 595.40 783.30 L 596.90 778.20 L 598.00 773.00 L 598.80 762.20 L 598.70 756.80 L 598.10 748.60 L 596.90 740.50 L 593.90 724.50 L 584.30 725.70 L 565.10 727.00 L 550.60 727.10 L 536.20 726.60 L 531.70 727.00 L 527.90 728.80 L 524.70 731.70 L 522.60 734.40 L 520.90 737.30 L 518.40 743.30 Z" fill="#919ea9" fill-rule="nonzero" node-id="72" stroke="none" target-height="81.80005" target-width="101.60004" target-x="502.3" target-y="720.1"></path><path d="M 412.90 94.00 L 426.60 89.20 L 440.40 85.00 L 454.50 81.30 L 468.70 78.30 L 483.00 75.80 L 497.30 73.90 L 519.00 72.30 L 529.90 72.00 L 554.50 72.10 L 568.20 72.70 L 581.90 73.80 L 595.60 75.60 L 609.20 77.90 L 622.70 80.70 L 636.00 84.20 L 649.20 88.20 L 659.60 91.90 L 669.80 95.90 L 679.80 100.30 L 689.70 105.10 L 699.40 110.30 L 708.90 115.80 L 718.10 121.70 L 727.10 128.10 L 735.80 134.80 L 744.30 141.90 L 751.20 148.10 L 757.80 154.70 L 776.80 175.10 L 783.30 181.70 L 786.00 184.10 L 788.70 185.90 L 791.70 187.20 L 794.80 188.20 L 801.40 189.20 L 816.90 189.40 L 828.10 190.00 L 834.50 190.70 L 840.80 192.00 L 847.10 193.80 L 853.10 196.10 L 858.90 198.90 L 863.00 201.40 L 870.50 207.20 L 873.90 210.60 L 876.90 214.20 L 879.60 218.10 L 881.90 222.30 L 883.90 226.90 L 885.00 234.20 L 886.00 248.80 L 886.00 259.80 L 883.50 304.10 L 883.70 319.50 L 884.30 323.80 L 885.30 328.00 L 887.40 334.10 L 898.10 358.00 L 900.30 364.10 L 902.20 372.60 L 903.40 388.30 L 905.90 411.20 L 907.40 430.30 L 907.20 445.50 L 906.50 453.00 L 905.10 460.40 L 903.00 467.90 L 901.20 472.40 L 898.90 476.50 L 896.20 480.10 L 893.00 483.30 L 889.60 486.30 L 885.80 489.00 L 879.80 492.50 L 873.40 495.60 L 860.60 500.80 L 855.40 524.70 L 852.20 536.50 L 848.70 548.30 L 844.70 559.90 L 840.30 571.30 L 835.50 582.60 L 830.10 593.60 L 824.20 604.30 L 814.40 619.70 L 803.20 634.40 L 789.70 649.20 L 783.40 656.90 L 780.70 661.10 L 778.60 665.60 L 778.30 670.10 L 778.70 679.10 L 779.40 683.70 L 781.00 689.60 L 783.10 695.20 L 785.90 700.60 L 826.30 711.50 L 836.30 714.60 L 846.10 718.20 L 852.40 721.00 L 858.60 724.00 L 864.60 727.50 L 870.30 731.30 L 875.80 735.70 L 885.30 744.90 L 889.10 749.40 L 892.40 754.10 L 895.40 759.00 L 897.90 764.10 L 900.00 769.40 L 901.80 774.80 L 903.20 780.40 L 904.70 791.80 L 904.80 803.40 L 904.10 811.10 L 902.80 818.70 L 900.80 826.30 L 898.30 833.70 L 895.20 840.70 L 891.50 847.60 L 888.40 852.50 L 881.30 861.60 L 877.30 865.70 L 871.50 870.80 L 865.60 875.60 L 859.40 879.90 L 853.00 883.90 L 844.20 888.80 L 835.10 893.10 L 825.60 896.80 L 816.00 900.00 L 806.20 902.80 L 796.30 905.00 L 786.30 906.80 L 776.30 908.10 L 762.60 909.30 L 759.10 909.90 L 755.90 910.90 L 751.10 912.90 L 746.60 915.40 L 742.30 918.40 L 724.80 931.90 L 719.50 935.20 L 714.10 938.10 L 708.40 940.70 L 700.70 943.70 L 692.80 946.10 L 684.60 948.10 L 676.40 949.60 L 660.00 951.60 L 642.40 952.00 L 624.70 951.10 L 615.90 950.00 L 607.20 948.50 L 598.60 946.50 L 590.30 943.90 L 582.10 940.80 L 576.10 938.00 L 570.30 934.90 L 564.70 931.40 L 559.20 927.50 L 547.80 929.90 L 536.20 932.00 L 524.60 933.70 L 512.80 934.90 L 501.10 935.60 L 489.30 935.80 L 477.60 935.40 L 465.90 934.40 L 454.30 932.80 L 445.70 931.20 L 437.10 929.10 L 428.70 926.70 L 420.30 923.80 L 410.20 919.70 L 400.30 915.00 L 393.80 911.50 L 387.70 907.60 L 381.80 903.30 L 377.70 899.80 L 370.10 892.00 L 357.70 875.80 L 354.30 872.20 L 351.90 870.00 L 349.20 868.30 L 346.10 866.80 L 324.10 857.70 L 317.00 854.10 L 308.10 848.40 L 297.50 839.60 L 291.50 833.80 L 274.10 815.50 L 267.80 810.00 L 263.40 806.70 L 258.70 803.70 L 249.40 799.20 L 245.60 796.80 L 242.10 794.10 L 238.90 791.10 L 236.00 787.70 L 231.20 780.40 L 229.20 776.30 L 227.10 770.70 L 225.50 765.00 L 224.50 759.10 L 223.50 752.80 L 223.10 746.70 L 223.40 740.70 L 225.30 728.70 L 226.80 722.80 L 235.00 696.30 L 237.40 687.60 L 228.00 677.50 L 218.20 667.90 L 208.10 658.60 L 197.70 649.70 L 176.10 632.70 L 159.40 620.50 L 142.60 608.70 L 134.90 602.60 L 128.00 595.50 L 122.40 587.50 L 120.10 583.20 L 118.40 578.70 L 117.00 574.10 L 116.20 569.30 L 116.00 564.40 L 116.90 554.10 L 117.70 549.10 L 119.00 544.20 L 120.60 539.60 L 123.30 533.70 L 126.60 528.00 L 130.40 522.70 L 134.60 517.60 L 139.30 512.90 L 144.30 508.40 L 155.10 500.40 L 160.90 496.90 L 166.80 493.60 L 178.60 488.00 L 178.40 478.70 L 177.80 469.40 L 175.10 441.60 L 174.50 432.30 L 174.40 423.10 L 174.90 413.80 L 175.50 409.60 L 176.50 405.70 L 177.90 401.80 L 180.40 396.20 L 188.80 379.70 L 191.60 372.10 L 192.40 368.10 L 190.70 357.90 L 188.30 347.70 L 180.10 317.30 L 177.70 307.20 L 176.40 300.40 L 174.90 286.70 L 174.80 279.80 L 175.20 272.90 L 176.20 265.80 L 177.30 261.00 L 178.70 256.40 L 180.60 251.90 L 182.80 247.70 L 186.30 242.30 L 190.30 237.30 L 194.90 232.70 L 199.80 228.50 L 205.10 224.80 L 214.90 219.10 L 223.60 215.10 L 230.40 212.80 L 244.30 209.30 L 265.50 204.90 L 268.20 204.20 L 273.00 201.80 L 276.30 199.50 L 282.10 193.80 L 298.20 174.40 L 306.80 164.90 L 315.80 155.70 L 325.30 147.00 L 335.10 138.60 L 345.20 130.80 L 355.80 123.40 L 366.60 116.50 L 377.80 110.00 L 389.20 104.20 L 400.90 98.80 L 412.90 94.00 Z M 490.40 81.00 L 475.50 83.30 L 460.60 86.30 L 445.80 89.90 L 434.80 93.00 L 424.00 96.50 L 413.30 100.30 L 402.70 104.60 L 392.30 109.20 L 382.10 114.30 L 372.20 119.80 L 362.50 125.70 L 353.00 132.00 L 343.90 138.80 L 335.10 146.00 L 321.10 158.60 L 315.80 163.90 L 303.80 177.80 L 282.60 203.50 L 278.40 207.20 L 276.10 208.50 L 272.40 210.10 L 268.40 211.20 L 239.80 216.10 L 227.90 219.60 L 222.10 221.80 L 216.50 224.40 L 211.10 227.30 L 205.90 230.70 L 201.00 234.60 L 197.70 237.50 L 192.10 244.20 L 189.70 247.90 L 187.00 253.10 L 184.80 258.50 L 183.10 264.10 L 182.00 269.90 L 181.40 275.70 L 181.30 281.50 L 181.80 288.40 L 183.80 301.80 L 185.90 311.80 L 196.20 351.50 L 198.90 365.20 L 199.00 368.70 L 198.70 372.10 L 196.80 378.60 L 193.00 386.50 L 187.80 395.90 L 184.10 403.90 L 182.30 410.60 L 181.70 416.10 L 181.50 427.10 L 182.00 435.30 L 185.80 468.20 L 186.40 476.50 L 186.40 487.40 L 185.90 493.00 L 181.20 496.00 L 176.40 498.60 L 161.20 505.60 L 156.30 508.20 L 151.70 511.20 L 143.10 518.70 L 139.20 522.90 L 135.50 527.50 L 132.10 532.40 L 129.30 537.50 L 126.90 542.80 L 125.00 548.30 L 123.70 553.80 L 123.00 559.50 L 122.90 563.80 L 123.30 568.10 L 124.10 572.50 L 125.30 576.80 L 127.00 581.20 L 129.10 585.30 L 134.30 592.40 L 140.50 598.80 L 151.30 607.20 L 173.60 622.70 L 199.00 642.70 L 211.40 653.00 L 223.50 663.70 L 231.30 671.20 L 238.70 678.90 L 245.90 687.00 L 241.40 697.60 L 237.20 708.60 L 234.80 716.20 L 232.80 723.80 L 231.30 731.40 L 230.10 743.00 L 230.40 754.50 L 231.30 760.20 L 232.60 765.80 L 234.50 771.40 L 236.90 777.00 L 238.70 780.40 L 240.80 783.40 L 243.20 785.90 L 247.20 789.30 L 251.70 792.30 L 266.10 800.10 L 273.60 805.10 L 276.20 807.50 L 289.00 822.40 L 300.00 834.00 L 308.00 841.00 L 312.30 844.20 L 316.30 846.90 L 324.50 851.50 L 330.90 854.40 L 350.70 862.20 L 353.90 863.90 L 356.80 865.90 L 359.50 868.20 L 363.10 872.10 L 377.00 889.40 L 381.20 893.70 L 385.60 897.70 L 390.30 901.30 L 396.90 905.70 L 403.80 909.70 L 411.00 913.30 L 418.40 916.50 L 433.30 921.90 L 443.90 924.70 L 454.60 926.90 L 465.40 928.60 L 476.20 929.60 L 487.10 930.10 L 498.00 930.10 L 508.90 929.60 L 519.80 928.50 L 530.70 927.00 L 541.40 925.00 L 552.00 922.60 L 562.60 919.70 L 572.30 927.30 L 582.80 933.80 L 588.20 936.50 L 593.90 938.80 L 599.70 940.70 L 605.80 942.00 L 621.50 943.80 L 641.20 945.10 L 651.10 945.20 L 661.00 944.80 L 670.80 943.90 L 678.10 942.90 L 685.30 941.50 L 692.30 939.60 L 699.20 937.40 L 706.00 934.70 L 712.50 931.50 L 718.80 927.70 L 725.00 923.50 L 740.20 910.60 L 744.20 907.70 L 748.50 905.50 L 751.50 904.40 L 754.80 903.70 L 769.60 902.50 L 781.00 901.00 L 792.30 899.10 L 800.70 897.30 L 809.00 895.10 L 825.20 889.80 L 833.10 886.50 L 840.90 882.90 L 848.40 878.80 L 861.80 870.20 L 867.50 865.70 L 872.80 860.60 L 877.70 855.10 L 882.10 849.30 L 886.10 843.10 L 889.60 836.60 L 892.50 829.90 L 894.90 822.90 L 896.80 815.80 L 898.00 808.70 L 898.70 801.50 L 898.80 796.00 L 897.70 785.30 L 896.60 780.00 L 895.20 774.70 L 893.30 769.60 L 890.90 764.60 L 888.10 759.70 L 884.50 754.60 L 880.60 749.80 L 876.40 745.30 L 871.90 741.20 L 865.50 736.20 L 858.70 731.70 L 851.60 727.60 L 844.20 724.00 L 836.60 720.90 L 828.80 718.10 L 820.90 715.80 L 812.90 713.80 L 791.40 709.20 L 787.00 708.00 L 781.50 705.50 L 779.00 703.80 L 774.70 695.90 L 773.00 691.70 L 770.50 682.90 L 769.40 673.90 L 769.70 664.90 L 771.90 660.50 L 774.50 656.30 L 777.30 652.30 L 782.10 646.70 L 797.50 630.50 L 802.40 624.90 L 806.80 618.90 L 812.90 609.70 L 818.50 600.30 L 823.80 590.70 L 828.70 580.80 L 833.10 570.80 L 837.20 560.60 L 840.90 550.20 L 844.30 539.70 L 849.80 518.40 L 853.90 496.90 L 874.00 488.10 L 880.40 484.50 L 884.40 481.80 L 888.00 478.80 L 891.30 475.40 L 893.40 472.70 L 895.20 469.60 L 896.80 466.30 L 898.00 462.50 L 899.30 456.00 L 900.30 449.40 L 900.80 442.80 L 901.00 432.90 L 899.90 412.90 L 897.00 378.50 L 896.30 374.10 L 895.10 369.80 L 892.80 363.50 L 881.60 338.90 L 879.40 332.70 L 878.30 328.40 L 877.60 324.00 L 877.30 319.40 L 877.20 308.60 L 879.70 265.40 L 879.90 254.60 L 879.40 240.20 L 878.60 233.00 L 877.70 228.70 L 876.30 224.80 L 874.50 221.10 L 872.20 217.60 L 869.50 214.40 L 866.50 211.50 L 859.80 206.30 L 856.10 204.10 L 850.30 201.30 L 839.80 197.60 L 830.30 195.70 L 823.00 195.10 L 793.60 194.30 L 786.40 193.40 L 782.40 190.30 L 775.00 183.40 L 754.90 160.40 L 749.70 154.90 L 735.70 142.50 L 727.20 135.70 L 718.50 129.30 L 709.50 123.40 L 700.20 117.80 L 690.80 112.50 L 681.10 107.70 L 671.30 103.20 L 661.30 99.10 L 651.10 95.40 L 638.20 91.30 L 625.20 87.70 L 612.00 84.60 L 598.60 82.10 L 585.10 80.20 L 571.60 78.80 L 558.00 77.90 L 544.40 77.50 L 530.80 77.60 L 517.20 78.30 L 503.80 79.40 L 490.40 81.00 Z" fill="#e8d2d0" fill-rule="nonzero" hidden="true" node-id="74" stroke="none" target-height="880" target-width="791.4" target-x="116" target-y="72" visibility="hidden"></path><path d="M 349.90 154.60 L 359.70 147.40 L 369.70 140.70 L 379.90 134.50 L 390.50 128.70 L 401.30 123.50 L 412.30 118.70 L 423.50 114.30 L 434.90 110.40 L 446.50 107.00 L 458.10 103.90 L 469.90 101.40 L 481.80 99.20 L 493.70 97.50 L 505.70 96.10 L 517.70 95.20 L 541.60 94.30 L 553.60 94.30 L 565.60 94.80 L 577.70 95.70 L 589.70 97.00 L 601.60 98.80 L 613.40 101.10 L 625.20 103.80 L 636.80 107.10 L 648.20 110.90 L 659.40 115.20 L 670.40 120.00 L 679.10 124.20 L 687.50 128.80 L 695.70 133.80 L 703.80 139.10 L 720.70 151.70 L 729.40 159.00 L 737.60 166.80 L 745.40 174.90 L 753.00 183.40 L 760.20 192.10 L 770.70 205.60 L 780.70 219.20 L 789.70 216.60 L 798.90 214.30 L 805.10 213.10 L 811.40 212.30 L 817.60 212.00 L 826.90 212.50 L 836.20 214.70 L 843.20 217.40 L 849.50 221.60 L 852.30 224.10 L 857.10 229.90 L 859.00 233.20 L 860.40 236.60 L 861.50 240.20 L 862.10 243.90 L 862.10 247.80 L 862.10 282.60 L 861.80 300.00 L 861.00 317.40 L 859.80 334.70 L 858.00 352.00 L 870.10 358.80 L 872.80 360.90 L 875.30 363.40 L 877.10 370.90 L 878.30 378.50 L 879.20 386.10 L 881.20 409.20 L 883.10 424.40 L 884.20 440.40 L 884.20 445.80 L 883.80 451.10 L 882.80 456.20 L 881.80 459.50 L 880.30 462.70 L 878.30 465.80 L 872.50 470.00 L 864.50 473.90 L 859.50 475.70 L 838.80 481.70 L 836.90 494.00 L 834.50 506.20 L 831.80 518.40 L 828.60 530.50 L 824.90 542.50 L 820.80 554.20 L 816.20 565.80 L 811.00 577.10 L 805.30 588.20 L 795.70 604.20 L 790.40 611.90 L 784.70 619.40 L 779.30 625.90 L 773.50 632.00 L 755.10 649.40 L 749.20 655.40 L 750.10 664.00 L 751.50 672.40 L 759.20 706.10 L 760.80 717.50 L 761.00 723.30 L 780.40 724.10 L 790.20 725.00 L 799.80 726.40 L 809.40 728.30 L 818.70 730.80 L 825.60 733.10 L 832.30 735.90 L 838.90 739.10 L 845.30 742.70 L 850.10 745.90 L 854.70 749.50 L 859.00 753.30 L 863.10 757.50 L 866.90 762.00 L 870.30 766.70 L 873.30 771.70 L 875.80 776.80 L 877.80 782.20 L 879.30 787.80 L 880.20 793.50 L 880.60 804.30 L 880.30 809.00 L 878.70 818.40 L 876.80 824.50 L 874.40 830.30 L 871.40 835.90 L 868.00 841.30 L 864.10 846.40 L 859.80 851.10 L 855.10 855.40 L 850.00 859.40 L 844.70 862.80 L 836.50 867.40 L 828.20 871.40 L 819.60 874.90 L 810.80 877.90 L 801.90 880.40 L 792.90 882.50 L 783.70 884.30 L 774.50 885.60 L 762.10 886.70 L 749.70 887.40 L 737.40 887.40 L 733.30 892.60 L 728.90 897.40 L 724.30 901.90 L 719.30 906.00 L 714.10 909.90 L 708.70 913.30 L 703.00 916.40 L 697.20 919.20 L 691.10 921.50 L 685.00 923.40 L 678.70 925.00 L 664.90 927.20 L 649.70 928.40 L 642.00 928.50 L 634.30 928.20 L 626.70 927.50 L 619.10 926.30 L 611.70 924.70 L 604.40 922.50 L 593.90 918.30 L 584.10 912.80 L 579.60 909.60 L 575.20 906.00 L 571.10 902.00 L 567.10 897.50 L 558.40 900.90 L 549.70 903.70 L 540.80 906.00 L 531.70 907.80 L 522.60 909.10 L 513.50 910.00 L 504.20 910.40 L 495.00 910.40 L 482.60 909.90 L 470.40 908.80 L 458.20 907.20 L 449.60 905.60 L 441.10 903.50 L 432.70 900.90 L 426.50 898.50 L 414.60 892.90 L 408.90 889.60 L 403.50 886.00 L 398.30 881.90 L 393.40 877.60 L 388.80 872.80 L 385.30 868.80 L 372.70 851.90 L 369.10 848.00 L 349.30 842.10 L 342.90 839.80 L 334.60 835.90 L 324.20 829.50 L 318.20 825.10 L 312.60 820.20 L 307.20 814.90 L 297.30 803.70 L 283.60 785.90 L 279.30 783.90 L 265.60 778.80 L 261.30 776.70 L 257.40 774.10 L 255.10 772.00 L 253.10 769.50 L 251.40 766.60 L 249.30 761.90 L 247.90 757.10 L 246.90 752.20 L 246.40 747.30 L 246.40 742.30 L 246.70 737.30 L 247.70 729.70 L 249.40 722.30 L 251.50 715.00 L 255.40 703.80 L 257.50 699.80 L 266.90 684.70 L 268.80 680.70 L 270.10 676.50 L 240.80 650.70 L 180.40 600.90 L 176.20 597.50 L 157.60 584.90 L 150.70 579.00 L 146.10 573.40 L 144.30 570.30 L 142.80 566.90 L 141.70 563.20 L 141.30 559.00 L 141.30 554.90 L 141.80 551.00 L 142.70 547.20 L 144.00 543.40 L 147.60 536.40 L 149.90 533.10 L 153.40 529.10 L 157.30 525.40 L 161.70 522.20 L 166.40 519.40 L 171.20 517.10 L 176.30 515.30 L 181.60 514.10 L 186.80 513.50 L 192.10 513.60 L 196.90 515.20 L 201.40 517.30 L 205.40 519.90 L 209.20 522.90 L 212.70 526.20 L 215.90 529.90 L 221.40 538.00 L 223.80 542.30 L 227.00 549.00 L 229.70 555.70 L 236.90 561.60 L 250.70 574.10 L 260.60 583.90 L 289.80 613.90 L 299.80 623.70 L 310.10 633.10 L 315.60 627.20 L 317.00 625.10 L 318.10 622.00 L 318.20 620.10 L 316.90 617.30 L 315.30 614.70 L 301.70 598.40 L 296.40 591.40 L 286.60 576.70 L 280.80 566.40 L 275.50 555.90 L 270.70 545.20 L 266.30 534.20 L 262.40 523.10 L 258.90 511.90 L 234.70 510.90 L 230.60 510.50 L 222.90 508.80 L 219.30 507.50 L 216.00 505.70 L 213.00 503.50 L 209.20 499.20 L 206.30 493.30 L 201.40 457.00 L 197.70 420.50 L 197.40 416.90 L 197.60 413.50 L 198.30 410.30 L 199.40 407.30 L 202.60 401.70 L 205.80 397.90 L 209.40 394.40 L 217.50 388.40 L 216.90 380.10 L 215.90 371.90 L 214.60 363.60 L 212.00 351.40 L 206.30 326.90 L 202.20 306.50 L 201.20 298.30 L 200.60 290.10 L 200.70 277.70 L 202.40 265.20 L 204.30 260.50 L 206.60 256.10 L 209.20 252.20 L 212.20 248.60 L 219.00 242.20 L 226.80 237.00 L 232.50 234.20 L 238.40 231.90 L 244.60 230.00 L 251.00 228.60 L 257.40 227.60 L 263.90 227.00 L 270.40 226.80 L 282.90 227.40 L 292.60 214.00 L 302.80 200.90 L 317.30 184.30 L 325.00 176.40 L 333.00 168.80 L 341.30 161.50 L 349.90 154.60 Z M 503.00 113.70 L 481.50 116.70 L 460.10 121.20 L 449.60 124.00 L 439.20 127.10 L 428.90 130.60 L 418.70 134.60 L 408.70 138.90 L 399.00 143.60 L 389.40 148.80 L 380.00 154.30 L 370.10 160.80 L 360.60 167.70 L 351.30 174.90 L 342.20 182.60 L 333.50 190.70 L 325.20 199.10 L 317.30 207.80 L 309.80 216.90 L 302.70 226.40 L 296.10 236.10 L 290.00 246.20 L 284.40 256.60 L 280.40 265.10 L 276.70 273.80 L 273.40 282.60 L 270.60 291.60 L 268.10 300.90 L 292.40 289.10 L 298.10 285.60 L 303.50 281.60 L 315.50 278.60 L 351.40 268.30 L 367.60 264.40 L 395.60 259.40 L 415.40 256.40 L 435.30 253.80 L 455.30 251.60 L 475.30 249.80 L 500.30 248.20 L 525.40 247.20 L 550.50 246.80 L 575.60 247.10 L 600.80 247.90 L 625.80 249.30 L 650.80 251.40 L 675.80 253.90 L 689.50 255.70 L 717.00 260.00 L 730.60 262.70 L 744.00 265.90 L 757.40 269.60 L 767.30 272.70 L 786.70 280.10 L 796.30 284.30 L 780.40 254.40 L 771.80 239.60 L 762.80 225.10 L 756.40 215.70 L 749.70 206.60 L 742.80 197.70 L 735.40 189.10 L 727.70 181.00 L 719.50 173.20 L 713.20 167.60 L 699.60 157.40 L 684.00 147.20 L 675.50 142.20 L 666.80 137.60 L 657.90 133.40 L 648.90 129.70 L 637.30 125.50 L 625.60 121.90 L 613.60 118.90 L 601.50 116.40 L 589.20 114.50 L 577.00 113.00 L 564.60 112.00 L 552.20 111.50 L 539.80 111.50 L 527.40 111.80 L 515.20 112.60 L 503.00 113.70 Z M 786.70 232.00 L 793.60 244.70 L 806.50 270.60 L 812.30 283.80 L 817.70 297.20 L 822.60 310.80 L 825.80 321.10 L 831.30 342.10 L 833.40 352.80 L 843.50 352.50 L 845.60 333.50 L 847.90 280.90 L 849.00 266.60 L 848.80 256.50 L 848.40 251.30 L 847.50 246.20 L 845.40 239.80 L 843.90 236.80 L 841.90 234.20 L 839.50 231.90 L 836.60 229.80 L 832.60 227.60 L 828.60 226.10 L 824.50 225.10 L 820.30 224.70 L 816.00 224.60 L 811.70 225.00 L 805.30 226.20 L 799.00 227.80 L 786.70 232.00 Z M 217.30 264.60 L 214.40 273.70 L 213.40 278.40 L 212.90 283.00 L 213.30 289.30 L 222.90 331.20 L 228.10 350.40 L 228.30 355.70 L 229.00 361.00 L 232.90 382.10 L 242.80 382.20 L 242.60 373.10 L 243.40 355.20 L 244.30 346.30 L 246.00 334.40 L 248.20 322.70 L 250.90 311.00 L 257.40 287.90 L 267.00 259.40 L 273.20 242.50 L 267.90 242.20 L 257.50 242.60 L 252.30 243.40 L 247.10 244.60 L 242.20 246.20 L 237.40 248.20 L 232.90 250.60 L 228.50 253.50 L 224.50 256.70 L 220.80 260.40 L 217.30 264.60 Z M 367.30 276.90 L 352.60 280.40 L 337.90 284.40 L 318.60 290.80 L 309.20 294.40 L 299.90 298.40 L 290.80 302.90 L 281.90 307.70 L 277.40 310.60 L 269.90 316.00 L 264.90 321.20 L 262.90 324.10 L 261.20 327.30 L 260.00 330.80 L 258.00 340.00 L 256.50 349.20 L 255.50 358.60 L 255.00 368.00 L 254.70 386.80 L 256.70 418.00 L 258.10 433.80 L 260.00 449.50 L 262.50 465.00 L 265.50 480.50 L 268.10 492.00 L 271.20 503.30 L 274.70 514.50 L 278.70 525.60 L 283.10 536.40 L 288.10 547.10 L 293.70 557.50 L 303.10 573.20 L 306.70 578.40 L 316.70 590.70 L 329.10 605.10 L 334.90 612.60 L 334.90 615.70 L 334.00 621.70 L 328.10 639.20 L 333.70 644.30 L 339.40 649.00 L 345.40 653.30 L 354.80 659.30 L 364.50 664.80 L 384.50 674.70 L 394.30 678.40 L 404.20 681.70 L 424.20 687.10 L 444.70 691.30 L 460.10 693.80 L 475.60 695.70 L 494.80 696.80 L 514.10 697.40 L 533.40 697.50 L 552.60 697.10 L 571.90 696.10 L 591.10 694.40 L 605.40 692.80 L 619.70 690.70 L 648.20 685.50 L 658.70 682.80 L 669.10 679.60 L 679.50 676.00 L 689.70 671.90 L 699.80 667.40 L 709.60 662.40 L 719.10 657.00 L 728.40 651.10 L 737.30 644.70 L 745.90 638.00 L 754.00 630.70 L 761.80 623.10 L 767.70 616.60 L 773.20 609.90 L 778.40 602.80 L 783.20 595.50 L 787.80 587.90 L 794.30 575.40 L 800.30 562.80 L 805.70 549.90 L 810.60 536.70 L 815.00 523.40 L 818.70 509.90 L 821.90 496.20 L 824.60 482.40 L 826.60 468.60 L 828.00 454.60 L 828.80 440.70 L 828.90 426.70 L 828.60 415.50 L 827.90 404.30 L 826.70 393.20 L 825.10 382.10 L 823.10 371.00 L 821.90 361.60 L 818.60 343.00 L 816.30 333.80 L 813.70 324.80 L 810.60 315.80 L 809.40 312.70 L 807.80 309.90 L 803.70 305.20 L 798.50 301.40 L 794.20 299.00 L 781.00 292.90 L 767.40 287.80 L 753.70 283.10 L 739.70 279.10 L 725.60 275.50 L 711.40 272.50 L 697.10 270.00 L 682.70 268.10 L 668.20 266.70 L 652.10 264.20 L 619.50 261.50 L 587.80 260.50 L 556.20 260.00 L 535.00 260.10 L 492.80 261.30 L 471.70 262.50 L 450.70 264.30 L 429.80 266.50 L 414.10 268.60 L 382.90 273.70 L 367.30 276.90 Z M 833.40 368.70 L 836.50 387.40 L 837.90 405.90 L 839.10 436.90 L 838.80 461.70 L 855.50 460.70 L 855.20 457.40 L 868.10 457.70 L 867.70 445.80 L 864.70 398.40 L 864.10 378.00 L 863.30 373.40 L 861.50 370.10 L 854.50 369.20 L 847.50 368.80 L 833.40 368.70 Z M 222.20 403.60 L 213.40 410.20 L 217.50 420.90 L 218.90 426.30 L 220.50 434.60 L 222.20 451.50 L 223.50 477.10 L 224.20 485.60 L 225.30 494.00 L 240.30 494.70 L 255.50 496.20 L 252.70 464.40 L 245.60 401.00 L 222.20 403.60 Z M 168.60 532.50 L 159.00 541.70 L 157.20 552.90 L 157.00 559.20 L 158.10 563.90 L 159.10 566.10 L 160.50 568.10 L 162.40 570.10 L 165.20 572.20 L 168.10 573.50 L 171.00 574.30 L 174.10 574.60 L 177.30 574.50 L 180.50 573.90 L 185.20 572.50 L 189.80 570.50 L 198.00 565.60 L 203.20 561.40 L 208.10 556.60 L 210.10 553.90 L 211.50 551.00 L 212.00 549.00 L 212.10 544.40 L 211.00 540.80 L 209.40 537.50 L 207.30 534.20 L 204.90 531.30 L 202.10 528.80 L 199.00 526.70 L 195.60 525.10 L 192.00 524.10 L 188.20 523.70 L 185.70 523.80 L 181.10 525.00 L 177.80 526.60 L 168.60 532.50 Z M 218.80 559.70 L 202.20 574.70 L 210.90 581.00 L 227.70 594.20 L 239.90 604.50 L 276.00 636.30 L 288.20 646.60 L 300.70 656.60 L 309.90 646.10 L 298.10 635.70 L 286.70 624.90 L 242.40 580.40 L 226.90 566.40 L 218.80 559.70 Z M 185.00 583.70 L 209.80 605.30 L 285.30 668.90 L 293.60 664.00 L 278.70 649.50 L 263.50 635.40 L 248.00 621.60 L 232.30 608.10 L 209.30 589.60 L 201.80 584.90 L 199.20 583.70 L 193.80 582.40 L 191.00 582.30 L 188.10 582.70 L 185.00 583.70 Z M 321.10 653.00 L 312.20 661.50 L 303.00 669.60 L 283.90 685.10 L 279.60 689.20 L 275.90 693.60 L 272.60 698.30 L 269.80 703.40 L 267.40 708.60 L 265.30 714.10 L 262.80 722.50 L 260.90 730.90 L 279.20 722.40 L 263.60 741.20 L 260.40 739.80 L 260.70 744.40 L 261.60 749.10 L 262.90 753.60 L 264.80 757.90 L 266.40 760.50 L 270.40 764.90 L 272.90 766.70 L 275.70 768.00 L 279.00 769.00 L 286.90 770.70 L 294.80 771.70 L 302.70 772.10 L 310.50 772.00 L 318.40 771.40 L 326.20 770.40 L 337.80 768.20 L 349.50 765.30 L 395.30 752.00 L 390.00 756.20 L 384.40 760.00 L 378.60 763.50 L 360.80 773.10 L 363.10 775.90 L 364.50 785.20 L 366.40 794.50 L 368.90 803.90 L 371.90 813.20 L 375.40 822.20 L 379.50 831.00 L 382.90 837.40 L 390.80 849.50 L 395.10 855.10 L 399.80 860.50 L 404.90 865.50 L 410.20 870.10 L 415.90 874.40 L 421.80 878.30 L 428.10 881.60 L 434.80 884.50 L 441.90 887.00 L 461.40 891.20 L 471.30 892.90 L 481.30 894.20 L 491.30 895.00 L 501.40 895.40 L 511.40 895.40 L 521.40 894.70 L 531.30 893.40 L 538.70 892.00 L 545.90 890.20 L 553.10 888.00 L 560.30 885.40 L 558.40 876.20 L 556.10 867.20 L 553.00 864.90 L 542.70 859.60 L 541.60 854.10 L 565.70 853.50 L 570.40 871.20 L 574.00 880.70 L 577.90 887.70 L 580.30 890.90 L 583.10 893.90 L 590.80 900.10 L 595.50 903.20 L 600.40 905.80 L 605.50 908.10 L 612.50 910.50 L 619.60 912.40 L 627.00 913.70 L 634.50 914.40 L 642.00 914.70 L 649.60 914.50 L 657.10 913.90 L 671.80 911.80 L 685.20 907.90 L 691.90 905.50 L 698.30 902.60 L 702.40 900.30 L 706.20 897.70 L 709.60 894.80 L 712.70 891.40 L 715.40 887.60 L 724.80 871.10 L 730.50 858.30 L 733.60 849.40 L 736.20 840.40 L 738.40 831.30 L 741.10 817.40 L 743.10 803.50 L 736.30 811.00 L 724.20 823.10 L 713.70 831.70 L 708.10 835.60 L 702.20 839.00 L 696.00 842.00 L 690.10 844.60 L 684.00 846.90 L 677.60 848.80 L 671.10 850.20 L 664.50 851.10 L 658.00 851.40 L 653.10 851.20 L 648.30 850.60 L 643.60 849.70 L 639.00 848.30 L 634.50 846.40 L 630.30 844.10 L 626.20 841.30 L 622.30 837.90 L 621.60 833.90 L 618.50 821.80 L 617.70 817.80 L 617.40 813.70 L 617.90 808.40 L 618.60 805.60 L 621.50 799.70 L 624.80 794.10 L 628.60 788.80 L 634.70 781.20 L 641.40 774.00 L 675.40 740.10 L 685.30 729.90 L 694.80 719.40 L 700.80 712.10 L 706.40 704.50 L 711.60 696.50 L 714.40 696.20 L 719.70 683.80 L 724.60 671.30 L 689.90 686.50 L 670.30 694.10 L 662.30 696.60 L 654.10 698.80 L 640.40 701.70 L 626.60 704.20 L 598.90 707.80 L 571.00 710.10 L 550.00 711.10 L 529.00 711.60 L 486.90 711.70 L 456.70 707.20 L 441.60 704.70 L 426.60 701.70 L 406.90 696.90 L 397.10 694.00 L 387.50 690.80 L 378.00 687.10 L 368.70 682.90 L 360.30 678.60 L 344.30 668.90 L 321.10 653.00 Z M 715.30 719.10 L 692.40 741.20 L 677.90 756.70 L 664.30 772.90 L 658.00 781.40 L 652.00 790.20 L 648.80 792.60 L 645.50 795.80 L 642.50 799.40 L 639.90 803.40 L 637.30 809.10 L 636.10 814.90 L 636.20 817.60 L 636.70 820.30 L 637.70 822.70 L 639.30 825.10 L 641.70 827.20 L 650.30 831.20 L 659.40 833.90 L 664.00 834.70 L 668.70 835.00 L 673.50 834.80 L 678.10 834.20 L 688.70 831.10 L 694.30 828.80 L 699.50 826.00 L 704.60 822.80 L 709.30 819.10 L 713.70 815.10 L 717.90 810.80 L 721.70 806.10 L 725.30 801.20 L 731.30 790.80 L 733.90 785.30 L 737.90 773.80 L 740.40 762.10 L 742.50 755.60 L 744.10 749.10 L 745.00 742.50 L 745.40 735.80 L 745.40 729.00 L 745.00 722.20 L 743.90 712.10 L 739.00 681.90 L 729.60 693.40 L 725.40 699.50 L 721.50 705.70 L 718.10 712.30 L 715.30 719.10 Z M 760.10 799.00 L 758.00 815.70 L 753.70 836.40 L 750.60 848.70 L 743.70 873.10 L 762.80 872.40 L 772.50 871.70 L 782.20 870.50 L 791.70 868.80 L 801.20 866.70 L 808.20 864.70 L 815.00 862.40 L 821.60 859.60 L 828.00 856.60 L 834.30 853.10 L 840.20 849.10 L 845.90 844.60 L 851.30 839.70 L 854.40 836.50 L 857.10 833.20 L 859.50 829.60 L 861.50 825.70 L 863.20 821.70 L 865.40 813.40 L 866.00 809.10 L 866.20 804.70 L 865.40 796.20 L 864.50 791.90 L 863.10 787.90 L 861.30 783.90 L 859.20 780.20 L 853.10 772.20 L 849.40 768.20 L 845.40 764.50 L 841.10 761.10 L 835.10 757.10 L 828.80 753.40 L 822.20 750.20 L 812.00 746.00 L 801.70 742.40 L 799.40 743.80 L 790.60 741.70 L 781.60 740.10 L 763.60 737.80 L 762.30 747.90 L 761.60 758.10 L 760.80 788.80 L 760.10 799.00 Z M 302.10 785.10 L 305.70 790.60 L 313.90 800.80 L 318.40 805.50 L 323.30 810.00 L 328.30 814.10 L 333.60 817.80 L 339.20 821.30 L 344.90 824.30 L 350.90 826.90 L 357.10 829.10 L 363.50 830.80 L 355.70 805.00 L 352.50 791.80 L 349.80 778.60 L 338.00 780.90 L 326.10 782.60 L 302.10 785.10 Z" fill="#281b2c" fill-rule="nonzero" node-id="76" stroke="none" target-height="834.2" target-width="742.9" target-x="141.3" target-y="94.3"></path><path d="M 503.00 113.70 L 515.20 112.60 L 527.40 111.80 L 539.80 111.50 L 552.20 111.50 L 564.60 112.00 L 577.00 113.00 L 589.20 114.50 L 601.50 116.40 L 613.60 118.90 L 625.60 121.90 L 637.30 125.50 L 648.90 129.70 L 657.90 133.40 L 666.80 137.60 L 675.50 142.20 L 684.00 147.20 L 692.30 152.70 L 697.10 168.50 L 698.90 176.70 L 700.40 184.90 L 701.40 193.20 L 701.90 201.60 L 701.90 209.90 L 701.30 218.20 L 700.10 226.30 L 698.80 232.40 L 697.10 238.30 L 695.00 244.20 L 692.50 250.00 L 684.20 252.40 L 675.80 253.90 L 650.80 251.40 L 625.80 249.30 L 600.80 247.90 L 575.60 247.10 L 550.50 246.80 L 525.40 247.20 L 500.30 248.20 L 475.30 249.80 L 455.30 251.60 L 435.30 253.80 L 415.40 256.40 L 395.60 259.40 L 367.60 264.40 L 351.40 268.30 L 315.50 278.60 L 303.50 281.60 L 308.80 271.00 L 314.50 260.60 L 320.80 250.60 L 327.60 241.00 L 334.70 231.60 L 342.30 222.60 L 350.20 213.80 L 358.50 205.40 L 376.10 189.40 L 394.60 174.60 L 407.50 165.30 L 420.60 156.60 L 441.90 143.80 L 449.90 139.60 L 458.10 135.80 L 475.00 129.10 L 496.70 122.50 L 509.90 119.20 L 503.00 113.70 Z" fill="#ecb1b8" fill-rule="nonzero" node-id="78" stroke="none" target-height="170.1" target-width="398.40002" target-x="303.5" target-y="111.5"></path><path d="M 380.00 154.30 L 389.40 148.80 L 399.00 143.60 L 408.70 138.90 L 418.70 134.60 L 428.90 130.60 L 439.20 127.10 L 449.60 124.00 L 470.80 118.80 L 481.50 116.70 L 503.00 113.70 L 509.90 119.20 L 496.70 122.50 L 475.00 129.10 L 458.10 135.80 L 449.90 139.60 L 441.90 143.80 L 420.60 156.60 L 407.50 165.30 L 394.60 174.60 L 385.20 181.80 L 376.10 189.40 L 358.50 205.40 L 350.20 213.80 L 342.30 222.60 L 334.70 231.60 L 327.60 241.00 L 320.80 250.60 L 314.50 260.60 L 308.80 271.00 L 303.50 281.60 L 298.10 285.60 L 292.40 289.10 L 286.40 292.20 L 268.10 300.90 L 270.60 291.60 L 273.40 282.60 L 276.70 273.80 L 280.40 265.10 L 284.40 256.60 L 290.00 246.20 L 296.10 236.10 L 302.70 226.40 L 309.80 216.90 L 317.30 207.80 L 325.20 199.10 L 333.50 190.70 L 342.20 182.60 L 351.30 174.90 L 360.60 167.70 L 370.10 160.80 L 380.00 154.30 Z" fill="#faedd9" fill-rule="nonzero" node-id="80" stroke="none" target-height="187.2" target-width="241.79999" target-x="268.1" target-y="113.7"></path><path d="M 692.30 152.70 L 706.50 162.40 L 719.50 173.20 L 727.70 181.00 L 735.40 189.10 L 742.80 197.70 L 749.70 206.60 L 756.40 215.70 L 762.80 225.10 L 771.80 239.60 L 780.40 254.40 L 796.30 284.30 L 786.70 280.10 L 767.30 272.70 L 757.40 269.60 L 744.00 265.90 L 730.60 262.70 L 717.00 260.00 L 703.30 257.70 L 675.80 253.90 L 684.20 252.40 L 692.50 250.00 L 695.00 244.20 L 697.10 238.30 L 698.80 232.40 L 700.10 226.30 L 701.30 218.20 L 701.90 209.90 L 701.90 201.60 L 701.40 193.20 L 700.40 184.90 L 698.90 176.70 L 697.10 168.50 L 692.30 152.70 Z" fill="#cc889d" fill-rule="nonzero" node-id="82" stroke="none" target-height="131.59999" target-width="120.5" target-x="675.8" target-y="152.7"></path><path d="M 786.70 232.00 L 799.00 227.80 L 805.30 226.20 L 811.70 225.00 L 816.00 224.60 L 820.30 224.70 L 824.50 225.10 L 828.60 226.10 L 832.60 227.60 L 836.60 229.80 L 839.50 231.90 L 841.90 234.20 L 843.90 236.80 L 846.60 242.90 L 847.50 246.20 L 848.40 251.30 L 848.80 256.50 L 849.00 266.60 L 847.90 280.90 L 845.60 333.50 L 843.50 352.50 L 833.40 352.80 L 831.30 342.10 L 825.80 321.10 L 822.60 310.80 L 817.70 297.20 L 812.30 283.80 L 806.50 270.60 L 793.60 244.70 L 786.70 232.00 Z" fill="#c57f97" fill-rule="nonzero" node-id="84" stroke="none" target-height="128.19998" target-width="62.299988" target-x="786.7" target-y="224.6"></path><path d="M 217.30 264.60 L 220.80 260.40 L 224.50 256.70 L 228.50 253.50 L 232.90 250.60 L 237.40 248.20 L 242.20 246.20 L 247.10 244.60 L 252.30 243.40 L 257.50 242.60 L 267.90 242.20 L 273.20 242.50 L 267.00 259.40 L 257.40 287.90 L 250.90 311.00 L 248.20 322.70 L 246.00 334.40 L 244.30 346.30 L 243.40 355.20 L 242.60 373.10 L 242.80 382.20 L 232.90 382.10 L 229.00 361.00 L 228.30 355.70 L 228.10 350.40 L 228.80 328.60 L 228.80 317.60 L 228.20 306.60 L 227.50 299.30 L 224.90 285.00 L 222.90 278.10 L 220.40 271.30 L 217.30 264.60 Z" fill="#f6d5d3" fill-rule="nonzero" node-id="86" stroke="none" target-height="140.00002" target-width="55.90001" target-x="217.3" target-y="242.2"></path><path d="M 367.30 276.90 L 382.90 273.70 L 414.10 268.60 L 429.80 266.50 L 450.70 264.30 L 471.70 262.50 L 492.80 261.30 L 535.00 260.10 L 556.20 260.00 L 587.80 260.50 L 619.50 261.50 L 652.10 264.20 L 660.20 265.30 L 668.20 266.70 L 681.40 272.00 L 685.30 297.50 L 675.00 298.70 L 647.30 296.30 L 619.60 294.40 L 591.90 293.20 L 571.00 292.80 L 550.20 292.80 L 529.40 293.30 L 486.60 295.50 L 464.70 297.00 L 442.70 299.00 L 420.90 301.50 L 406.30 303.60 L 377.50 308.80 L 363.20 311.90 L 349.00 315.60 L 334.90 319.70 L 318.80 325.40 L 310.90 328.60 L 303.20 332.10 L 293.40 337.80 L 288.80 341.10 L 285.80 343.80 L 283.30 346.70 L 281.10 349.90 L 277.80 356.70 L 275.10 366.10 L 274.00 371.90 L 272.60 383.50 L 272.00 395.10 L 271.80 406.70 L 272.00 418.40 L 272.70 430.10 L 273.90 441.70 L 275.50 453.30 L 277.50 464.80 L 280.10 476.20 L 283.10 487.50 L 286.50 498.60 L 290.50 509.50 L 294.90 520.30 L 299.90 530.90 L 305.30 541.20 L 311.30 551.20 L 323.30 568.80 L 329.20 576.40 L 335.40 583.70 L 341.90 590.80 L 348.80 597.50 L 356.00 603.90 L 363.40 609.90 L 371.20 615.50 L 379.30 620.70 L 387.60 625.40 L 396.20 629.60 L 405.10 633.40 L 405.70 637.70 L 405.80 641.80 L 405.30 645.70 L 404.20 649.50 L 402.80 653.20 L 400.90 656.70 L 396.30 663.30 L 389.10 670.70 L 384.50 674.70 L 364.50 664.80 L 354.80 659.30 L 345.40 653.30 L 339.40 649.00 L 333.70 644.30 L 328.10 639.20 L 334.00 621.70 L 334.90 615.70 L 334.90 612.60 L 329.10 605.10 L 316.70 590.70 L 306.70 578.40 L 303.10 573.20 L 293.70 557.50 L 288.10 547.10 L 283.10 536.40 L 278.70 525.60 L 274.70 514.50 L 271.20 503.30 L 268.10 492.00 L 265.50 480.50 L 262.50 465.00 L 260.00 449.50 L 258.10 433.80 L 256.70 418.00 L 254.70 386.80 L 255.00 368.00 L 255.50 358.60 L 256.50 349.20 L 258.00 340.00 L 260.00 330.80 L 261.20 327.30 L 262.90 324.10 L 264.90 321.20 L 267.30 318.50 L 272.80 313.80 L 281.90 307.70 L 290.80 302.90 L 299.90 298.40 L 309.20 294.40 L 328.20 287.40 L 337.90 284.40 L 352.60 280.40 L 367.30 276.90 Z" fill="#a9c0c4" fill-rule="nonzero" node-id="88" stroke="none" target-height="414.7" target-width="430.59998" target-x="254.7" target-y="260"></path><path d="M 214.10 292.50 L 212.90 286.20 L 212.90 283.00 L 213.40 278.40 L 214.40 273.70 L 217.30 264.60 L 220.40 271.30 L 222.90 278.10 L 224.90 285.00 L 227.50 299.30 L 228.20 306.60 L 228.80 317.60 L 228.80 328.60 L 228.10 350.40 L 222.90 331.20 L 214.10 292.50 Z" fill="#dca1ac" fill-rule="nonzero" node-id="90" stroke="none" target-height="85.79999" target-width="15.900009" target-x="212.9" target-y="264.6"></path><path d="M 668.20 266.70 L 682.70 268.10 L 697.10 270.00 L 711.40 272.50 L 725.60 275.50 L 739.70 279.10 L 753.70 283.10 L 767.40 287.80 L 781.00 292.90 L 794.20 299.00 L 798.50 301.40 L 803.70 305.20 L 807.80 309.90 L 809.40 312.70 L 813.70 324.80 L 816.30 333.80 L 818.60 343.00 L 821.90 361.60 L 823.10 371.00 L 822.10 380.90 L 818.10 410.40 L 813.30 383.20 L 811.40 373.90 L 807.90 361.90 L 805.80 356.20 L 803.20 350.80 L 800.10 345.70 L 796.50 340.90 L 793.50 337.70 L 790.00 334.70 L 786.20 332.00 L 781.90 329.60 L 770.70 324.30 L 759.20 319.60 L 747.50 315.40 L 735.70 311.70 L 723.70 308.40 L 711.60 305.50 L 693.30 301.80 L 675.00 298.70 L 685.30 297.50 L 681.40 272.00 L 668.20 266.70 Z" fill="#97a9b1" fill-rule="nonzero" node-id="92" stroke="none" target-height="143.69998" target-width="154.89996" target-x="668.2" target-y="266.7"></path><path d="M 330.30 335.60 L 340.90 332.10 L 351.70 329.10 L 362.60 326.50 L 373.60 324.40 L 373.00 344.30 L 371.10 373.60 L 371.30 382.90 L 373.70 420.20 L 373.50 432.60 L 372.90 438.90 L 371.90 442.10 L 370.40 444.90 L 368.50 447.20 L 366.30 449.10 L 363.70 450.60 L 360.90 451.80 L 354.80 452.90 L 351.60 452.80 L 341.00 422.30 L 336.40 406.80 L 334.10 394.00 L 333.00 384.30 L 330.30 335.60 Z" fill="#bec2c8" fill-rule="nonzero" node-id="94" stroke="none" target-height="128.5" target-width="43.400024" target-x="330.3" target-y="324.4"></path><path d="M 309.50 343.60 L 330.30 335.60 L 333.00 384.30 L 335.10 400.50 L 338.10 413.00 L 341.00 422.30 L 350.60 449.90 L 341.80 441.90 L 334.20 433.00 L 329.90 426.60 L 326.00 419.80 L 322.60 412.80 L 319.60 405.50 L 317.10 398.00 L 315.00 390.30 L 311.80 374.80 L 310.80 366.90 L 309.80 355.10 L 309.50 343.60 Z" fill="#fefffc" fill-rule="nonzero" node-id="96" stroke="none" target-height="114.29999" target-width="41.100006" target-x="309.5" target-y="335.6"></path><path d="M 774.40 336.50 L 778.00 338.70 L 781.10 341.30 L 783.90 344.10 L 788.40 350.60 L 790.20 354.20 L 792.30 359.90 L 793.80 365.80 L 794.90 371.90 L 795.40 377.90 L 794.10 391.00 L 792.30 404.20 L 790.10 417.30 L 787.40 430.30 L 784.20 443.10 L 780.40 455.80 L 773.70 474.50 L 765.60 492.70 L 756.90 492.40 L 748.40 492.60 L 739.80 493.40 L 725.20 496.00 L 738.50 473.20 L 744.60 461.50 L 750.10 449.60 L 753.50 441.50 L 756.40 433.20 L 761.90 415.20 L 764.30 405.50 L 766.30 395.80 L 768.70 381.10 L 774.40 336.50 Z" fill="#5b445d" fill-rule="nonzero" node-id="98" stroke="none" target-height="159.5" target-width="70.20001" target-x="725.2" target-y="336.5"></path><path d="M 289.10 454.60 L 285.60 429.60 L 284.20 416.90 L 283.30 404.20 L 283.10 395.70 L 283.40 387.30 L 284.10 379.00 L 285.00 372.80 L 288.00 360.50 L 290.00 354.40 L 290.60 363.40 L 290.60 372.50 L 289.30 399.60 L 289.20 408.70 L 290.00 420.70 L 292.10 432.90 L 295.50 444.90 L 297.70 450.70 L 301.10 458.20 L 305.10 465.50 L 309.50 472.60 L 314.40 479.30 L 319.70 485.80 L 325.40 491.90 L 331.40 497.80 L 337.60 503.20 L 344.20 508.30 L 351.70 513.60 L 383.30 532.50 L 391.00 537.50 L 385.40 537.50 L 380.00 537.80 L 374.60 538.60 L 369.30 539.80 L 359.00 543.30 L 349.30 548.20 L 343.20 552.10 L 337.50 556.60 L 332.00 561.50 L 312.10 522.90 L 302.20 500.90 L 295.70 482.80 L 293.00 473.60 L 290.80 464.20 L 289.10 454.60 Z" fill="#5d455e" fill-rule="nonzero" node-id="100" stroke="none" target-height="207.1" target-width="107.899994" target-x="283.1" target-y="354.4"></path><path d="M 833.40 368.70 L 847.50 368.80 L 854.50 369.20 L 861.50 370.10 L 862.50 371.70 L 863.70 375.20 L 864.50 386.60 L 864.70 398.40 L 865.30 410.30 L 867.70 445.80 L 868.10 457.70 L 855.20 457.40 L 851.30 414.40 L 849.80 392.90 L 848.90 371.40 L 836.10 371.10 L 836.50 387.40 L 833.40 368.70 Z" fill="#7c4464" fill-rule="nonzero" node-id="102" stroke="none" target-height="89" target-width="34.69995" target-x="833.4" target-y="368.7"></path><path d="M 823.10 371.00 L 825.10 382.10 L 826.70 393.20 L 827.90 404.30 L 828.60 415.50 L 828.90 426.70 L 828.80 440.70 L 828.00 454.60 L 826.60 468.60 L 824.60 482.40 L 821.90 496.20 L 818.70 509.90 L 815.00 523.40 L 810.60 536.70 L 805.70 549.90 L 800.30 562.80 L 794.30 575.50 L 787.80 587.90 L 759.20 580.80 L 765.70 574.00 L 771.70 566.90 L 777.30 559.60 L 782.60 552.00 L 787.50 544.10 L 793.00 534.00 L 798.00 523.60 L 802.40 512.90 L 806.30 502.00 L 809.60 490.80 L 812.40 479.60 L 814.60 468.20 L 816.40 456.70 L 817.50 445.00 L 818.20 433.50 L 818.40 421.90 L 818.10 410.40 L 822.10 380.90 L 823.10 371.00 Z" fill="#999da6" fill-rule="nonzero" node-id="104" stroke="none" target-height="216.90002" target-width="69.70001" target-x="759.2" target-y="371"></path><path d="M 836.10 371.10 L 848.90 371.40 L 849.80 392.90 L 851.30 414.40 L 855.50 460.70 L 838.80 461.70 L 839.10 449.30 L 838.90 424.50 L 837.90 405.90 L 836.50 387.40 L 836.10 371.10 Z" fill="#c7709b" fill-rule="nonzero" node-id="106" stroke="none" target-height="90.600006" target-width="19.400024" target-x="836.1" target-y="371.1"></path><path d="M 795.40 377.90 L 800.00 389.70 L 803.00 401.60 L 804.20 409.70 L 804.90 417.80 L 805.00 426.10 L 804.00 442.50 L 802.90 450.80 L 800.80 463.20 L 798.20 475.40 L 792.30 499.40 L 779.00 495.80 L 765.60 492.70 L 769.80 483.60 L 777.20 465.20 L 780.40 455.80 L 784.20 443.10 L 787.40 430.30 L 790.10 417.30 L 792.30 404.20 L 794.10 391.00 L 795.40 377.90 Z" fill="#452942" fill-rule="nonzero" node-id="108" stroke="none" target-height="121.5" target-width="39.400024" target-x="765.6" target-y="377.9"></path><path d="M 222.20 403.60 L 245.60 401.00 L 252.70 464.40 L 255.50 496.20 L 240.30 494.70 L 236.40 463.90 L 233.20 443.40 L 231.20 433.30 L 228.70 423.30 L 225.80 413.40 L 222.20 403.60 Z" fill="#e59cb3" fill-rule="nonzero" node-id="110" stroke="none" target-height="95.20001" target-width="33.300003" target-x="222.2" target-y="401"></path><path d="M 213.40 410.20 L 222.20 403.60 L 225.80 413.40 L 228.70 423.30 L 231.20 433.30 L 235.00 453.60 L 236.40 463.90 L 240.30 494.70 L 225.30 494.00 L 224.20 485.60 L 223.50 477.10 L 222.20 451.50 L 220.50 434.60 L 218.90 426.30 L 217.50 420.90 L 213.40 410.20 Z" fill="#ab5175" fill-rule="nonzero" node-id="112" stroke="none" target-height="91.100006" target-width="26.90001" target-x="213.4" target-y="403.6"></path><path d="M 648.60 461.10 L 653.50 460.10 L 658.30 459.80 L 663.10 460.00 L 667.90 460.90 L 672.50 462.20 L 677.00 464.00 L 681.20 466.40 L 685.20 469.10 L 688.90 472.30 L 692.30 475.80 L 695.20 479.60 L 697.70 483.80 L 699.70 488.20 L 701.10 492.80 L 702.00 497.70 L 697.70 494.20 L 681.60 478.20 L 677.30 474.80 L 674.20 472.80 L 670.80 471.20 L 663.50 469.00 L 659.90 468.60 L 656.20 468.70 L 652.60 469.30 L 649.10 470.30 L 645.70 471.90 L 642.50 473.70 L 639.50 476.00 L 636.80 478.50 L 634.40 481.40 L 632.40 484.50 L 630.70 487.70 L 627.80 497.00 L 623.50 516.00 L 622.00 511.70 L 621.10 507.30 L 620.70 502.80 L 620.80 498.40 L 621.30 493.90 L 622.30 489.50 L 623.70 485.30 L 625.60 481.20 L 627.80 477.30 L 630.40 473.70 L 633.40 470.40 L 636.80 467.40 L 640.40 464.90 L 644.30 462.80 L 648.60 461.10 Z" fill="#e6d9d2" fill-rule="nonzero" node-id="114" stroke="none" target-height="56.200012" target-width="81.29999" target-x="620.7" target-y="459.8"></path><path d="M 731.30 494.80 L 739.80 493.40 L 748.40 492.60 L 756.90 492.40 L 765.60 492.70 L 779.00 495.80 L 792.30 499.40 L 791.60 505.50 L 790.30 511.50 L 788.40 517.20 L 786.20 522.80 L 780.60 533.60 L 775.80 541.40 L 770.60 548.90 L 762.30 532.50 L 752.50 540.60 L 745.40 545.30 L 741.50 547.00 L 736.90 547.60 L 732.30 547.70 L 713.90 545.70 L 723.20 519.00 L 751.40 524.90 L 734.30 513.30 L 760.20 505.60 L 760.80 496.80 L 731.30 494.80 Z" fill="#d58a9a" fill-rule="nonzero" node-id="116" stroke="none" target-height="56.50003" target-width="78.39996" target-x="713.9" target-y="492.4"></path><path d="M 725.20 496.00 L 731.30 494.80 L 760.80 496.80 L 760.20 505.60 L 734.30 513.30 L 751.40 524.90 L 723.20 519.00 L 713.90 545.70 L 732.30 547.70 L 736.90 547.60 L 741.50 547.00 L 745.40 545.30 L 749.00 543.10 L 752.50 540.60 L 762.30 532.50 L 770.60 548.90 L 763.40 557.30 L 755.90 565.30 L 748.10 572.80 L 739.80 580.00 L 731.30 586.80 L 722.40 593.20 L 713.30 599.20 L 703.80 604.80 L 694.20 610.00 L 684.30 614.80 L 674.30 619.30 L 664.00 623.30 L 643.10 630.30 L 621.80 635.70 L 600.20 639.60 L 578.60 642.00 L 589.10 638.20 L 609.70 629.70 L 619.80 625.00 L 629.70 619.90 L 639.40 614.40 L 648.90 608.50 L 658.00 602.10 L 666.90 595.30 L 677.80 586.10 L 683.00 581.30 L 687.80 576.00 L 690.70 572.30 L 693.30 568.40 L 695.60 564.20 L 696.50 560.70 L 696.90 557.30 L 696.80 553.90 L 696.20 550.60 L 694.00 544.10 L 691.60 539.50 L 688.60 535.20 L 681.90 527.30 L 689.60 522.70 L 697.00 517.70 L 725.20 496.00 Z" fill="#d7a5a9" fill-rule="nonzero" node-id="118" stroke="none" target-height="147.20001" target-width="192" target-x="578.6" target-y="494.8"></path><path d="M 168.60 532.50 L 177.80 526.60 L 183.30 524.30 L 188.20 523.70 L 192.00 524.10 L 195.60 525.10 L 199.00 526.70 L 202.10 528.80 L 204.90 531.30 L 207.30 534.20 L 209.40 537.50 L 211.00 540.80 L 212.10 544.40 L 212.00 549.00 L 211.50 551.00 L 210.10 553.90 L 208.10 556.60 L 203.20 561.40 L 198.00 565.60 L 194.10 568.10 L 189.80 570.50 L 185.20 572.50 L 180.50 573.90 L 177.30 574.50 L 174.10 574.60 L 171.00 574.30 L 168.10 573.50 L 165.20 572.20 L 162.40 570.10 L 160.50 568.10 L 159.10 566.10 L 158.10 563.90 L 157.00 559.20 L 157.20 552.90 L 159.00 541.70 L 164.40 549.10 L 168.50 553.70 L 170.90 555.20 L 172.70 555.90 L 174.70 556.20 L 176.90 556.10 L 179.70 555.30 L 184.70 552.80 L 188.10 550.20 L 197.70 541.40 L 194.00 542.10 L 190.50 542.30 L 187.10 542.00 L 183.80 541.20 L 177.40 538.60 L 172.90 535.80 L 168.60 532.50 Z" fill="#914d6b" fill-rule="nonzero" node-id="120" stroke="none" target-height="50.899963" target-width="55.100006" target-x="157" target-y="523.7"></path><path d="M 533.00 531.30 L 542.00 529.40 L 551.00 528.00 L 560.10 527.00 L 578.40 526.20 L 601.40 526.80 L 615.00 527.80 L 640.20 531.10 L 654.30 531.70 L 665.40 531.00 L 671.00 530.20 L 676.40 529.00 L 681.90 527.30 L 688.60 535.20 L 691.60 539.50 L 694.00 544.10 L 695.30 547.30 L 696.80 553.90 L 696.90 557.30 L 696.50 560.70 L 695.60 564.20 L 693.30 568.40 L 690.70 572.30 L 687.80 576.00 L 683.00 581.30 L 677.80 586.10 L 666.90 595.30 L 658.00 602.10 L 648.90 608.50 L 639.40 614.40 L 629.70 619.90 L 619.80 625.00 L 609.70 629.70 L 599.40 634.10 L 578.60 642.00 L 566.30 643.30 L 553.90 644.20 L 541.40 644.70 L 528.80 644.80 L 516.30 644.50 L 503.80 643.70 L 491.40 642.40 L 479.00 640.70 L 466.60 638.50 L 454.40 635.80 L 442.40 632.60 L 430.50 628.90 L 418.70 624.70 L 407.20 619.90 L 395.90 614.50 L 384.90 608.60 L 406.10 604.00 L 417.80 600.40 L 426.20 596.10 L 430.00 593.40 L 433.50 590.20 L 436.70 586.30 L 437.70 582.50 L 438.10 578.70 L 437.60 570.90 L 435.50 555.20 L 440.40 554.00 L 446.90 554.30 L 453.40 554.10 L 459.70 553.40 L 472.00 550.80 L 487.20 545.90 L 514.40 536.10 L 520.50 534.20 L 533.00 531.30 Z M 530.90 548.20 L 534.00 551.00 L 540.70 555.90 L 551.70 562.00 L 550.60 571.30 L 549.90 574.40 L 548.90 577.30 L 547.50 580.00 L 544.80 583.00 L 540.60 585.70 L 538.40 586.70 L 534.10 587.60 L 531.20 587.50 L 528.20 587.00 L 525.20 586.00 L 508.00 578.10 L 509.70 582.30 L 512.00 586.20 L 513.80 588.70 L 515.80 590.80 L 518.10 592.60 L 520.70 594.00 L 523.50 594.90 L 530.50 595.70 L 534.10 595.60 L 537.50 594.90 L 544.10 592.30 L 547.30 590.60 L 556.20 584.50 L 564.50 588.50 L 573.10 592.00 L 577.60 593.20 L 582.20 594.00 L 586.20 593.50 L 590.30 592.60 L 594.40 591.10 L 598.30 589.20 L 601.80 587.00 L 605.10 584.30 L 608.10 581.30 L 610.40 577.90 L 612.20 574.30 L 613.20 571.40 L 613.70 568.40 L 613.70 565.20 L 613.40 561.70 L 610.30 565.00 L 601.30 576.20 L 599.20 578.50 L 594.40 582.20 L 591.80 583.50 L 588.80 584.30 L 585.50 584.60 L 581.60 584.90 L 577.40 584.60 L 574.70 584.00 L 569.60 582.10 L 565.30 579.10 L 563.50 577.10 L 562.10 575.00 L 561.20 572.50 L 560.10 567.10 L 560.10 564.90 L 560.40 562.80 L 562.10 559.10 L 563.40 557.30 L 565.60 554.90 L 576.10 545.70 L 578.30 543.30 L 574.10 541.20 L 569.80 539.80 L 565.50 539.00 L 561.00 538.70 L 556.50 538.90 L 551.90 539.60 L 540.20 541.70 L 537.40 542.60 L 533.40 545.00 L 530.90 548.20 Z" fill="#f1dac5" fill-rule="nonzero" node-id="122" stroke="none" target-height="118.599976" target-width="312.00003" target-x="384.9" target-y="526.2"></path><path d="M 159.00 541.70 L 168.60 532.50 L 172.90 535.80 L 177.40 538.60 L 183.80 541.20 L 187.10 542.00 L 190.50 542.30 L 194.00 542.10 L 197.70 541.40 L 188.10 550.20 L 184.70 552.80 L 179.70 555.30 L 176.90 556.10 L 174.70 556.20 L 172.70 555.90 L 170.90 555.20 L 168.50 553.70 L 164.40 549.10 L 159.00 541.70 Z" fill="#e4c2ca" fill-rule="nonzero" node-id="124" stroke="none" target-height="23.700012" target-width="38.699997" target-x="159" target-y="532.5"></path><path d="M 332.00 561.50 L 337.50 556.60 L 343.20 552.10 L 349.30 548.20 L 354.10 545.60 L 364.10 541.40 L 369.30 539.80 L 374.60 538.60 L 380.00 537.80 L 385.40 537.50 L 391.00 537.50 L 399.60 539.20 L 407.90 541.40 L 416.20 544.20 L 424.30 547.20 L 440.40 554.00 L 435.50 555.20 L 437.60 570.90 L 438.10 578.70 L 437.70 582.50 L 436.70 586.30 L 433.50 590.20 L 430.00 593.40 L 426.20 596.10 L 417.80 600.40 L 406.10 604.00 L 384.90 608.60 L 377.80 605.00 L 371.00 600.80 L 364.60 596.20 L 358.60 591.10 L 352.80 585.60 L 347.20 579.80 L 339.40 570.80 L 332.00 561.50 Z" fill="#e799a7" fill-rule="nonzero" node-id="126" stroke="none" target-height="71.099976" target-width="108.399994" target-x="332" target-y="537.5"></path><path d="M 530.90 548.20 L 533.40 545.00 L 537.40 542.60 L 540.20 541.70 L 556.50 538.90 L 561.00 538.70 L 565.50 539.00 L 569.80 539.80 L 574.10 541.20 L 578.30 543.30 L 576.10 545.70 L 565.60 554.90 L 563.40 557.30 L 561.10 560.90 L 560.10 564.90 L 560.10 567.10 L 561.20 572.50 L 562.10 575.00 L 563.50 577.10 L 567.30 580.70 L 569.60 582.10 L 574.70 584.00 L 577.40 584.60 L 581.60 584.90 L 588.80 584.30 L 591.80 583.50 L 594.40 582.20 L 599.20 578.50 L 601.30 576.20 L 610.30 565.00 L 613.40 561.70 L 613.70 565.20 L 613.70 568.40 L 613.20 571.40 L 612.20 574.30 L 610.40 577.90 L 608.10 581.30 L 605.10 584.30 L 601.80 587.00 L 598.30 589.20 L 594.40 591.10 L 590.30 592.60 L 586.20 593.50 L 582.20 594.00 L 577.60 593.20 L 568.80 590.40 L 556.20 584.50 L 547.30 590.60 L 544.10 592.30 L 537.50 594.90 L 534.10 595.60 L 530.50 595.70 L 523.50 594.90 L 520.70 594.00 L 518.10 592.60 L 513.80 588.70 L 512.00 586.20 L 509.70 582.30 L 508.00 578.10 L 525.20 586.00 L 528.20 587.00 L 531.20 587.50 L 536.30 587.30 L 540.60 585.70 L 544.80 583.00 L 546.30 581.60 L 548.90 577.30 L 550.60 571.30 L 551.70 562.00 L 540.70 555.90 L 534.00 551.00 L 530.90 548.20 Z" fill="#321f39" fill-rule="nonzero" node-id="128" stroke="none" target-height="57" target-width="105.70001" target-x="508" target-y="538.7"></path><path d="M 218.80 559.70 L 226.90 566.40 L 242.40 580.40 L 286.70 624.90 L 298.10 635.70 L 309.90 646.10 L 300.70 656.60 L 288.20 646.60 L 276.00 636.30 L 239.90 604.50 L 227.70 594.20 L 210.90 581.00 L 202.20 574.70 L 218.80 559.70 Z" fill="#c27b94" fill-rule="nonzero" node-id="130" stroke="none" target-height="96.89996" target-width="107.7" target-x="202.2" target-y="559.7"></path><path d="M 185.00 583.70 L 188.10 582.70 L 191.00 582.30 L 193.80 582.40 L 199.20 583.70 L 205.60 587.00 L 216.30 594.90 L 232.30 608.10 L 248.00 621.60 L 263.50 635.40 L 278.70 649.50 L 293.60 664.00 L 285.30 668.90 L 209.80 605.30 L 185.00 583.70 Z" fill="#b26c90" fill-rule="nonzero" node-id="132" stroke="none" target-height="86.60004" target-width="108.600006" target-x="185" target-y="582.3"></path><path d="M 654.10 698.80 L 662.30 696.60 L 670.30 694.10 L 678.20 691.30 L 689.90 686.50 L 724.60 671.30 L 719.70 683.80 L 714.40 696.20 L 704.80 697.30 L 691.40 699.70 L 681.40 702.00 L 651.70 710.00 L 641.80 712.20 L 631.70 713.90 L 625.00 714.70 L 618.20 715.00 L 611.20 714.90 L 605.90 713.30 L 600.50 712.20 L 595.10 711.60 L 589.50 711.50 L 584.00 711.70 L 564.20 713.50 L 549.80 714.20 L 521.00 714.60 L 503.90 713.80 L 486.90 711.70 L 529.00 711.60 L 550.00 711.10 L 585.00 709.10 L 612.80 706.20 L 626.60 704.20 L 640.40 701.70 L 654.10 698.80 Z" fill="#bd949a" fill-rule="nonzero" node-id="134" stroke="none" target-height="43.700012" target-width="237.69998" target-x="486.9" target-y="671.3"></path><path d="M 715.30 719.10 L 718.10 712.30 L 721.50 705.70 L 725.40 699.50 L 729.60 693.40 L 739.00 681.90 L 743.90 712.10 L 745.00 722.20 L 745.40 729.00 L 745.00 742.50 L 744.10 749.10 L 742.50 755.60 L 740.40 762.10 L 724.40 779.90 L 719.50 786.10 L 702.70 786.80 L 691.50 786.30 L 686.00 785.70 L 680.50 784.60 L 675.20 783.00 L 669.90 780.90 L 683.60 767.30 L 690.30 760.20 L 700.70 747.70 L 707.70 737.00 L 710.70 731.30 L 713.20 725.40 L 715.30 719.10 Z" fill="#94859d" fill-rule="nonzero" node-id="136" stroke="none" target-height="104.89996" target-width="75.5" target-x="669.9" target-y="681.9"></path><path d="M 578.50 712.20 L 584.00 711.70 L 595.10 711.60 L 600.50 712.20 L 605.90 713.30 L 611.20 714.90 L 613.70 743.20 L 614.20 752.70 L 614.10 762.20 L 613.50 771.50 L 612.70 777.80 L 611.50 783.90 L 609.90 790.00 L 608.00 793.60 L 605.70 796.70 L 603.20 799.30 L 600.30 801.60 L 597.10 803.50 L 593.70 805.20 L 588.30 807.20 L 582.60 808.70 L 576.70 809.80 L 559.70 812.00 L 542.70 812.10 L 534.10 811.80 L 525.40 811.10 L 519.70 810.30 L 514.20 809.00 L 508.90 807.40 L 503.70 805.30 L 498.80 802.60 L 494.10 799.20 L 494.20 792.90 L 495.70 780.40 L 497.50 771.20 L 499.70 762.00 L 506.30 738.30 L 508.40 733.10 L 511.00 728.10 L 514.00 723.40 L 517.30 718.90 L 521.00 714.60 L 549.80 714.20 L 564.20 713.50 L 578.50 712.20 Z M 527.40 722.90 L 525.30 723.40 L 523.50 724.30 L 521.90 725.60 L 519.90 727.90 L 518.20 730.70 L 515.40 736.30 L 509.30 754.30 L 506.80 763.50 L 504.70 772.80 L 503.20 782.20 L 502.30 791.70 L 503.70 793.70 L 505.40 795.40 L 507.30 796.60 L 510.60 798.00 L 514.20 799.00 L 521.30 800.30 L 532.30 801.40 L 543.40 801.90 L 558.20 801.60 L 573.00 800.00 L 580.20 798.70 L 590.90 795.90 L 596.50 793.10 L 600.00 789.80 L 601.30 787.80 L 602.10 785.60 L 602.50 783.00 L 603.30 773.30 L 603.90 753.70 L 602.90 737.50 L 602.10 731.10 L 600.40 723.10 L 599.70 721.90 L 598.80 721.10 L 597.00 720.40 L 594.80 720.10 L 576.30 721.20 L 537.10 722.10 L 527.40 722.90 Z" fill="#1e172e" fill-rule="nonzero" node-id="138" stroke="none" target-height="100.5" target-width="120.100006" target-x="494.1" target-y="711.6"></path><path d="M 293.10 749.50 L 301.70 749.40 L 318.60 748.20 L 338.00 745.00 L 349.00 742.60 L 376.30 735.20 L 425.00 720.30 L 418.20 728.80 L 411.10 737.10 L 406.10 742.30 L 400.80 747.30 L 395.30 752.00 L 361.00 762.10 L 349.50 765.30 L 337.80 768.20 L 326.20 770.40 L 318.40 771.40 L 310.50 772.00 L 302.70 772.10 L 294.80 771.70 L 286.90 770.70 L 279.00 769.00 L 275.70 768.00 L 272.90 766.70 L 270.40 764.90 L 266.40 760.50 L 264.80 757.90 L 262.90 753.60 L 261.60 749.10 L 260.70 744.40 L 260.40 739.80 L 278.00 746.70 L 282.90 748.10 L 288.00 749.10 L 293.10 749.50 Z" fill="#d3a9a7" fill-rule="nonzero" node-id="140" stroke="none" target-height="51.799988" target-width="164.6" target-x="260.4" target-y="720.3"></path><path d="M 652.00 790.20 L 658.00 781.40 L 664.30 772.90 L 677.90 756.70 L 692.40 741.20 L 715.30 719.10 L 713.20 725.40 L 710.70 731.30 L 707.70 737.00 L 700.70 747.70 L 690.30 760.20 L 683.60 767.30 L 669.90 780.90 L 652.00 790.20 Z" fill="#f5dbbf" fill-rule="nonzero" node-id="142" stroke="none" target-height="71.10004" target-width="63.299988" target-x="652" target-y="719.1"></path><path d="M 528.50 733.70 L 588.50 732.80 L 590.70 742.20 L 558.30 741.70 L 525.90 742.30 L 528.50 733.70 Z" fill="#de6f77" fill-rule="nonzero" node-id="144" stroke="none" target-height="9.5" target-width="64.79999" target-x="525.9" target-y="732.8"></path><path d="M 760.10 799.00 L 760.80 788.80 L 761.60 758.10 L 762.30 747.90 L 763.60 737.80 L 766.90 759.60 L 783.50 752.40 L 791.50 748.30 L 801.70 742.40 L 812.00 746.00 L 822.20 750.20 L 828.80 753.40 L 835.10 757.10 L 841.10 761.10 L 845.40 764.50 L 849.40 768.20 L 853.10 772.20 L 859.20 780.20 L 861.30 783.90 L 863.10 787.90 L 864.50 791.90 L 865.40 796.20 L 866.20 804.70 L 866.00 809.10 L 865.40 813.40 L 863.20 821.70 L 859.50 829.60 L 857.10 833.20 L 854.40 836.50 L 851.30 839.70 L 845.90 844.60 L 840.20 849.10 L 834.30 853.10 L 828.00 856.60 L 821.60 859.60 L 815.00 862.40 L 808.20 864.70 L 801.20 866.70 L 791.70 868.80 L 782.20 870.50 L 772.50 871.70 L 762.80 872.40 L 743.70 873.10 L 750.60 848.70 L 753.70 836.40 L 758.00 815.70 L 760.10 799.00 Z" fill="#d4a7a6" fill-rule="nonzero" node-id="146" stroke="none" target-height="135.29999" target-width="122.5" target-x="743.7" target-y="737.8"></path><path d="M 763.60 737.80 L 781.60 740.10 L 790.60 741.70 L 799.40 743.80 L 791.50 748.30 L 783.50 752.40 L 766.90 759.60 L 763.60 737.80 Z" fill="#f3e3d6" fill-rule="nonzero" node-id="148" stroke="none" target-height="21.799988" target-width="35.80005" target-x="763.6" target-y="737.8"></path><path d="M 525.90 742.30 L 558.30 741.70 L 590.70 742.20 L 591.30 752.60 L 591.30 762.90 L 590.10 783.60 L 584.10 779.80 L 577.80 776.50 L 573.50 774.60 L 569.00 773.00 L 564.40 771.90 L 563.10 770.10 L 562.30 768.40 L 562.20 765.30 L 563.40 762.30 L 564.90 760.10 L 573.10 751.60 L 574.60 749.60 L 553.60 750.40 L 521.80 752.60 L 525.90 742.30 Z" fill="#ad4b5f" fill-rule="nonzero" node-id="150" stroke="none" target-height="41.899963" target-width="69.5" target-x="521.8" target-y="741.7"></path><path d="M 532.60 751.80 L 553.60 750.40 L 574.60 749.60 L 573.10 751.60 L 564.90 760.10 L 562.60 763.80 L 562.00 766.90 L 562.30 768.40 L 563.10 770.10 L 575.80 787.80 L 550.50 790.20 L 552.90 777.60 L 553.20 774.50 L 553.10 771.30 L 547.00 764.00 L 543.60 760.70 L 532.60 751.80 Z" fill="#e3c7b9" fill-rule="nonzero" node-id="152" stroke="none" target-height="40.600037" target-width="43.200012" target-x="532.6" target-y="749.6"></path><path d="M 518.30 758.20 L 527.20 759.90 L 531.60 761.10 L 535.80 762.80 L 538.30 764.30 L 540.50 766.20 L 542.50 768.70 L 543.30 774.20 L 543.50 779.80 L 543.40 791.10 L 534.10 790.90 L 515.70 789.50 L 516.10 779.00 L 516.90 768.60 L 518.30 758.20 Z" fill="#c8d4d9" fill-rule="nonzero" node-id="154" stroke="none" target-height="32.899963" target-width="27.799988" target-x="515.7" target-y="758.2"></path><path d="M 719.50 786.10 L 724.40 779.90 L 740.40 762.10 L 737.90 773.80 L 736.10 779.60 L 731.30 790.80 L 728.50 796.10 L 721.70 806.10 L 717.90 810.80 L 713.70 815.10 L 709.30 819.10 L 704.60 822.80 L 699.50 826.00 L 694.30 828.80 L 688.70 831.10 L 678.10 834.20 L 673.50 834.80 L 668.70 835.00 L 664.00 834.70 L 659.40 833.90 L 654.80 832.80 L 645.90 829.40 L 641.70 827.20 L 651.40 825.70 L 667.60 822.50 L 680.20 818.70 L 686.30 816.30 L 692.30 813.50 L 698.00 810.20 L 701.00 808.10 L 706.30 803.30 L 709.80 799.20 L 719.50 786.10 Z" fill="#674d6d" fill-rule="nonzero" node-id="156" stroke="none" target-height="72.900024" target-width="98.70001" target-x="641.7" target-y="762.1"></path><path d="M 363.10 775.90 L 368.50 782.70 L 374.30 789.30 L 380.40 795.50 L 386.80 801.40 L 393.60 806.80 L 400.90 811.70 L 408.20 816.10 L 415.80 819.90 L 423.50 823.30 L 431.40 826.20 L 439.50 828.70 L 447.70 830.80 L 460.10 833.40 L 472.70 835.50 L 497.90 838.70 L 539.50 842.60 L 560.30 844.10 L 581.10 845.10 L 595.00 845.30 L 608.90 845.10 L 622.80 844.40 L 622.30 837.90 L 626.20 841.30 L 630.30 844.10 L 634.50 846.40 L 639.00 848.30 L 643.60 849.70 L 648.30 850.60 L 653.10 851.20 L 658.00 851.40 L 664.50 851.10 L 671.10 850.20 L 677.60 848.80 L 684.00 846.90 L 690.10 844.60 L 702.20 839.00 L 708.10 835.60 L 713.70 831.70 L 724.20 823.10 L 736.30 811.00 L 743.10 803.50 L 741.10 817.40 L 738.40 831.30 L 736.20 840.40 L 733.60 849.40 L 730.50 858.30 L 724.80 871.10 L 721.40 877.30 L 717.60 883.30 L 715.40 887.60 L 712.70 891.40 L 709.60 894.80 L 706.20 897.70 L 702.40 900.30 L 698.30 902.60 L 691.90 905.50 L 685.20 907.90 L 671.80 911.80 L 657.10 913.90 L 649.60 914.50 L 642.00 914.70 L 634.50 914.40 L 627.00 913.70 L 619.60 912.40 L 612.50 910.50 L 605.50 908.10 L 600.40 905.80 L 595.50 903.20 L 590.80 900.10 L 583.10 893.90 L 580.30 890.90 L 577.90 887.70 L 574.00 880.70 L 570.40 871.20 L 565.70 853.50 L 541.60 854.10 L 542.70 859.60 L 553.00 864.90 L 556.10 867.20 L 558.40 876.20 L 560.30 885.40 L 553.10 888.00 L 545.90 890.20 L 538.70 892.00 L 531.30 893.40 L 521.40 894.70 L 511.40 895.40 L 501.40 895.40 L 491.30 895.00 L 481.30 894.20 L 461.40 891.20 L 441.90 887.00 L 434.80 884.50 L 428.10 881.60 L 421.80 878.30 L 415.90 874.40 L 410.20 870.10 L 404.90 865.50 L 399.80 860.50 L 395.10 855.10 L 386.70 843.60 L 379.50 831.00 L 375.40 822.20 L 371.90 813.20 L 368.90 803.90 L 366.40 794.50 L 364.50 785.20 L 363.10 775.90 Z" fill="#d4a8a4" fill-rule="nonzero" node-id="158" stroke="none" target-height="138.79999" target-width="379.99997" target-x="363.1" target-y="775.9"></path><path d="M 302.10 785.10 L 326.10 782.60 L 338.00 780.90 L 349.80 778.60 L 352.50 791.80 L 355.70 805.00 L 363.50 830.80 L 357.10 829.10 L 350.90 826.90 L 344.90 824.30 L 339.20 821.30 L 333.60 817.80 L 328.30 814.10 L 323.30 810.00 L 318.40 805.50 L 313.90 800.80 L 305.70 790.60 L 302.10 785.10 Z" fill="#d4aaa5" fill-rule="nonzero" node-id="160" stroke="none" target-height="52.200012" target-width="61.399994" target-x="302.1" target-y="778.6"></path><path d="M 652.00 790.20 L 669.90 780.90 L 675.20 783.00 L 680.50 784.60 L 686.00 785.70 L 691.50 786.30 L 702.70 786.80 L 719.50 786.10 L 709.80 799.20 L 706.30 803.30 L 701.00 808.10 L 698.00 810.20 L 692.30 813.50 L 686.30 816.30 L 674.00 820.70 L 661.20 823.90 L 641.70 827.20 L 639.30 825.10 L 637.70 822.70 L 636.70 820.30 L 636.20 817.60 L 636.10 814.90 L 637.30 809.10 L 639.90 803.40 L 642.50 799.40 L 645.50 795.80 L 648.80 792.60 L 652.00 790.20 Z" fill="#826c8b" fill-rule="nonzero" node-id="162" stroke="none" target-height="46.299988" target-width="83.400024" target-x="636.1" target-y="780.9"></path></svg>