<?xml version="1.0" standalone="no"?><!DOCTYPE svg PUBLIC "-//W3C//DTD SVG 1.1//EN" "http://www.w3.org/Graphics/SVG/1.1/DTD/svg11.dtd"><svg height="1024" node-id="1" sillyvg="true" template-height="1024" template-width="1024" version="1.1" viewBox="0 0 1024 1024" width="1024" xmlns="http://www.w3.org/2000/svg" xmlns:xlink="http://www.w3.org/1999/xlink"><defs node-id="60"><linearGradient gradientUnits="objectBoundingBox" id="master_svg1_25_502" node-id="5" spreadMethod="pad" x1="0.563229" x2="0.59308666" y1="0.49999774" y2="0.49999774"><stop offset="0" stop-color="#c5baeb"></stop><stop offset="0.963" stop-color="#d7d1eb"></stop></linearGradient><linearGradient gradientUnits="objectBoundingBox" id="master_svg2_25_503" node-id="8" spreadMethod="pad" x1="1.2269759" x2="0.1614889" y1="1.2271223" y2="0.8719596"><stop offset="0" stop-color="#c5baeb"></stop><stop offset="0.484" stop-color="#e9e5f6"></stop><stop offset="1" stop-color="#f2edff"></stop></linearGradient><linearGradient gradientUnits="objectBoundingBox" id="master_svg3_25_505" node-id="12" spreadMethod="pad" x1="0" x2="1" y1="0.5" y2="0.5"><stop offset="0.003" stop-color="#80e37b"></stop><stop offset="0.76" stop-color="#a6eba2"></stop><stop offset="1" stop-color="#b3eeb0"></stop></linearGradient><linearGradient gradientUnits="objectBoundingBox" id="master_svg4_25_505" node-id="16" spreadMethod="pad" x1="0" x2="1" y1="0.5" y2="0.5"><stop offset="0.003" stop-color="#80e37b"></stop><stop offset="0.76" stop-color="#a6eba2"></stop><stop offset="1" stop-color="#b3eeb0"></stop></linearGradient><linearGradient gradientUnits="objectBoundingBox" id="master_svg5_25_507" node-id="20" spreadMethod="pad" x1="0.16144769" x2="0.70815045" y1="0.42176813" y2="0.69121885"><stop offset="0" stop-color="#ffc538"></stop><stop offset="0.508" stop-color="#fad53d"></stop><stop offset="1" stop-color="#f7e041"></stop></linearGradient><linearGradient gradientUnits="objectBoundingBox" id="master_svg6_25_508" node-id="24" spreadMethod="pad" x1="0.06779619" x2="0.84774256" y1="0.35834464" y2="0.6291997"><stop offset="0" stop-color="#c5baeb"></stop><stop offset="0.484" stop-color="#e9e5f6"></stop><stop offset="1" stop-color="#ffffff"></stop></linearGradient><linearGradient gradientUnits="objectBoundingBox" id="master_svg7_25_510" node-id="28" spreadMethod="pad" x1="0.050156068" x2="0.86823237" y1="0.3422925" y2="0.6078454"><stop offset="0" stop-color="#ab2c37"></stop><stop offset="0.617" stop-color="#ff4f5e"></stop><stop offset="1" stop-color="#ff7a85"></stop></linearGradient><clipPath id="master_svg0_25_402" node-id="3"><path d="M 0.00 0.00 L 1024.00 0.00 L 1024.00 1024.00 L 0.00 1024.00 Z" fill="#000000" fill-rule="nonzero" node-id="117" stroke="none" target-height="1024" target-width="1024" target-x="0" target-y="0"></path></clipPath></defs><g node-id="187"><g clip-path="url(#master_svg0_25_402)" group-id="1" id="sillyvg_g_1" node-id="123"><path d="M 1024.00 604.40 L 1024.00 584.30 L 0.00 492.80 L 0.20 515.30 L 0.80 517.00 L 3.20 520.40 L 7.40 523.50 L 573.80 850.50 L 580.30 853.30 L 587.60 854.70 L 594.70 854.60 L 598.20 854.00 L 601.30 853.10 L 604.00 851.80 L 1018.80 612.30 L 1020.50 611.10 L 1022.80 608.70 L 1023.50 607.30 L 1024.00 604.40 Z" fill="url(#master_svg1_25_502)" fill-rule="nonzero" group-id="1,2" node-id="127" stroke="none" target-height="361.90002" target-width="1024" target-x="0" target-y="492.8"></path><path d="M 420.00 246.00 L 5.20 485.50 L 2.80 487.20 L 1.30 489.00 L 0.40 490.80 L 0.00 492.80 L 0.20 494.90 L 1.10 497.10 L 2.50 499.00 L 4.60 500.90 L 7.40 502.90 L 573.80 829.90 L 580.30 832.60 L 587.60 834.00 L 594.70 834.00 L 598.20 833.40 L 601.30 832.40 L 604.00 831.20 L 1018.80 591.70 L 1021.20 589.90 L 1022.70 588.20 L 1023.60 586.30 L 1024.00 584.30 L 1023.80 582.20 L 1022.90 580.10 L 1021.50 578.10 L 1019.50 576.20 L 1016.60 574.20 L 450.20 247.20 L 443.70 244.50 L 436.40 243.10 L 429.30 243.20 L 425.80 243.80 L 422.70 244.70 L 420.00 246.00 Z" fill="url(#master_svg2_25_503)" fill-rule="nonzero" group-id="1,3" node-id="132" stroke="none" target-height="590.9" target-width="1024" target-x="0" target-y="243.1"></path><path d="M 345.80 344.70 L 176.70 442.50 L 175.10 444.00 L 173.30 447.10 L 173.00 450.50 L 173.40 452.20 L 174.20 454.00 L 175.80 456.20 L 178.00 458.40 L 181.20 460.50 L 185.10 462.40 L 189.40 463.90 L 193.90 464.80 L 198.50 465.20 L 203.00 465.20 L 207.30 464.60 L 210.10 463.90 L 214.80 461.90 L 383.90 364.10 L 385.40 362.60 L 387.20 359.50 L 387.60 356.10 L 387.20 354.40 L 386.30 352.60 L 384.80 350.40 L 382.50 348.20 L 379.40 346.10 L 375.50 344.20 L 371.20 342.70 L 366.70 341.80 L 362.10 341.40 L 357.50 341.40 L 353.30 342.00 L 350.50 342.70 L 345.80 344.70 Z M 525.30 366.50 L 328.10 480.50 L 326.60 482.00 L 324.80 485.10 L 324.40 488.50 L 324.80 490.20 L 325.60 492.00 L 327.20 494.20 L 329.40 496.40 L 332.60 498.50 L 336.50 500.40 L 340.80 501.90 L 345.30 502.80 L 349.90 503.20 L 354.40 503.20 L 358.70 502.60 L 361.50 501.90 L 366.20 499.90 L 563.40 385.90 L 564.90 384.40 L 566.70 381.30 L 567.00 377.90 L 566.60 376.20 L 565.80 374.40 L 564.30 372.20 L 562.00 370.00 L 558.90 367.90 L 554.90 366.00 L 550.60 364.50 L 546.10 363.60 L 541.60 363.20 L 537.00 363.20 L 532.70 363.80 L 530.00 364.50 L 525.30 366.50 Z M 633.90 429.20 L 436.70 543.20 L 435.20 544.70 L 433.40 547.80 L 433.00 551.20 L 433.40 552.90 L 434.20 554.70 L 435.80 556.90 L 438.00 559.10 L 441.20 561.20 L 445.10 563.10 L 449.40 564.60 L 453.90 565.50 L 458.50 565.90 L 463.10 565.90 L 467.30 565.30 L 472.60 563.70 L 672.00 448.60 L 673.50 447.10 L 675.30 444.00 L 675.60 440.60 L 675.30 438.90 L 674.40 437.10 L 672.90 434.90 L 670.60 432.70 L 667.50 430.60 L 663.60 428.70 L 659.20 427.20 L 654.70 426.30 L 650.20 425.90 L 645.60 425.90 L 641.30 426.50 L 638.60 427.20 L 633.90 429.20 Z M 742.50 491.90 L 545.30 606.00 L 543.80 607.40 L 542.00 610.50 L 541.60 613.90 L 542.00 615.60 L 542.90 617.40 L 544.40 619.60 L 546.70 621.80 L 549.80 623.90 L 553.70 625.80 L 558.00 627.30 L 562.50 628.20 L 567.10 628.60 L 571.70 628.60 L 575.90 628.00 L 578.70 627.30 L 583.40 625.30 L 780.60 511.30 L 782.10 509.80 L 783.90 506.70 L 784.30 503.30 L 783.90 501.60 L 783.00 499.80 L 781.50 497.60 L 779.20 495.40 L 776.10 493.30 L 772.20 491.40 L 767.80 489.90 L 763.30 489.00 L 758.80 488.60 L 754.20 488.60 L 750.00 489.20 L 747.20 489.90 L 742.50 491.90 Z M 851.10 554.60 L 653.90 668.70 L 652.40 670.10 L 650.60 673.20 L 650.20 676.60 L 650.60 678.30 L 651.50 680.20 L 653.00 682.30 L 655.30 684.50 L 658.40 686.60 L 662.30 688.50 L 666.70 690.00 L 671.20 690.90 L 675.70 691.30 L 680.30 691.30 L 684.50 690.70 L 689.80 689.10 L 889.20 574.00 L 890.70 572.50 L 892.50 569.40 L 892.90 566.00 L 892.50 564.30 L 891.70 562.50 L 890.10 560.30 L 887.90 558.20 L 884.70 556.00 L 880.80 554.10 L 876.50 552.70 L 872.00 551.70 L 867.40 551.30 L 862.80 551.30 L 858.60 551.90 L 855.80 552.60 L 851.10 554.60 Z M 264.50 508.60 L 267.30 507.80 L 269.10 507.70 L 271.70 508.10 L 273.90 509.00 L 314.40 532.40 L 315.60 533.30 L 316.70 535.20 L 316.60 536.10 L 316.10 537.00 L 315.00 537.80 L 280.00 558.00 L 277.20 558.90 L 275.50 559.00 L 272.90 558.60 L 270.60 557.60 L 230.20 534.30 L 228.90 533.30 L 227.90 531.50 L 228.00 530.60 L 228.50 529.70 L 229.50 528.90 L 264.50 508.60 Z M 254.50 502.90 L 219.50 523.10 L 217.30 524.70 L 215.80 526.30 L 214.90 528.10 L 214.60 529.90 L 214.80 531.90 L 215.70 533.90 L 217.00 535.70 L 218.90 537.50 L 221.50 539.30 L 264.80 564.10 L 271.30 566.00 L 278.10 566.60 L 284.70 565.90 L 287.50 565.00 L 290.10 563.80 L 325.10 543.60 L 327.30 542.00 L 328.80 540.30 L 329.60 538.60 L 329.90 536.70 L 329.70 534.80 L 328.90 532.80 L 327.60 531.00 L 325.70 529.20 L 323.10 527.40 L 279.70 502.60 L 273.20 500.70 L 266.40 500.00 L 259.90 500.80 L 257.00 501.70 L 254.50 502.90 Z M 373.10 571.30 L 376.00 570.50 L 377.70 570.40 L 380.30 570.80 L 382.60 571.70 L 423.00 595.10 L 424.30 596.00 L 425.30 597.90 L 425.20 598.80 L 424.70 599.70 L 423.70 600.50 L 388.60 620.70 L 385.80 621.60 L 384.10 621.70 L 381.50 621.30 L 379.20 620.30 L 338.80 597.00 L 337.50 596.00 L 336.50 594.20 L 336.60 593.30 L 337.10 592.40 L 338.10 591.60 L 373.10 571.30 Z M 363.10 565.60 L 328.10 585.80 L 325.90 587.40 L 324.40 589.00 L 323.60 590.80 L 323.20 592.70 L 323.40 594.60 L 324.30 596.60 L 325.60 598.40 L 327.50 600.20 L 330.10 602.00 L 373.40 626.80 L 379.90 628.70 L 386.70 629.30 L 393.30 628.60 L 396.10 627.70 L 398.70 626.50 L 433.70 606.30 L 435.90 604.70 L 437.40 603.10 L 438.20 601.30 L 438.60 599.40 L 438.30 597.50 L 437.50 595.50 L 436.20 593.70 L 434.30 591.90 L 431.70 590.10 L 388.30 565.30 L 381.80 563.40 L 375.10 562.70 L 368.50 563.50 L 365.60 564.40 L 363.10 565.60 Z M 481.70 634.10 L 484.60 633.20 L 486.30 633.10 L 488.90 633.50 L 491.20 634.40 L 531.60 657.80 L 532.90 658.70 L 533.90 660.60 L 533.80 661.50 L 533.30 662.40 L 532.30 663.20 L 497.30 683.40 L 494.40 684.30 L 492.70 684.40 L 490.10 684.00 L 487.80 683.10 L 447.40 659.70 L 446.10 658.80 L 445.10 656.90 L 445.20 656.00 L 445.70 655.10 L 446.70 654.30 L 481.70 634.10 Z M 471.70 628.30 L 436.70 648.50 L 434.50 650.10 L 433.00 651.70 L 432.20 653.50 L 431.80 655.40 L 432.10 657.30 L 432.90 659.30 L 434.20 661.10 L 436.10 662.90 L 438.70 664.70 L 482.10 689.50 L 488.50 691.40 L 495.30 692.00 L 501.90 691.30 L 504.80 690.40 L 507.30 689.20 L 542.30 669.00 L 544.50 667.40 L 546.00 665.80 L 546.80 664.00 L 547.20 662.10 L 546.90 660.20 L 546.10 658.20 L 544.80 656.40 L 542.90 654.60 L 540.30 652.80 L 496.90 628.00 L 490.50 626.10 L 483.70 625.50 L 477.10 626.20 L 474.20 627.10 L 471.70 628.30 Z M 590.40 696.80 L 593.20 695.90 L 594.90 695.80 L 597.50 696.20 L 599.80 697.20 L 640.20 720.50 L 641.50 721.50 L 642.50 723.30 L 642.40 724.20 L 641.90 725.10 L 640.90 725.90 L 605.90 746.10 L 603.00 747.00 L 601.30 747.10 L 598.70 746.70 L 596.50 745.80 L 556.00 722.40 L 554.80 721.50 L 553.70 719.60 L 553.80 718.70 L 554.30 717.80 L 555.30 717.00 L 590.40 696.80 Z M 580.30 691.00 L 545.30 711.20 L 543.10 712.80 L 541.60 714.40 L 540.80 716.20 L 540.40 718.10 L 540.70 720.00 L 541.50 722.00 L 542.80 723.80 L 544.70 725.60 L 547.30 727.40 L 590.70 752.20 L 597.20 754.10 L 604.00 754.70 L 610.50 754.00 L 613.40 753.10 L 615.90 751.90 L 650.90 731.70 L 653.10 730.10 L 654.60 728.50 L 655.40 726.70 L 655.80 724.80 L 655.60 722.90 L 654.70 720.90 L 653.40 719.10 L 651.50 717.30 L 648.90 715.50 L 605.60 690.70 L 599.10 688.80 L 592.30 688.20 L 585.70 688.90 L 582.90 689.80 L 580.30 691.00 Z" fill="#b5b9c3" fill-rule="nonzero" group-id="1,4,14" node-id="139" stroke="none" target-height="413.30002" target-width="719.9" target-x="173" target-y="341.4"></path><path d="M 285.60 540.80 L 281.30 542.40 L 276.00 542.80 L 219.60 540.50 L 215.80 540.00 L 212.40 539.10 L 209.40 537.60 L 207.10 536.00 L 205.10 533.20 L 204.70 531.80 L 204.70 530.40 L 205.20 529.20 L 206.20 528.10 L 209.10 526.40 L 214.40 525.20 L 266.80 525.00 L 251.40 467.00 L 251.10 464.70 L 251.20 462.50 L 252.40 459.90 L 253.60 458.80 L 254.90 458.00 L 256.70 457.50 L 259.20 457.30 L 261.70 457.50 L 263.80 458.20 L 265.60 459.20 L 268.60 462.10 L 271.00 466.40 L 288.80 534.70 L 289.00 536.40 L 288.50 537.90 L 287.50 539.30 L 285.60 540.80 Z" fill="url(#master_svg3_25_505)" fill-rule="nonzero" group-id="1,5" node-id="145" stroke="none" target-height="85.5" target-width="84.3" target-x="204.7" target-y="457.3"></path><path d="M 394.20 602.90 L 389.90 604.40 L 384.60 604.80 L 328.20 602.50 L 324.40 602.10 L 321.10 601.10 L 318.00 599.70 L 315.70 598.00 L 313.70 595.30 L 313.30 593.90 L 313.40 592.50 L 313.90 591.20 L 314.80 590.10 L 317.70 588.40 L 323.00 587.30 L 375.40 587.10 L 360.00 529.00 L 359.70 526.80 L 359.80 524.50 L 361.10 521.90 L 362.20 520.90 L 363.50 520.10 L 365.30 519.50 L 367.80 519.30 L 370.30 519.60 L 372.40 520.20 L 374.20 521.30 L 377.20 524.10 L 379.60 528.50 L 397.50 596.70 L 397.60 598.40 L 397.10 600.00 L 396.20 601.40 L 394.20 602.90 Z" fill="url(#master_svg4_25_505)" fill-rule="nonzero" group-id="1,6" node-id="150" stroke="none" target-height="85.5" target-width="84.30002" target-x="313.3" target-y="519.3"></path><path d="M 490.90 521.30 L 493.60 648.60 L 493.80 650.40 L 495.20 653.40 L 496.30 654.50 L 498.90 656.10 L 502.00 656.70 L 503.60 656.50 L 506.50 655.20 L 507.90 654.00 L 599.20 553.90 L 490.90 521.30 Z" fill="#ebcba0" fill-rule="nonzero" group-id="1,7" node-id="155" stroke="none" target-height="135.40002" target-width="108.30002" target-x="490.9" target-y="521.3"></path><path d="M 603.20 547.00 L 672.70 368.10 L 561.70 335.80 L 492.40 514.30 L 491.50 517.10 L 491.00 520.00 L 490.90 523.00 L 491.30 526.10 L 492.20 529.10 L 493.50 532.30 L 495.40 535.60 L 497.90 539.00 L 501.10 542.60 L 504.80 546.10 L 509.00 549.40 L 518.30 555.10 L 523.60 557.60 L 534.50 561.70 L 546.00 564.50 L 557.70 566.00 L 563.60 566.20 L 569.30 565.90 L 574.80 565.30 L 580.60 564.10 L 585.70 562.60 L 590.00 560.70 L 593.60 558.60 L 597.10 556.00 L 599.70 553.20 L 601.80 550.20 L 603.20 547.00 Z" fill="url(#master_svg5_25_507)" fill-rule="nonzero" group-id="1,8" node-id="160" stroke="none" target-height="230.40002" target-width="181.80002" target-x="490.9" target-y="335.8"></path><path d="M 680.50 369.70 L 713.50 284.70 L 587.40 247.90 L 553.40 335.70 L 552.90 339.00 L 552.80 342.40 L 553.30 346.00 L 554.20 349.40 L 555.70 353.00 L 557.90 356.70 L 560.70 360.70 L 564.40 364.70 L 568.60 368.70 L 573.40 372.40 L 578.50 375.80 L 584.00 378.90 L 589.90 381.80 L 602.30 386.40 L 608.90 388.20 L 615.50 389.70 L 622.10 390.70 L 628.80 391.30 L 635.40 391.50 L 641.90 391.20 L 648.20 390.50 L 654.90 389.20 L 660.60 387.40 L 665.50 385.30 L 669.60 382.90 L 672.80 380.50 L 675.50 378.00 L 677.60 375.40 L 679.30 372.70 L 680.50 369.70 Z" fill="url(#master_svg6_25_508)" fill-rule="nonzero" group-id="1,9" node-id="165" stroke="none" target-height="143.6" target-width="160.70001" target-x="552.8" target-y="247.9"></path><path d="M 680.80 306.50 L 686.80 305.30 L 691.90 303.80 L 696.50 302.10 L 700.40 300.00 L 704.20 297.50 L 707.30 294.90 L 709.80 292.00 L 711.70 289.00 L 713.20 285.70 L 714.00 282.30 L 714.30 278.70 L 714.00 274.90 L 713.10 271.20 L 711.60 267.40 L 709.40 263.40 L 706.30 259.20 L 702.70 255.10 L 698.50 251.10 L 693.70 247.40 L 688.60 244.00 L 683.10 240.90 L 677.10 238.00 L 671.00 235.50 L 658.20 231.60 L 651.60 230.10 L 644.90 229.10 L 638.30 228.50 L 631.60 228.30 L 625.10 228.60 L 618.80 229.30 L 612.90 230.50 L 607.70 231.90 L 603.20 233.70 L 599.30 235.70 L 595.50 238.20 L 592.40 240.90 L 589.90 243.70 L 588.00 246.80 L 586.50 250.10 L 585.70 253.50 L 585.40 257.10 L 585.70 260.90 L 586.60 264.50 L 588.10 268.40 L 590.30 272.40 L 593.30 276.60 L 597.00 280.70 L 601.20 284.60 L 606.00 288.40 L 611.10 291.70 L 616.60 294.80 L 622.60 297.70 L 635.00 302.40 L 648.10 305.60 L 654.80 306.60 L 661.40 307.30 L 668.10 307.50 L 674.60 307.20 L 680.80 306.50 Z" fill="#f2effa" fill-rule="nonzero" group-id="1,10" node-id="170" stroke="none" target-height="79.2" target-width="128.89996" target-x="585.4" target-y="228.3"></path><path d="M 706.30 281.30 L 730.60 218.80 L 619.70 186.40 L 595.60 248.70 L 594.60 251.40 L 594.10 254.30 L 594.10 257.30 L 594.50 260.40 L 595.30 263.50 L 596.70 266.60 L 598.50 269.90 L 601.00 273.40 L 604.20 276.90 L 607.90 280.40 L 612.20 283.70 L 621.50 289.40 L 626.70 291.90 L 637.60 296.00 L 643.40 297.60 L 649.20 298.90 L 660.90 300.30 L 666.70 300.50 L 672.40 300.20 L 677.90 299.60 L 683.80 298.40 L 688.80 296.90 L 693.10 295.00 L 696.80 292.90 L 700.20 290.30 L 702.90 287.50 L 704.90 284.50 L 706.30 281.30 Z" fill="url(#master_svg7_25_510)" fill-rule="nonzero" group-id="1,11" node-id="175" stroke="none" target-height="114.100006" target-width="136.5" target-x="594.1" target-y="186.4"></path><path d="M 701.90 237.90 L 707.10 236.90 L 711.70 235.60 L 715.60 234.00 L 719.10 232.30 L 722.40 230.10 L 725.10 227.70 L 727.30 225.20 L 729.00 222.60 L 730.30 219.60 L 731.10 216.60 L 731.30 213.50 L 731.00 210.10 L 730.20 206.90 L 728.90 203.60 L 727.00 200.00 L 724.30 196.30 L 721.10 192.70 L 717.40 189.30 L 713.20 186.00 L 708.70 183.00 L 698.60 177.80 L 687.70 173.70 L 676.20 170.80 L 664.50 169.40 L 658.60 169.20 L 652.90 169.40 L 647.40 170.10 L 642.20 171.10 L 637.60 172.40 L 633.70 173.90 L 630.20 175.70 L 626.90 177.90 L 624.20 180.30 L 622.00 182.80 L 620.30 185.40 L 619.00 188.30 L 618.20 191.30 L 618.00 194.50 L 618.30 197.90 L 619.10 201.10 L 620.40 204.40 L 622.30 207.90 L 625.00 211.70 L 628.20 215.30 L 631.90 218.70 L 636.10 222.00 L 640.60 225.00 L 650.70 230.20 L 661.60 234.30 L 673.10 237.20 L 684.80 238.60 L 690.70 238.80 L 696.40 238.50 L 701.90 237.90 Z" fill="#ff7a85" fill-rule="nonzero" group-id="1,12" node-id="180" stroke="none" target-height="69.600006" target-width="113.29999" target-x="618" target-y="169.2"></path><path d="M 493.60 648.60 L 494.30 652.00 L 495.20 653.40 L 497.50 655.50 L 500.40 656.60 L 502.00 656.70 L 505.10 656.00 L 506.50 655.20 L 544.80 613.40 L 542.80 615.10 L 540.10 616.50 L 537.20 617.60 L 530.10 618.70 L 523.00 618.50 L 517.70 617.60 L 512.40 616.20 L 507.50 614.10 L 503.00 611.70 L 497.90 607.70 L 495.90 605.50 L 494.30 603.10 L 493.20 600.90 L 492.50 596.90 L 493.60 648.60 Z" fill="#565d68" fill-rule="nonzero" group-id="1,13" node-id="185" stroke="none" target-height="59.799988" target-width="52.299988" target-x="492.5" target-y="596.9"></path></g></g></svg>