<?xml version="1.0" standalone="no"?><!DOCTYPE svg PUBLIC "-//W3C//DTD SVG 1.1//EN" "http://www.w3.org/Graphics/SVG/1.1/DTD/svg11.dtd"><svg height="1024" node-id="1" sillyvg="true" template-height="1024" template-width="1024" version="1.1" viewBox="0 0 1024 1024" width="1024" xmlns="http://www.w3.org/2000/svg" xmlns:xlink="http://www.w3.org/1999/xlink"><defs node-id="15"></defs><path d="M 206.10 798.10 L 264.20 798.10 L 264.20 825.40 L 206.10 825.40 L 206.10 798.10 Z M 75.00 634.80 L 122.30 634.80 L 122.30 662.10 L 75.00 662.10 L 75.00 634.80 Z M 211.60 548.20 L 258.90 548.20 L 258.90 575.50 L 211.60 575.50 L 211.60 548.20 Z M 158.30 634.80 L 322.90 634.80 L 322.90 662.10 L 158.30 662.10 L 158.30 634.80 Z M 0.10 548.20 L 164.70 548.20 L 164.70 575.50 L 0.10 575.50 L 0.10 548.20 Z" fill="#ddd3d4" fill-rule="nonzero" node-id="17" stroke="none" target-height="277.2" target-width="322.8" target-x="0.1" target-y="548.2"></path><path d="M 833.30 -27.90 L 629.40 270.60 L 590.50 288.20 L 591.30 293.10 L 590.70 299.70 L 588.40 306.40 L 586.70 309.90 L 584.20 313.60 L 580.80 317.80 L 577.00 321.70 L 572.10 325.80 L 563.10 332.40 L 560.60 334.80 L 558.40 337.60 L 556.50 340.80 L 554.60 345.40 L 553.10 350.40 L 552.20 355.90 L 551.80 361.50 L 551.90 367.40 L 552.40 373.50 L 553.50 379.60 L 555.00 385.70 L 557.00 391.80 L 559.30 397.80 L 562.10 403.50 L 565.30 408.90 L 568.90 414.10 L 572.80 418.70 L 577.10 422.90 L 580.50 425.80 L 584.20 428.20 L 587.90 430.30 L 591.90 432.00 L 596.00 433.30 L 600.20 434.10 L 604.60 434.50 L 609.30 434.30 L 645.90 430.60 L 657.40 430.00 L 665.10 429.80 L 672.40 430.10 L 679.50 430.80 L 689.80 432.80 L 699.40 436.10 L 703.90 438.30 L 708.30 441.00 L 712.50 444.10 L 716.60 447.80 L 720.30 451.70 L 723.80 456.30 L 727.20 461.60 L 730.50 467.70 L 776.80 375.90 L 1013.90 107.80 L 833.30 -27.90 Z" fill="#f3b5af" fill-rule="nonzero" node-id="19" stroke="none" target-height="495.6" target-width="462.10004" target-x="551.8" target-y="-27.9"></path><path d="M 675.80 812.30 L 682.20 812.60 L 688.40 813.30 L 694.30 814.50 L 700.10 816.20 L 705.80 818.40 L 711.20 820.90 L 716.30 823.80 L 721.20 827.10 L 725.90 830.80 L 730.20 834.80 L 734.20 839.10 L 737.90 843.80 L 741.20 848.70 L 744.10 853.80 L 746.60 859.20 L 748.80 864.90 L 750.50 870.70 L 751.70 876.60 L 752.40 882.80 L 752.70 889.20 L 752.70 905.10 L 752.40 907.80 L 751.80 910.40 L 750.70 912.70 L 749.20 914.80 L 747.40 916.60 L 745.30 918.10 L 743.00 919.20 L 740.40 919.80 L 737.70 920.10 L 647.30 920.10 L 640.60 919.80 L 634.00 919.00 L 627.50 917.60 L 621.10 915.60 L 615.00 913.10 L 609.10 910.10 L 603.50 906.70 L 598.10 902.70 L 593.10 898.20 L 472.00 781.40 L 325.80 416.40 L 323.50 408.60 L 323.00 404.70 L 323.10 397.00 L 324.70 389.50 L 327.60 382.50 L 331.80 376.10 L 334.40 373.20 L 340.30 368.20 L 343.70 366.10 L 347.40 364.30 L 559.40 273.80 L 565.40 272.20 L 568.40 272.00 L 574.20 272.80 L 579.60 274.90 L 582.10 276.50 L 584.40 278.50 L 586.40 280.70 L 588.10 283.20 L 589.50 286.00 L 593.90 296.50 L 594.30 299.30 L 593.30 301.90 L 592.40 302.90 L 581.70 308.90 L 577.40 311.90 L 573.40 315.20 L 566.40 322.70 L 563.30 326.70 L 558.10 335.50 L 554.40 344.80 L 553.00 349.70 L 551.40 359.70 L 551.10 364.80 L 551.80 375.10 L 552.80 380.20 L 554.20 385.30 L 556.00 390.50 L 558.70 396.30 L 561.70 401.70 L 565.20 406.60 L 569.10 411.20 L 573.40 415.50 L 578.00 419.30 L 582.80 422.70 L 588.00 425.60 L 593.40 428.10 L 599.00 430.10 L 604.80 431.60 L 610.80 432.50 L 616.80 433.00 L 622.80 432.90 L 629.00 432.20 L 635.20 431.00 L 653.60 426.60 L 663.70 425.70 L 668.70 425.80 L 678.50 427.10 L 687.80 429.90 L 693.80 432.50 L 699.50 435.60 L 704.80 439.30 L 708.60 442.40 L 715.40 449.40 L 718.50 453.30 L 723.60 461.90 L 725.80 466.50 L 732.30 485.90 L 663.00 695.20 L 700.70 819.80" fill="#f2463e" fill-rule="nonzero" node-id="21" stroke="none" target-height="648.1" target-width="429.7" target-x="323" target-y="272"></path><path d="M 599.10 296.20 L 599.50 299.00 L 598.50 301.60 L 597.60 302.60 L 590.80 306.20 L 585.60 309.40 L 580.70 313.10 L 576.20 317.20 L 572.10 321.70 L 568.40 326.50 L 565.20 331.60 L 562.40 337.10 L 560.10 342.80 L 554.40 349.50 L 547.70 358.30 L 538.90 371.80 L 534.10 380.10 L 529.90 388.60 L 525.70 398.20 L 521.70 409.00 L 519.10 417.10 L 516.70 425.90 L 514.50 435.50 L 512.60 445.80 L 511.20 456.00 L 510.10 466.90 L 509.40 478.70 L 509.20 491.40 L 509.50 503.70 L 510.40 517.00 L 511.80 531.20 L 516.70 565.60 L 518.70 582.70 L 520.00 597.80 L 520.90 613.00 L 521.20 626.50 L 521.00 638.30 L 520.20 650.20 L 519.00 660.70 L 517.50 669.80 L 515.40 678.90 L 513.10 686.90 L 510.50 693.90 L 507.50 700.70 L 504.20 706.80 L 500.80 712.30 L 497.10 717.50 L 489.30 726.60 L 483.00 732.90 L 463.80 750.20 L 330.90 416.20 L 329.60 412.30 L 328.10 404.50 L 328.20 396.80 L 329.80 389.30 L 332.70 382.30 L 336.90 375.90 L 342.30 370.40 L 348.80 365.90 L 352.50 364.10 L 564.50 273.50 L 567.50 272.50 L 570.50 271.80 L 576.40 271.80 L 582.10 273.30 L 587.20 276.20 L 591.50 280.30 L 593.20 282.80 L 599.10 296.20 Z" fill="#dc4038" fill-rule="nonzero" node-id="23" stroke="none" target-height="478.40002" target-width="271.4" target-x="328.1" target-y="271.8"></path><path d="M 757.00 875.10 L 663.30 875.10 L 658.50 874.90 L 653.80 874.20 L 649.30 873.10 L 644.80 871.60 L 640.60 869.60 L 636.50 867.30 L 632.60 864.60 L 629.00 861.50 L 579.00 805.50 L 570.20 797.40 L 565.50 793.80 L 555.50 787.60 L 544.90 782.70 L 533.70 779.20 L 522.20 777.10 L 516.30 776.50 L 504.50 776.60 L 498.60 777.20 L 477.50 781.20 L 604.00 906.00 L 608.90 910.40 L 614.00 914.30 L 619.50 917.70 L 625.20 920.60 L 631.10 923.10 L 637.20 925.00 L 643.50 926.40 L 649.90 927.20 L 656.40 927.50 L 756.90 927.50 L 757.00 875.10 Z" fill="#dcd3d4" fill-rule="nonzero" node-id="25" stroke="none" target-height="151" target-width="279.5" target-x="477.5" target-y="776.5"></path><path d="M 398.80 347.90 L 469.40 524.70 L 470.60 530.70 L 471.10 535.80 L 471.10 541.40 L 470.60 548.80 L 468.80 559.50 L 465.00 572.10 L 462.30 579.00 L 458.80 586.50 L 454.90 593.80 L 450.00 601.60 L 444.10 610.10 L 434.10 622.40 L 421.20 636.00 L 331.40 419.60 L 330.00 415.20 L 329.20 410.90 L 329.00 406.50 L 329.40 402.10 L 330.20 397.70 L 331.50 393.40 L 333.30 389.30 L 335.40 385.30 L 338.00 381.40 L 340.90 377.90 L 344.10 374.60 L 347.60 371.50 L 351.40 368.90 L 355.40 366.60 L 398.80 347.90 Z" fill="#ffffff" fill-rule="nonzero" node-id="27" stroke="none" target-height="288.1" target-width="142.1" target-x="329" target-y="347.9"></path><path d="M 449.60 600.70 L 443.00 610.10 L 435.80 619.20 L 428.20 627.80 L 420.10 636.10 L 330.30 419.70 L 329.20 416.30 L 328.60 412.80 L 328.40 409.20 L 328.60 405.50 L 329.40 400.70 L 330.90 395.90 L 332.90 391.10 L 335.40 386.40 L 338.30 382.10 L 341.60 377.90 L 345.20 374.00 L 349.00 370.60 L 352.90 367.60 L 449.60 600.70 Z" fill="#dcd3d4" fill-rule="nonzero" node-id="29" stroke="none" target-height="268.49997" target-width="121.20001" target-x="328.4" target-y="367.6"></path><path d="M 565.50 661.20 L 572.00 625.00 L 598.90 629.90 L 592.30 666.00 L 565.50 661.20 Z M 576.00 603.20 L 595.90 493.50 L 622.80 498.40 L 602.90 608.10 L 576.00 603.20 Z" fill="#ffffff" fill-rule="nonzero" node-id="31" stroke="none" target-height="172.5" target-width="57.299988" target-x="565.5" target-y="493.5"></path><path d="M 899.10 909.60 L 953.70 909.60 L 953.70 936.90 L 899.10 936.90 L 899.10 909.60 Z M 26.30 909.60 L 106.00 909.60 L 106.00 936.90 L 26.30 936.90 L 26.30 909.60 Z M 771.90 908.30 L 771.90 892.40 L 771.60 885.50 L 770.90 878.90 L 769.60 872.30 L 767.90 865.90 L 765.80 859.60 L 763.20 853.60 L 760.10 847.80 L 756.70 842.20 L 752.80 836.90 L 748.60 831.80 L 744.10 827.10 L 739.10 822.70 L 733.90 818.60 L 728.30 815.00 L 722.40 811.70 L 716.20 808.80 L 682.80 698.50 L 712.00 610.50 L 715.60 614.80 L 719.70 619.10 L 724.60 623.40 L 729.80 627.30 L 735.70 631.10 L 742.50 634.70 L 749.50 637.90 L 757.50 640.80 L 766.40 643.50 L 773.40 617.10 L 765.90 614.90 L 759.50 612.50 L 754.10 610.00 L 748.80 607.20 L 744.40 604.30 L 740.80 601.50 L 734.60 595.30 L 730.50 589.10 L 727.90 583.40 L 726.70 579.20 L 726.10 575.60 L 732.00 575.40 L 736.50 574.90 L 745.10 572.70 L 750.60 570.60 L 755.70 567.90 L 760.60 564.70 L 765.00 561.10 L 769.10 557.00 L 772.70 552.60 L 775.90 547.70 L 778.60 542.60 L 780.70 537.10 L 782.90 528.50 L 783.60 519.30 L 783.30 513.40 L 782.40 507.70 L 780.90 502.20 L 778.90 496.80 L 776.40 491.80 L 773.40 487.00 L 770.00 482.50 L 766.10 478.50 L 761.70 474.80 L 757.10 471.50 L 752.00 468.70 L 746.60 466.40 L 788.20 383.90 L 1024.10 117.10 L 1003.60 98.90 L 765.40 368.30 L 728.80 440.80 L 720.90 433.30 L 712.20 427.10 L 706.00 423.70 L 699.60 420.80 L 692.90 418.40 L 686.10 416.70 L 679.10 415.60 L 672.10 415.10 L 661.40 415.50 L 650.70 417.40 L 637.50 420.70 L 632.00 421.80 L 626.60 422.30 L 621.30 422.30 L 616.10 421.70 L 610.90 420.60 L 606.00 419.10 L 601.20 417.10 L 596.60 414.70 L 592.30 411.80 L 588.30 408.50 L 584.60 404.90 L 581.20 400.80 L 578.20 396.50 L 575.70 391.80 L 573.60 386.90 L 572.00 381.50 L 571.00 376.70 L 570.50 371.90 L 570.40 367.20 L 570.70 362.50 L 572.50 353.40 L 575.80 344.80 L 580.50 336.90 L 586.60 329.80 L 590.10 326.70 L 593.80 323.80 L 597.90 321.30 L 604.90 317.70 L 607.10 315.90 L 609.10 313.90 L 610.70 311.60 L 612.00 309.20 L 612.90 306.50 L 613.40 303.70 L 613.50 300.90 L 613.20 297.90 L 639.20 280.40 L 844.60 -20.30 L 822.00 -35.70 L 619.60 260.70 L 600.90 273.30 L 595.20 268.20 L 592.00 266.20 L 585.20 263.20 L 578.00 261.70 L 574.30 261.50 L 566.80 262.10 L 563.20 263.10 L 559.50 264.40 L 347.50 355.00 L 342.60 357.50 L 338.10 360.30 L 333.90 363.50 L 330.20 367.00 L 326.70 370.90 L 323.70 375.00 L 321.20 379.40 L 319.00 384.00 L 317.20 388.80 L 316.00 393.80 L 315.20 398.80 L 314.80 404.00 L 315.00 409.10 L 315.70 414.30 L 316.90 419.50 L 318.60 424.70 L 466.00 792.40 L 587.60 909.60 L 144.60 909.60 L 144.60 936.90 L 865.40 936.90 L 865.40 909.60 L 771.80 909.60 L 771.90 908.30 Z M 732.80 547.70 L 748.70 499.60 L 751.20 502.70 L 753.20 506.00 L 754.60 509.50 L 755.70 513.10 L 756.20 516.80 L 756.30 520.50 L 755.90 524.20 L 755.00 527.80 L 753.70 531.30 L 751.90 534.60 L 749.60 537.70 L 746.90 540.60 L 743.70 543.10 L 740.30 545.10 L 736.60 546.70 L 732.80 547.70 Z M 436.50 645.40 L 468.90 595.10 L 474.60 583.50 L 478.80 571.40 L 481.60 559.00 L 482.80 546.30 L 482.90 539.90 L 481.90 527.10 L 480.90 520.80 L 477.60 508.30 L 475.40 502.10 L 442.00 418.40 L 416.60 428.60 L 450.00 512.20 L 452.20 518.40 L 453.80 524.60 L 454.90 530.90 L 455.50 537.20 L 455.60 543.60 L 455.20 549.90 L 454.30 556.20 L 453.00 562.40 L 451.10 568.50 L 448.80 574.40 L 445.90 580.20 L 442.60 585.80 L 424.00 614.40 L 344.00 414.50 L 342.90 411.10 L 342.30 407.60 L 342.10 404.20 L 342.40 400.80 L 343.10 397.50 L 344.20 394.40 L 345.70 391.30 L 347.50 388.50 L 349.70 385.90 L 352.20 383.60 L 355.10 381.70 L 358.30 380.00 L 391.30 365.90 L 408.70 409.10 L 434.00 398.90 L 416.30 355.10 L 570.10 289.40 L 571.70 288.90 L 574.90 288.70 L 577.20 289.30 L 579.30 290.50 L 580.50 291.50 L 582.30 294.30 L 583.80 297.80 L 578.10 301.40 L 572.80 305.30 L 568.00 309.60 L 563.50 314.20 L 559.50 319.10 L 555.80 324.20 L 552.70 329.60 L 549.90 335.20 L 547.60 341.10 L 545.70 347.00 L 544.30 353.00 L 543.40 359.20 L 542.90 365.50 L 542.90 371.70 L 543.40 378.00 L 544.40 384.30 L 545.90 390.50 L 547.90 396.60 L 550.50 402.70 L 553.60 408.70 L 557.30 414.50 L 561.30 419.90 L 565.70 424.80 L 570.40 429.30 L 575.50 433.50 L 580.90 437.20 L 586.50 440.40 L 592.40 443.20 L 598.40 445.50 L 604.60 447.30 L 611.00 448.60 L 617.50 449.40 L 624.10 449.70 L 630.70 449.40 L 637.30 448.60 L 662.40 442.90 L 667.40 442.40 L 672.30 442.40 L 677.20 442.90 L 682.00 443.80 L 686.70 445.10 L 691.20 446.80 L 695.50 449.00 L 699.60 451.50 L 703.50 454.40 L 707.00 457.60 L 710.40 461.20 L 713.40 465.10 L 716.00 469.30 L 718.20 473.80 L 720.10 478.60 L 723.40 488.80 L 711.40 525.10 L 681.50 525.10 L 681.50 552.40 L 702.30 552.40 L 696.70 569.40 L 669.20 569.40 L 669.20 596.70 L 687.60 596.70 L 682.00 613.70 L 655.00 613.70 L 655.00 641.00 L 673.00 641.00 L 667.40 658.00 L 644.90 658.00 L 644.90 685.30 L 658.40 685.30 L 654.20 698.00 L 685.60 801.70 L 673.30 801.70 L 622.80 710.70 L 672.70 481.60 L 646.00 475.70 L 593.90 714.70 L 642.10 801.60 L 629.50 801.60 L 629.50 828.90 L 681.40 828.90 L 687.50 829.20 L 693.30 830.10 L 699.00 831.50 L 704.60 833.40 L 709.90 835.80 L 714.90 838.60 L 719.70 841.90 L 724.20 845.70 L 728.30 849.80 L 732.10 854.40 L 735.40 859.30 L 738.30 864.60 L 663.40 864.60 L 659.40 864.40 L 655.60 863.80 L 651.90 862.80 L 644.90 859.60 L 638.80 855.10 L 636.00 852.30 L 589.40 799.70 L 584.10 794.40 L 578.90 790.00 L 573.50 785.90 L 567.90 782.10 L 562.10 778.80 L 556.10 775.80 L 549.90 773.20 L 543.60 771.00 L 537.10 769.10 L 530.60 767.70 L 523.90 766.70 L 517.20 766.10 L 510.50 766.00 L 503.70 766.20 L 496.90 767.00 L 486.10 768.90 L 436.50 645.40 Z M 652.90 909.60 L 647.30 909.40 L 641.90 908.70 L 636.50 907.50 L 631.30 905.90 L 626.20 903.90 L 621.40 901.40 L 616.70 898.60 L 612.30 895.30 L 608.20 891.60 L 506.50 793.70 L 512.40 793.60 L 518.20 793.90 L 523.90 794.50 L 529.50 795.60 L 535.10 797.20 L 540.50 799.00 L 545.70 801.30 L 550.80 804.00 L 555.70 807.00 L 560.30 810.30 L 564.80 814.00 L 569.00 818.10 L 615.50 870.50 L 619.70 874.90 L 624.30 878.70 L 629.20 882.20 L 634.40 885.10 L 639.80 887.50 L 645.50 889.50 L 651.30 890.90 L 657.20 891.70 L 663.30 892.00 L 744.60 892.00 L 744.60 908.30 L 744.20 909.20 L 743.30 909.60 L 652.90 909.60 Z" fill="#142546" fill-rule="nonzero" node-id="33" stroke="none" target-height="972.60004" target-width="997.8" target-x="26.3" target-y="-35.7"></path><path d="M 219.70 774.90 L 277.80 774.90 L 277.80 802.20 L 219.70 802.20 L 219.70 774.90 Z M 304.10 774.90 L 434.70 774.90 L 434.70 802.20 L 304.10 802.20 L 304.10 774.90 Z M 88.50 611.60 L 135.80 611.60 L 135.80 638.90 L 88.50 638.90 L 88.50 611.60 Z M 225.10 525.00 L 272.40 525.00 L 272.40 552.30 L 225.10 552.30 L 225.10 525.00 Z M 171.80 611.60 L 350.80 611.60 L 350.80 638.90 L 171.80 638.90 L 171.80 611.60 Z M 13.60 525.00 L 178.20 525.00 L 178.20 552.30 L 13.60 552.30 L 13.60 525.00 Z" fill="#142546" fill-rule="nonzero" node-id="35" stroke="none" target-height="277.2" target-width="421.1" target-x="13.6" target-y="525"></path></svg>