<?xml version="1.0" standalone="no"?><!DOCTYPE svg PUBLIC "-//W3C//DTD SVG 1.1//EN" "http://www.w3.org/Graphics/SVG/1.1/DTD/svg11.dtd"><svg height="183" node-id="1" sillyvg="true" template-height="183" template-width="337" version="1.1" viewBox="0 0 337 183" width="337" xmlns="http://www.w3.org/2000/svg" xmlns:xlink="http://www.w3.org/1999/xlink"><defs node-id="37"></defs><g node-id="108"><path d="M 248.50 88.40 L 248.20 95.60 L 247.30 102.50 L 246.00 109.20 L 244.10 115.70 L 241.70 122.00 L 238.80 128.00 L 235.60 133.80 L 231.80 139.30 L 227.70 144.50 L 223.20 149.30 L 218.40 153.80 L 213.20 158.00 L 207.70 161.70 L 201.90 164.90 L 195.90 167.80 L 189.60 170.20 L 183.10 172.10 L 176.40 173.40 L 169.50 174.30 L 162.30 174.60 L 155.20 174.30 L 148.30 173.40 L 141.60 172.10 L 135.10 170.20 L 128.70 167.80 L 122.70 164.90 L 116.90 161.70 L 111.40 158.00 L 106.20 153.80 L 101.40 149.30 L 96.90 144.50 L 92.80 139.30 L 89.10 133.80 L 85.80 128.00 L 83.00 122.00 L 80.60 115.70 L 78.70 109.20 L 77.30 102.50 L 76.50 95.60 L 76.20 88.40 L 76.50 81.30 L 77.30 74.40 L 78.70 67.70 L 80.60 61.20 L 83.00 54.90 L 85.80 48.80 L 89.10 43.00 L 92.80 37.60 L 96.90 32.30 L 101.40 27.50 L 106.20 23.00 L 111.40 18.90 L 116.90 15.20 L 122.70 11.90 L 128.70 9.10 L 135.10 6.70 L 141.60 4.80 L 148.30 3.40 L 155.20 2.60 L 162.30 2.30 L 169.50 2.60 L 176.40 3.40 L 183.10 4.80 L 189.60 6.70 L 195.90 9.10 L 201.90 11.90 L 207.70 15.20 L 213.20 18.90 L 218.40 23.00 L 223.20 27.50 L 227.70 32.30 L 231.80 37.60 L 235.60 43.00 L 238.80 48.80 L 241.70 54.90 L 244.10 61.20 L 246.00 67.70 L 247.30 74.40 L 248.20 81.30 L 248.50 88.40 Z" fill="#5880e7" fill-rule="nonzero" group-id="1" node-id="41" stroke="none" target-height="172.3" target-width="172.3" target-x="76.2" target-y="2.3"></path><path d="M 162.30 175.10 L 155.10 174.80 L 148.20 173.90 L 141.50 172.60 L 134.90 170.70 L 128.50 168.20 L 122.50 165.40 L 116.70 162.10 L 111.10 158.40 L 105.90 154.20 L 101.10 149.70 L 96.50 144.80 L 92.40 139.60 L 88.70 134.10 L 85.40 128.30 L 82.50 122.20 L 80.10 115.80 L 78.20 109.30 L 76.80 102.60 L 76.00 95.60 L 75.70 88.40 L 76.00 81.20 L 76.80 74.30 L 78.20 67.60 L 80.10 61.00 L 82.50 54.60 L 85.40 48.60 L 88.70 42.80 L 92.40 37.20 L 96.60 32.00 L 101.10 27.10 L 105.90 22.60 L 111.20 18.50 L 116.70 14.70 L 122.50 11.50 L 128.60 8.60 L 135.00 6.20 L 141.50 4.30 L 148.20 2.90 L 155.20 2.10 L 162.30 1.80 L 169.50 2.10 L 176.50 2.90 L 183.20 4.30 L 189.70 6.20 L 196.10 8.60 L 202.20 11.50 L 208.00 14.80 L 213.50 18.50 L 218.80 22.70 L 223.60 27.20 L 228.10 32.00 L 232.30 37.30 L 236.00 42.80 L 239.30 48.60 L 242.20 54.70 L 244.60 61.00 L 246.50 67.60 L 247.90 74.30 L 248.70 81.20 L 249.00 88.40 L 248.70 95.60 L 247.80 102.60 L 246.50 109.30 L 244.60 115.80 L 242.10 122.20 L 239.30 128.30 L 236.00 134.10 L 232.20 139.60 L 228.10 144.80 L 223.60 149.70 L 218.70 154.20 L 213.50 158.30 L 208.00 162.10 L 202.20 165.40 L 196.10 168.20 L 189.70 170.70 L 183.20 172.60 L 176.50 173.90 L 169.50 174.80 L 162.30 175.10 Z M 162.30 2.80 L 155.20 3.10 L 148.30 3.90 L 141.70 5.30 L 135.20 7.20 L 128.90 9.50 L 122.90 12.40 L 117.20 15.60 L 111.70 19.30 L 106.60 23.40 L 101.80 27.90 L 97.30 32.70 L 93.20 37.90 L 89.50 43.30 L 86.20 49.10 L 83.40 55.10 L 81.00 61.40 L 79.20 67.80 L 77.80 74.50 L 77.00 81.30 L 76.70 88.50 L 77.00 95.60 L 77.80 102.40 L 79.20 109.10 L 81.10 115.50 L 83.40 121.80 L 86.30 127.80 L 89.50 133.60 L 93.20 139.00 L 97.30 144.20 L 101.80 149.00 L 106.60 153.50 L 111.80 157.60 L 117.20 161.30 L 123.00 164.50 L 129.00 167.30 L 135.30 169.70 L 141.70 171.60 L 148.40 173.00 L 155.20 173.80 L 162.40 174.10 L 169.50 173.80 L 176.30 173.00 L 183.00 171.60 L 189.40 169.70 L 195.70 167.30 L 201.70 164.50 L 207.50 161.30 L 212.90 157.60 L 218.10 153.50 L 222.90 149.00 L 227.40 144.20 L 231.50 139.00 L 235.20 133.60 L 238.40 127.80 L 241.20 121.80 L 243.60 115.50 L 245.50 109.10 L 246.90 102.40 L 247.70 95.50 L 248.00 88.40 L 247.70 81.30 L 246.90 74.50 L 245.50 67.80 L 243.60 61.40 L 241.20 55.10 L 238.40 49.10 L 235.10 43.30 L 231.40 37.90 L 227.30 32.70 L 222.90 27.90 L 218.10 23.40 L 212.90 19.30 L 207.40 15.60 L 201.70 12.40 L 195.70 9.60 L 189.40 7.20 L 182.90 5.30 L 176.30 3.90 L 169.40 3.10 L 162.30 2.80 Z" fill="#000000" fill-rule="nonzero" group-id="1" node-id="43" stroke="none" target-height="173.3" target-width="173.3" target-x="75.7" target-y="1.8"></path><path d="M 152.20 1.50 L 157.50 7.60 L 152.60 10.60 L 148.40 12.50 L 144.00 13.80 L 139.50 14.70 L 134.90 15.00 L 130.20 14.80 L 130.80 7.00 Z" fill="#5880e7" fill-rule="nonzero" group-id="1" node-id="45" stroke="none" target-height="13.5" target-width="27.300003" target-x="130.2" target-y="1.5"></path><path d="M 134.50 15.50 L 129.70 15.30 L 130.30 6.70 L 152.40 0.90 L 158.30 7.70 L 153.50 10.70 L 146.20 13.70 L 138.50 15.30 L 134.50 15.50 Z M 130.70 14.30 L 135.30 14.50 L 139.70 14.10 L 144.10 13.30 L 148.40 11.90 L 152.50 10.10 L 156.80 7.50 L 152.00 2.00 L 131.30 7.40 Z" fill="#000000" fill-rule="nonzero" group-id="1" node-id="47" stroke="none" target-height="14.6" target-width="28.600006" target-x="129.7" target-y="0.9"></path><g node-id="109"><path d="M 152.50 1.60 L 152.40 2.20 L 151.70 3.00 L 149.80 4.20 L 146.50 5.60 L 142.40 6.90 L 138.30 7.70 L 134.60 8.10 L 132.40 7.90 L 131.40 7.60 L 131.00 7.10 L 131.10 6.50 L 131.90 5.70 L 133.70 4.50 L 137.10 3.10 L 141.10 1.80 L 145.30 1.00 L 148.90 0.60 L 151.10 0.70 L 152.10 1.10 L 152.50 1.60 Z" fill="#5880e7" fill-rule="nonzero" group-id="1,2" node-id="51" stroke="none" target-height="7.5000005" target-width="21.5" target-x="131" target-y="0.6"></path></g><path d="M 134.00 8.50 L 131.80 8.30 L 130.70 7.80 L 130.30 7.20 L 130.40 6.40 L 131.20 5.40 L 133.20 4.00 L 136.90 2.40 L 140.70 1.20 L 144.60 0.40 L 148.60 0.00 L 151.10 0.20 L 152.20 0.70 L 152.70 1.30 L 152.30 2.70 L 149.80 4.50 L 147.50 5.50 L 142.30 7.20 L 138.40 8.10 L 134.40 8.50 Z M 149.00 1.00 L 144.80 1.40 L 137.30 3.30 L 133.70 4.90 L 131.70 6.20 L 131.30 6.90 L 132.80 7.40 L 138.20 7.10 L 142.00 6.30 L 146.60 4.80 L 149.40 3.60 L 151.40 2.20 L 151.60 1.50 L 149.00 1.00 Z" fill="#000000" fill-rule="nonzero" group-id="1" node-id="54" stroke="none" target-height="8.5" target-width="22.399994" target-x="130.3" target-y="0"></path><path d="M 213.70 160.00 L 206.40 156.50 L 209.60 151.80 L 212.70 148.40 L 216.20 145.40 L 220.00 142.70 L 224.00 140.60 L 228.40 138.90 L 231.00 146.20 Z" fill="#5880e7" fill-rule="nonzero" group-id="1" node-id="56" stroke="none" target-height="21.100006" target-width="24.600006" target-x="206.4" target-y="138.9"></path><path d="M 213.80 160.60 L 205.60 156.80 L 209.20 151.60 L 212.30 148.10 L 215.90 145.00 L 219.70 142.40 L 223.80 140.20 L 228.70 138.30 L 231.60 146.40 Z M 207.10 156.40 L 213.60 159.50 L 230.40 146.10 L 228.10 139.60 L 223.90 141.20 L 220.00 143.40 L 216.30 146.00 L 212.90 148.90 L 209.90 152.30 L 207.30 156.00 Z" fill="#000000" fill-rule="nonzero" group-id="1" node-id="58" stroke="none" target-height="22.300003" target-width="26" target-x="205.6" target-y="138.3"></path><g node-id="110"><path d="M 231.00 146.20 L 231.20 146.80 L 230.80 147.90 L 229.60 149.70 L 227.20 152.40 L 224.00 155.20 L 220.50 157.60 L 217.40 159.40 L 215.30 160.20 L 214.20 160.30 L 213.70 160.00 L 213.60 159.40 L 213.90 158.40 L 215.10 156.60 L 217.50 153.90 L 220.70 151.10 L 224.20 148.60 L 227.30 146.80 L 229.40 146.00 L 230.50 146.00 L 231.00 146.20 Z" fill="#5880e7" fill-rule="nonzero" group-id="1,3" node-id="62" stroke="none" target-height="14.300003" target-width="17.59999" target-x="213.6" target-y="146"></path></g><path d="M 214.50 160.80 L 213.30 160.40 L 213.10 159.00 L 214.70 156.30 L 216.40 154.40 L 222.70 149.00 L 227.20 146.40 L 228.90 145.70 L 230.90 145.60 L 231.40 145.90 L 231.60 147.30 L 230.10 150.00 L 228.40 151.90 L 224.30 155.60 L 221.60 157.60 L 216.30 160.50 L 214.50 160.80 Z M 214.10 159.70 L 215.20 159.70 L 217.00 159.10 L 219.70 157.60 L 223.70 154.80 L 227.30 151.60 L 229.30 149.30 L 230.60 147.20 L 230.70 146.60 L 230.10 146.40 L 227.70 147.20 L 225.00 148.70 L 221.10 151.50 L 217.50 154.70 L 215.40 157.00 L 214.10 159.10 L 214.10 159.70 Z" fill="#000000" fill-rule="nonzero" group-id="1" node-id="65" stroke="none" target-height="15.199997" target-width="18.5" target-x="213.1" target-y="145.6"></path><path d="M 103.20 155.80 L 103.30 147.70 L 108.90 148.70 L 113.30 150.10 L 117.50 152.00 L 121.50 154.30 L 125.10 157.10 L 128.50 160.40 L 122.90 165.80 Z" fill="#5880e7" fill-rule="nonzero" group-id="1" node-id="67" stroke="none" target-height="18.100006" target-width="25.300003" target-x="103.2" target-y="147.7"></path><path d="M 123.00 166.40 L 102.70 156.10 L 102.80 147.10 L 109.00 148.20 L 113.40 149.60 L 117.70 151.50 L 121.70 153.90 L 125.40 156.80 L 129.20 160.40 Z M 103.70 155.50 L 122.80 165.20 L 127.80 160.40 L 124.50 157.30 L 120.90 154.60 L 117.10 152.30 L 113.00 150.50 L 108.70 149.20 L 103.80 148.30 Z" fill="#000000" fill-rule="nonzero" group-id="1" node-id="69" stroke="none" target-height="19.299988" target-width="26.5" target-x="102.7" target-y="147.1"></path><g node-id="111"><path d="M 114.20 158.50 L 116.90 159.90 L 120.90 162.80 L 122.90 165.10 L 122.90 165.80 L 122.30 166.20 L 121.00 166.30 L 117.00 165.30 L 114.60 164.40 L 107.00 160.30 L 103.90 157.70 L 103.20 156.50 L 103.20 155.80 L 103.70 155.40 L 106.80 155.60 L 111.50 157.20 L 114.20 158.50 Z" fill="#5880e7" fill-rule="nonzero" group-id="1,4" node-id="73" stroke="none" target-height="10.900009" target-width="19.700005" target-x="103.2" target-y="155.4"></path></g><path d="M 121.50 166.80 L 119.60 166.60 L 114.40 164.90 L 108.10 161.60 L 104.90 159.30 L 103.20 157.60 L 102.60 156.40 L 102.70 155.60 L 103.90 154.90 L 107.00 155.10 L 109.40 155.90 L 114.40 158.10 L 119.20 160.80 L 121.20 162.40 L 123.20 164.70 L 123.40 166.10 L 122.70 166.60 L 121.50 166.80 Z M 103.60 156.00 L 103.90 156.80 L 105.50 158.50 L 108.70 160.80 L 112.10 162.70 L 116.50 164.60 L 119.40 165.50 L 121.80 165.80 L 122.50 165.60 L 122.00 164.50 L 120.70 163.20 L 118.20 161.30 L 114.00 158.90 L 109.60 156.90 L 106.60 156.00 L 104.20 155.80 L 103.60 156.00 Z" fill="#000000" fill-rule="nonzero" group-id="1" node-id="76" stroke="none" target-height="11.900009" target-width="20.800003" target-x="102.6" target-y="154.9"></path><path d="M 128.10 79.20 L 127.30 83.60 L 126.30 85.60 L 123.60 88.90 L 119.80 91.10 L 115.30 91.90 L 110.90 91.10 L 107.10 88.90 L 104.30 85.60 L 103.40 83.60 L 102.60 79.20 L 103.40 74.70 L 105.60 70.90 L 108.90 68.20 L 110.90 67.20 L 115.30 66.40 L 119.80 67.20 L 121.80 68.20 L 125.10 70.90 L 127.30 74.70 L 128.10 79.20 Z" fill="#5880e7" fill-rule="nonzero" group-id="1" node-id="78" stroke="none" target-height="25.5" target-width="25.500008" target-x="102.6" target-y="66.4"></path><path d="M 115.30 92.40 L 112.70 92.10 L 110.20 91.40 L 108.00 90.20 L 106.00 88.60 L 104.40 86.60 L 103.10 84.20 L 102.30 81.70 L 102.10 79.10 L 102.30 76.60 L 103.10 74.10 L 104.30 71.90 L 106.00 69.80 L 108.00 68.10 L 110.30 66.90 L 112.70 66.20 L 115.30 65.90 L 117.80 66.20 L 120.40 66.90 L 122.80 68.20 L 124.70 69.80 L 126.40 71.80 L 127.60 74.10 L 128.30 76.50 L 128.60 79.20 L 128.40 81.60 L 127.70 83.80 L 126.80 85.80 L 123.90 89.30 L 120.00 91.60 L 117.80 92.20 L 115.30 92.40 Z M 115.30 66.90 L 112.90 67.20 L 110.60 67.90 L 108.50 69.00 L 106.70 70.50 L 105.20 72.30 L 104.00 74.50 L 103.30 76.80 L 103.10 79.20 L 103.30 81.60 L 104.00 83.80 L 105.10 85.90 L 106.70 87.80 L 108.60 89.40 L 110.70 90.50 L 112.90 91.20 L 115.30 91.40 L 117.60 91.20 L 120.00 90.50 L 122.20 89.30 L 124.00 87.80 L 125.50 86.00 L 126.60 83.90 L 127.30 81.60 L 127.60 79.20 L 126.80 74.90 L 125.90 73.00 L 123.20 69.80 L 119.60 67.70 L 115.30 66.90 Z" fill="#000000" fill-rule="nonzero" group-id="1" node-id="80" stroke="none" target-height="26.5" target-width="26.500008" target-x="102.1" target-y="65.9"></path><path d="M 123.10 77.30 L 122.40 81.10 L 120.60 84.30 L 117.70 86.70 L 116.00 87.50 L 112.20 88.20 L 108.40 87.50 L 106.70 86.70 L 103.90 84.30 L 102.00 81.10 L 101.30 77.30 L 102.00 73.50 L 103.90 70.30 L 106.70 67.90 L 108.40 67.10 L 112.20 66.40 L 116.00 67.10 L 117.70 67.90 L 120.60 70.30 L 122.40 73.50 L 123.10 77.30 Z" fill="#5880e7" fill-rule="nonzero" group-id="1" node-id="82" stroke="none" target-height="21.799995" target-width="21.799995" target-x="101.3" target-y="66.4"></path><path d="M 112.20 88.70 L 109.90 88.50 L 107.80 87.80 L 105.90 86.80 L 104.20 85.40 L 102.80 83.70 L 101.70 81.70 L 101.00 79.50 L 100.80 77.30 L 101.00 75.10 L 101.70 73.00 L 102.70 71.00 L 104.20 69.30 L 105.90 67.80 L 107.90 66.80 L 110.00 66.10 L 112.20 65.90 L 114.40 66.10 L 116.60 66.80 L 118.60 67.90 L 120.30 69.30 L 121.70 71.00 L 122.70 72.90 L 123.40 75.00 L 123.60 77.30 L 122.90 81.30 L 120.90 84.70 L 118.00 87.10 L 116.20 88.00 L 112.20 88.70 Z M 112.20 66.90 L 108.60 67.60 L 105.50 69.40 L 103.30 72.10 L 102.50 73.70 L 101.80 77.30 L 102.50 80.90 L 104.30 84.00 L 107.00 86.30 L 110.30 87.50 L 114.10 87.50 L 115.90 87.00 L 118.90 85.20 L 121.20 82.60 L 122.00 80.90 L 122.60 77.30 L 122.00 73.70 L 121.20 72.10 L 118.90 69.40 L 115.90 67.60 L 112.20 66.90 Z" fill="#000000" fill-rule="nonzero" group-id="1" node-id="84" stroke="none" target-height="22.799995" target-width="22.799995" target-x="100.8" target-y="65.9"></path><path d="M 177.70 135.20 L 176.90 139.70 L 174.70 143.40 L 171.40 146.20 L 169.40 147.20 L 164.90 148.00 L 160.50 147.20 L 156.70 145.00 L 153.90 141.70 L 152.40 137.50 L 152.20 135.20 L 152.40 132.90 L 153.00 130.80 L 155.20 127.00 L 158.50 124.20 L 160.50 123.30 L 164.90 122.50 L 169.40 123.30 L 171.40 124.20 L 174.70 127.00 L 176.90 130.80 L 177.70 135.20 Z" fill="#5880e7" fill-rule="nonzero" group-id="1" node-id="86" stroke="none" target-height="25.5" target-width="25.5" target-x="152.2" target-y="122.5"></path><path d="M 164.90 148.50 L 162.50 148.20 L 160.30 147.60 L 156.40 145.30 L 153.50 141.90 L 152.50 139.90 L 151.90 137.60 L 151.70 135.20 L 151.90 132.80 L 152.50 130.60 L 154.80 126.70 L 158.30 123.80 L 160.30 122.80 L 162.50 122.20 L 164.90 122.00 L 167.40 122.20 L 169.60 122.80 L 173.50 125.10 L 176.40 128.50 L 177.40 130.60 L 178.00 132.80 L 178.20 135.20 L 178.00 137.60 L 177.30 139.80 L 176.40 141.90 L 173.50 145.30 L 169.60 147.60 L 167.40 148.20 L 164.90 148.50 Z M 164.90 123.00 L 162.50 123.20 L 160.20 123.90 L 158.10 125.00 L 156.30 126.50 L 154.80 128.40 L 153.60 130.50 L 152.90 132.90 L 152.70 135.20 L 152.90 137.60 L 153.60 139.90 L 154.70 142.00 L 156.30 143.90 L 158.20 145.40 L 160.30 146.50 L 162.50 147.20 L 164.90 147.50 L 167.20 147.20 L 169.60 146.50 L 171.80 145.40 L 173.60 143.90 L 175.10 142.00 L 176.20 139.90 L 176.90 137.70 L 177.20 135.20 L 176.40 130.90 L 174.30 127.30 L 171.10 124.70 L 167.20 123.20 L 164.90 123.00 Z" fill="#000000" fill-rule="nonzero" group-id="1" node-id="88" stroke="none" target-height="26.5" target-width="26.5" target-x="151.7" target-y="122"></path><path d="M 175.80 137.10 L 175.10 140.90 L 174.30 142.60 L 172.00 145.40 L 168.70 147.30 L 164.90 148.00 L 161.10 147.30 L 157.90 145.40 L 155.50 142.60 L 154.70 140.90 L 154.10 137.10 L 154.70 133.30 L 156.60 130.00 L 159.40 127.70 L 161.10 126.90 L 164.90 126.20 L 168.70 126.90 L 172.00 128.70 L 174.30 131.60 L 175.10 133.30 L 175.80 137.10 Z" fill="#5880e7" fill-rule="nonzero" group-id="1" node-id="90" stroke="none" target-height="21.800003" target-width="21.699997" target-x="154.1" target-y="126.2"></path><path d="M 164.90 148.50 L 162.70 148.20 L 160.60 147.60 L 158.60 146.50 L 156.90 145.10 L 155.50 143.50 L 154.40 141.40 L 153.80 139.20 L 153.50 137.10 L 153.80 134.90 L 154.40 132.70 L 155.40 130.80 L 156.90 129.00 L 158.70 127.60 L 160.60 126.50 L 162.70 125.90 L 164.90 125.70 L 167.10 125.90 L 169.30 126.50 L 171.30 127.60 L 173.00 129.00 L 174.40 130.70 L 175.40 132.70 L 176.10 134.80 L 176.30 137.10 L 175.60 141.10 L 173.60 144.40 L 170.70 146.90 L 168.90 147.70 L 164.90 148.50 Z M 164.90 126.70 L 160.90 127.50 L 157.60 129.70 L 155.30 133.10 L 154.50 137.10 L 155.30 141.00 L 157.60 144.40 L 161.00 146.70 L 164.90 147.50 L 168.90 146.70 L 172.30 144.40 L 174.50 141.10 L 175.30 137.10 L 174.70 133.40 L 172.90 130.40 L 170.20 128.10 L 168.60 127.30 L 164.90 126.70 Z" fill="#000000" fill-rule="nonzero" group-id="1" node-id="92" stroke="none" target-height="22.800003" target-width="22.800003" target-x="153.5" target-y="125.7"></path><path d="M 225.40 46.90 L 224.60 51.40 L 222.30 55.20 L 219.00 58.00 L 217.00 59.00 L 212.50 59.80 L 208.00 59.00 L 204.20 56.70 L 201.40 53.40 L 199.90 49.30 L 199.70 46.90 L 199.90 44.60 L 200.50 42.40 L 202.70 38.60 L 206.00 35.80 L 208.00 34.90 L 212.50 34.10 L 217.00 34.90 L 219.00 35.80 L 222.30 38.60 L 224.60 42.40 L 225.40 46.90 Z" fill="#5880e7" fill-rule="nonzero" group-id="1" node-id="94" stroke="none" target-height="25.7" target-width="25.699997" target-x="199.7" target-y="34.1"></path><path d="M 212.50 60.30 L 210.10 60.00 L 207.90 59.40 L 203.90 57.10 L 201.00 53.70 L 200.00 51.60 L 199.40 49.40 L 199.20 46.90 L 199.40 44.50 L 200.00 42.30 L 202.30 38.30 L 205.80 35.40 L 207.90 34.40 L 210.10 33.80 L 212.50 33.60 L 215.00 33.80 L 217.20 34.40 L 221.10 36.70 L 224.00 40.20 L 225.00 42.30 L 225.60 44.50 L 225.90 46.90 L 225.60 49.40 L 225.00 51.60 L 224.00 53.70 L 221.10 57.10 L 217.20 59.40 L 215.00 60.00 L 212.50 60.30 Z M 212.50 34.60 L 208.20 35.40 L 204.60 37.50 L 201.90 40.70 L 201.00 42.60 L 200.20 46.90 L 201.00 51.20 L 203.10 54.90 L 206.30 57.60 L 210.30 59.10 L 212.50 59.30 L 214.80 59.10 L 216.80 58.50 L 220.50 56.30 L 223.20 53.10 L 224.10 51.20 L 224.90 46.90 L 224.10 42.60 L 222.00 39.00 L 218.80 36.30 L 216.80 35.40 L 212.50 34.60 Z" fill="#000000" fill-rule="nonzero" group-id="1" node-id="96" stroke="none" target-height="26.7" target-width="26.699997" target-x="199.2" target-y="33.6"></path><path d="M 226.40 46.90 L 225.70 50.80 L 223.80 54.00 L 221.00 56.40 L 219.30 57.20 L 215.50 57.90 L 211.60 57.20 L 208.40 55.30 L 206.00 52.50 L 204.70 48.90 L 204.70 44.90 L 205.20 43.10 L 207.10 39.80 L 209.90 37.40 L 211.60 36.60 L 215.50 35.90 L 219.30 36.60 L 222.50 38.50 L 224.90 41.40 L 225.70 43.10 L 226.40 46.90 Z" fill="#5880e7" fill-rule="nonzero" group-id="1" node-id="98" stroke="none" target-height="22" target-width="21.699997" target-x="204.7" target-y="35.9"></path><path d="M 215.50 58.40 L 213.20 58.20 L 211.00 57.50 L 209.10 56.50 L 207.40 55.10 L 206.00 53.40 L 204.90 51.30 L 204.20 49.10 L 204.00 46.90 L 204.20 44.70 L 204.80 42.60 L 205.90 40.60 L 207.30 38.80 L 209.10 37.40 L 211.10 36.30 L 213.20 35.70 L 215.40 35.40 L 217.60 35.70 L 219.80 36.30 L 221.90 37.40 L 223.60 38.80 L 225.00 40.50 L 226.00 42.50 L 226.70 44.60 L 226.90 46.90 L 226.20 50.90 L 224.20 54.30 L 221.20 56.80 L 219.50 57.70 L 215.50 58.40 Z M 215.50 36.50 L 211.80 37.10 L 208.70 38.90 L 206.40 41.60 L 205.60 43.30 L 205.00 46.90 L 205.60 50.60 L 207.50 53.70 L 210.20 56.00 L 213.50 57.20 L 217.40 57.20 L 219.10 56.70 L 222.20 54.90 L 224.50 52.20 L 225.30 50.60 L 225.90 46.90 L 225.30 43.30 L 223.50 40.20 L 220.70 37.90 L 219.10 37.10 L 215.50 36.50 Z" fill="#000000" fill-rule="nonzero" group-id="1" node-id="100" stroke="none" target-height="23" target-width="22.899994" target-x="204" target-y="35.4"></path><path d="M 336.30 23.40 L 335.40 22.10 L 334.10 21.00 L 332.20 20.00 L 329.60 19.30 L 326.10 18.80 L 320.60 18.60 L 313.50 19.10 L 304.30 20.40 L 284.90 24.70 L 273.00 27.90 L 248.20 35.70 L 234.00 40.60 L 235.70 43.30 L 243.70 41.50 L 250.10 40.50 L 254.30 40.10 L 260.10 40.30 L 262.50 41.00 L 264.00 41.90 L 264.80 43.00 L 265.10 44.30 L 264.80 46.10 L 263.70 48.30 L 260.00 52.90 L 251.90 60.10 L 245.30 65.10 L 236.30 71.20 L 225.40 78.00 L 213.60 84.70 L 200.30 91.90 L 186.40 99.00 L 171.30 106.10 L 155.60 113.10 L 140.80 119.20 L 126.40 124.70 L 113.40 129.20 L 100.90 133.10 L 90.40 135.90 L 82.40 137.60 L 76.00 138.50 L 71.20 138.80 L 67.30 138.60 L 64.80 138.00 L 63.30 137.00 L 62.40 135.90 L 62.10 134.50 L 62.40 132.70 L 63.50 130.40 L 65.80 127.40 L 69.20 124.00 L 73.90 119.80 L 80.40 114.90 L 79.40 111.70 L 66.60 119.20 L 44.90 132.80 L 34.80 139.60 L 19.20 151.50 L 12.30 157.40 L 7.40 162.50 L 4.00 166.70 L 2.10 169.60 L 1.00 172.00 L 0.60 174.10 L 0.60 175.80 L 1.00 177.30 L 1.90 178.70 L 3.30 179.80 L 5.30 180.80 L 8.10 181.60 L 11.90 182.00 L 16.20 182.10 L 27.70 181.10 L 35.30 179.90 L 56.20 175.10 L 81.70 167.50 L 110.70 157.40 L 144.90 143.90 L 181.30 128.00 L 216.40 111.20 L 248.30 94.40 L 275.20 78.80 L 298.00 64.20 L 315.50 51.40 L 321.50 46.40 L 329.90 38.20 L 332.70 34.90 L 334.80 31.70 L 336.10 29.00 L 336.70 26.90 L 336.70 25.00 L 336.30 23.40 Z" fill="#ffc013" fill-rule="nonzero" group-id="1" node-id="102" stroke="none" target-height="163.5" target-width="336.1" target-x="0.6" target-y="18.6"></path><path d="M 15.20 182.60 L 11.20 182.50 L 5.40 181.40 L 3.10 180.30 L 1.50 179.00 L 0.50 177.50 L 0.10 176.00 L 0.00 174.30 L 0.50 172.30 L 1.50 169.90 L 5.60 164.00 L 8.70 160.50 L 18.00 151.80 L 33.50 140.00 L 54.00 126.30 L 79.70 111.00 L 80.90 115.10 L 74.20 120.20 L 69.50 124.30 L 66.20 127.70 L 64.00 130.60 L 62.90 132.80 L 62.60 134.40 L 62.80 135.70 L 63.60 136.70 L 65.10 137.50 L 67.50 138.10 L 71.20 138.30 L 76.00 138.00 L 82.20 137.10 L 90.30 135.40 L 101.10 132.50 L 113.90 128.50 L 127.00 123.90 L 141.30 118.40 L 155.90 112.40 L 171.00 105.70 L 199.40 91.80 L 212.70 84.70 L 224.50 77.90 L 235.70 71.00 L 245.00 64.70 L 251.90 59.50 L 257.00 55.10 L 260.60 51.60 L 263.00 48.50 L 264.20 46.20 L 264.60 44.50 L 264.40 43.20 L 263.50 42.20 L 262.00 41.30 L 259.50 40.70 L 255.60 40.60 L 250.70 40.90 L 244.20 41.90 L 235.50 43.80 L 233.20 40.40 L 261.90 30.70 L 286.10 23.90 L 305.40 19.80 L 318.20 18.30 L 322.90 18.20 L 330.20 18.90 L 332.70 19.70 L 334.50 20.70 L 335.80 21.90 L 336.70 23.20 L 337.20 24.80 L 337.20 26.60 L 336.70 28.80 L 335.50 31.40 L 333.50 34.50 L 330.90 37.80 L 322.80 45.90 L 316.90 50.90 L 309.10 57.00 L 299.60 63.70 L 276.50 78.60 L 248.50 94.80 L 216.00 111.80 L 181.50 128.40 L 145.60 144.10 L 110.80 157.80 L 82.80 167.60 L 58.50 175.00 L 38.40 179.80 L 29.00 181.50 L 21.30 182.40 L 15.20 182.60 Z M 79.10 112.50 L 66.20 120.00 L 44.50 133.60 L 34.50 140.50 L 19.20 152.10 L 12.50 158.00 L 7.70 162.90 L 4.40 167.00 L 2.60 169.80 L 1.50 172.20 L 1.00 174.10 L 1.00 175.70 L 1.40 177.10 L 2.30 178.40 L 3.60 179.50 L 5.50 180.40 L 8.20 181.10 L 16.00 181.70 L 27.30 180.70 L 44.20 177.50 L 55.30 174.80 L 68.20 171.20 L 95.00 162.50 L 127.60 150.40 L 145.20 143.20 L 181.10 127.50 L 215.60 111.00 L 232.20 102.40 L 262.50 85.70 L 287.00 70.90 L 298.30 63.40 L 307.80 56.70 L 321.50 45.80 L 329.70 37.80 L 334.40 31.50 L 335.60 29.00 L 336.20 26.90 L 336.20 25.10 L 335.80 23.60 L 335.00 22.40 L 333.70 21.40 L 332.00 20.50 L 329.50 19.70 L 326.10 19.30 L 320.80 19.10 L 313.80 19.60 L 304.90 20.90 L 285.80 25.00 L 273.90 28.20 L 249.10 35.90 L 234.80 40.90 L 236.00 42.70 L 250.00 40.00 L 258.30 39.60 L 261.40 40.10 L 263.20 40.70 L 264.50 41.60 L 265.30 42.80 L 265.60 44.10 L 265.50 45.70 L 264.70 47.50 L 263.00 50.20 L 257.10 56.40 L 249.50 62.70 L 236.30 71.80 L 225.10 78.70 L 213.20 85.60 L 199.90 92.70 L 186.10 99.60 L 156.30 113.30 L 141.70 119.30 L 127.30 124.80 L 114.20 129.50 L 101.40 133.40 L 90.60 136.30 L 81.50 138.20 L 72.80 139.20 L 68.80 139.20 L 65.80 138.70 L 64.00 138.10 L 62.70 137.20 L 61.90 136.10 L 61.60 134.70 L 61.70 133.20 L 62.40 131.50 L 63.90 128.90 L 69.30 123.20 L 79.80 114.70 L 79.10 112.50 Z" fill="#000000" fill-rule="nonzero" group-id="1" node-id="104" stroke="none" target-height="164.40001" target-width="337.2" target-x="0" target-y="18.2"></path><path d="M 15.00 171.70 L 13.10 171.70 L 20.00 164.40 L 25.30 159.90 L 32.80 153.90 L 41.40 147.70 L 52.70 140.00 L 54.20 142.50 L 55.80 144.50 L 57.80 146.10 L 60.30 147.40 L 63.20 148.40 L 66.70 149.00 L 70.90 149.20 L 76.50 148.90 L 83.70 147.90 L 92.90 146.00 L 104.00 143.10 L 117.10 139.00 L 130.60 134.30 L 145.30 128.60 L 160.10 122.50 L 175.60 115.60 L 190.50 108.50 L 204.60 101.50 L 218.10 94.20 L 230.30 87.20 L 241.80 80.00 L 256.80 69.60 L 261.90 65.50 L 266.60 61.10 L 270.40 56.80 L 272.60 53.80 L 274.10 50.80 L 275.20 47.80 L 275.60 45.50 L 275.20 41.00 L 274.20 38.40 L 284.70 35.50 L 302.10 31.40 L 310.30 30.00 L 316.90 29.20 L 324.10 29.00 L 321.50 32.00 L 317.30 36.10 L 304.10 46.90 L 284.30 60.70 L 273.00 67.90 L 243.20 85.20 L 227.60 93.60 L 211.10 102.00 L 176.90 118.50 L 159.00 126.50 L 123.90 141.10 L 107.00 147.60 L 77.90 157.70 L 52.10 165.30 L 40.50 168.10 L 24.50 171.00 L 15.00 171.70 Z" fill="#ffa515" fill-rule="nonzero" group-id="1" node-id="106" stroke="none" target-height="142.7" target-width="311" target-x="13.1" target-y="29"></path></g></svg>