<?xml version="1.0" standalone="no"?><!DOCTYPE svg PUBLIC "-//W3C//DTD SVG 1.1//EN" "http://www.w3.org/Graphics/SVG/1.1/DTD/svg11.dtd"><svg height="1024" node-id="1" sillyvg="true" template-height="1024" template-width="1024" version="1.1" viewBox="0 0 1024 1024" width="1024" xmlns="http://www.w3.org/2000/svg" xmlns:xlink="http://www.w3.org/1999/xlink"><defs node-id="46"></defs><path d="M 0.00 0.00 L 1024.00 0.00 L 1024.00 1024.00 L 0.00 1024.00 Z" fill="#a2b029" fill-rule="nonzero" hidden="true" node-id="48" stroke="none" target-height="1024" target-width="1024" target-x="0" target-y="0" visibility="hidden"></path><path d="M 389.70 84.00 L 408.80 80.40 L 428.00 77.40 L 447.30 75.10 L 466.70 73.40 L 482.20 72.50 L 497.80 72.10 L 513.30 72.00 L 528.90 72.40 L 544.40 73.20 L 560.00 74.40 L 575.40 76.10 L 590.80 78.20 L 606.10 80.70 L 621.40 83.70 L 636.60 87.10 L 651.60 90.90 L 666.60 95.20 L 681.40 100.00 L 696.00 105.20 L 707.80 110.00 L 719.30 115.20 L 730.50 121.00 L 741.30 127.30 L 751.90 134.10 L 762.20 141.20 L 772.20 148.80 L 782.00 156.70 L 800.80 173.60 L 809.80 182.40 L 818.60 191.50 L 829.90 204.00 L 840.90 216.70 L 851.50 229.60 L 858.30 239.50 L 864.80 249.70 L 870.80 260.20 L 875.00 268.30 L 878.90 276.40 L 885.50 293.20 L 888.30 301.80 L 890.60 310.60 L 892.50 319.40 L 893.90 328.40 L 895.50 343.00 L 896.50 357.60 L 897.00 372.20 L 897.20 394.10 L 895.40 460.00 L 890.90 522.60 L 888.80 543.50 L 887.00 557.30 L 884.90 571.10 L 882.30 584.70 L 879.20 598.30 L 875.60 611.80 L 871.30 625.10 L 896.70 646.90 L 918.50 668.00 L 944.60 695.50 L 959.80 712.50 L 965.50 719.60 L 970.00 727.60 L 972.30 733.20 L 974.00 739.10 L 975.10 745.10 L 975.70 751.20 L 975.60 757.20 L 974.90 763.30 L 972.70 772.10 L 969.00 780.50 L 964.10 785.70 L 958.90 790.70 L 947.60 799.60 L 935.50 807.40 L 926.00 812.60 L 916.20 817.30 L 904.70 822.30 L 893.10 827.00 L 869.40 835.20 L 853.40 840.00 L 837.30 844.40 L 804.60 851.80 L 771.80 857.90 L 766.70 865.90 L 761.20 873.70 L 755.40 881.20 L 749.10 888.40 L 742.50 895.20 L 735.60 901.60 L 728.30 907.60 L 720.60 913.00 L 712.50 918.00 L 706.30 921.30 L 699.80 924.20 L 693.10 926.80 L 686.20 929.00 L 676.70 931.80 L 667.00 934.10 L 657.20 935.90 L 647.20 937.20 L 637.20 938.00 L 627.20 938.30 L 617.30 938.10 L 607.30 937.30 L 597.40 936.00 L 587.60 934.20 L 577.90 931.80 L 554.00 924.20 L 546.80 922.50 L 539.40 921.30 L 529.50 920.30 L 519.50 919.90 L 509.50 920.10 L 499.50 920.90 L 489.50 922.20 L 479.60 924.10 L 469.80 926.30 L 441.50 934.50 L 432.20 936.50 L 422.80 938.00 L 413.40 939.00 L 403.90 939.50 L 394.40 939.50 L 384.90 939.10 L 375.40 938.20 L 366.00 936.80 L 356.60 935.10 L 347.40 932.90 L 338.20 930.20 L 329.20 927.20 L 320.30 923.70 L 311.60 919.90 L 303.10 915.60 L 295.40 909.30 L 288.20 902.60 L 281.40 895.40 L 268.90 880.10 L 259.40 866.70 L 255.00 862.70 L 251.60 860.70 L 247.90 859.00 L 244.00 857.60 L 238.00 856.10 L 205.50 849.60 L 191.40 846.30 L 177.50 842.60 L 163.60 838.50 L 149.90 834.00 L 136.20 829.20 L 122.80 823.90 L 109.60 818.10 L 96.50 812.00 L 83.60 805.50 L 67.80 793.50 L 59.70 786.00 L 54.20 779.30 L 51.90 775.60 L 49.90 771.70 L 48.30 767.50 L 47.40 762.80 L 47.00 758.10 L 47.10 753.50 L 48.40 744.20 L 51.20 735.40 L 53.10 731.10 L 56.20 725.60 L 59.70 720.40 L 63.70 715.60 L 82.00 695.60 L 100.70 676.00 L 113.50 663.20 L 144.70 633.90 L 149.20 628.70 L 151.00 624.90 L 151.40 622.90 L 151.30 620.90 L 145.30 605.00 L 141.70 593.50 L 138.90 581.90 L 136.50 570.10 L 134.50 558.30 L 133.00 546.40 L 131.30 528.40 L 130.10 510.40 L 127.40 456.20 L 126.10 438.30 L 124.30 403.00 L 123.80 385.30 L 123.90 367.60 L 124.30 355.80 L 125.30 344.10 L 126.80 332.40 L 128.30 323.80 L 130.10 315.20 L 132.40 306.60 L 135.10 298.10 L 138.40 289.40 L 142.00 280.90 L 146.10 272.60 L 150.50 264.50 L 156.80 254.00 L 163.60 243.60 L 170.70 233.60 L 182.00 218.80 L 193.60 204.50 L 203.20 193.40 L 213.20 182.70 L 223.60 172.40 L 234.50 162.50 L 245.70 153.10 L 257.30 144.10 L 269.30 135.70 L 281.60 127.70 L 294.20 120.20 L 307.10 113.30 L 320.20 106.90 L 333.70 101.10 L 344.60 96.90 L 355.70 93.00 L 366.90 89.60 L 378.20 86.60 L 389.70 84.00 Z M 357.30 142.60 L 346.60 146.90 L 336.30 151.60 L 326.10 156.70 L 316.30 162.30 L 306.60 168.30 L 297.20 174.60 L 288.00 181.30 L 279.10 188.30 L 267.50 198.20 L 256.40 208.50 L 245.70 219.30 L 235.40 230.50 L 225.60 242.00 L 210.10 261.30 L 204.50 268.90 L 199.30 276.80 L 194.40 285.00 L 189.90 293.40 L 185.90 302.00 L 182.30 310.70 L 179.10 319.60 L 176.40 328.70 L 174.20 337.90 L 172.50 347.20 L 171.30 356.60 L 170.60 366.00 L 170.50 375.50 L 170.90 385.00 L 173.50 416.60 L 177.70 482.70 L 181.40 526.70 L 184.90 555.90 L 187.10 570.50 L 188.70 578.50 L 190.90 586.30 L 193.70 593.90 L 196.90 601.40 L 200.50 608.60 L 204.50 615.70 L 208.90 622.60 L 218.60 635.70 L 204.30 646.60 L 190.40 657.90 L 176.80 669.50 L 163.40 681.40 L 150.40 693.70 L 137.70 706.30 L 125.30 719.20 L 103.80 743.00 L 101.70 745.90 L 100.20 748.90 L 99.10 753.30 L 99.00 755.80 L 107.60 761.50 L 116.30 766.80 L 125.20 771.60 L 134.20 776.10 L 146.60 781.60 L 159.10 786.60 L 171.90 791.00 L 184.90 794.90 L 198.00 798.50 L 211.30 801.60 L 231.30 805.80 L 251.50 809.40 L 291.50 815.70 L 292.90 822.50 L 294.60 828.80 L 296.90 834.90 L 299.50 840.70 L 302.70 846.30 L 306.20 851.50 L 310.10 856.50 L 314.30 861.10 L 318.90 865.50 L 323.80 869.60 L 328.90 873.30 L 339.90 879.90 L 351.70 885.10 L 357.80 887.30 L 366.20 889.60 L 374.70 891.30 L 383.30 892.30 L 389.80 892.70 L 402.70 892.40 L 415.50 890.60 L 421.70 889.10 L 427.80 887.20 L 433.70 885.00 L 446.30 882.30 L 471.80 877.80 L 484.60 876.10 L 497.50 874.80 L 510.40 874.00 L 523.30 873.70 L 536.20 874.10 L 549.00 875.10 L 558.60 876.30 L 568.10 877.90 L 577.60 880.00 L 587.00 882.50 L 594.20 885.30 L 601.60 887.60 L 609.00 889.20 L 616.60 890.40 L 624.20 891.10 L 631.90 891.20 L 639.50 890.90 L 647.20 890.10 L 654.90 888.80 L 662.40 887.20 L 669.80 885.00 L 677.10 882.50 L 684.30 879.50 L 691.20 876.20 L 697.90 872.40 L 704.30 868.30 L 708.70 865.00 L 712.60 861.40 L 716.10 857.50 L 719.30 853.30 L 724.70 844.20 L 728.10 836.90 L 730.90 829.40 L 735.50 814.10 L 760.70 810.50 L 786.00 806.40 L 802.90 803.20 L 819.50 799.50 L 836.10 795.30 L 848.40 791.70 L 860.60 787.80 L 872.60 783.50 L 884.40 778.70 L 896.10 773.50 L 907.50 767.80 L 918.70 761.60 L 929.60 754.80 L 920.90 743.40 L 911.80 732.30 L 902.40 721.50 L 892.60 711.00 L 879.10 697.50 L 865.20 684.50 L 850.80 671.80 L 836.10 659.60 L 806.10 636.10 L 810.40 631.20 L 818.10 621.00 L 821.50 615.60 L 825.50 608.10 L 829.00 600.50 L 832.10 592.60 L 834.60 584.50 L 836.80 576.30 L 838.60 567.90 L 841.00 551.00 L 848.80 446.70 L 850.10 422.80 L 851.00 398.80 L 851.10 366.80 L 850.70 350.80 L 849.30 341.10 L 847.30 331.70 L 844.90 322.40 L 841.90 313.40 L 838.40 304.60 L 834.60 295.90 L 830.30 287.40 L 825.60 279.00 L 818.80 268.20 L 811.50 257.80 L 803.60 247.60 L 795.30 237.70 L 786.70 228.10 L 777.70 218.90 L 759.20 201.20 L 749.80 192.90 L 740.40 185.40 L 730.80 178.40 L 720.90 171.90 L 710.70 165.80 L 700.30 160.20 L 689.60 155.00 L 678.80 150.20 L 667.70 145.80 L 656.50 141.80 L 633.70 134.90 L 622.10 132.00 L 606.60 128.60 L 591.00 125.80 L 560.80 121.60 L 546.20 120.20 L 531.50 119.20 L 516.80 118.60 L 502.00 118.40 L 487.20 118.70 L 472.50 119.50 L 457.80 120.70 L 443.20 122.40 L 428.60 124.60 L 414.10 127.20 L 399.70 130.30 L 385.40 133.90 L 371.30 138.00 L 357.30 142.60 Z" fill="#fefefc" fill-rule="nonzero" hidden="true" node-id="50" stroke="none" target-height="867.5" target-width="928.7" target-x="47" target-y="72" visibility="hidden"></path><path d="M 568.80 536.70 L 573.80 526.50 L 579.30 516.70 L 585.30 507.30 L 591.70 498.20 L 598.60 489.50 L 605.90 481.20 L 613.60 473.20 L 621.70 465.60 L 630.20 458.30 L 638.90 451.50 L 647.90 444.90 L 657.30 438.80 L 666.90 433.00 L 676.70 427.50 L 686.60 422.50 L 707.20 413.40 L 717.60 409.50 L 738.80 402.70 L 744.90 427.50 L 747.50 440.10 L 749.50 452.80 L 750.40 461.20 L 750.80 469.70 L 750.90 478.20 L 750.30 486.70 L 749.20 495.10 L 746.10 510.70 L 744.20 517.70 L 741.70 524.60 L 738.80 531.30 L 735.30 537.70 L 731.30 543.90 L 728.00 548.20 L 724.50 552.30 L 716.60 559.70 L 712.20 562.90 L 707.60 565.80 L 702.70 568.20 L 697.60 570.40 L 690.80 572.60 L 684.00 574.30 L 677.10 575.60 L 670.20 576.30 L 663.20 576.70 L 656.30 576.50 L 649.30 576.00 L 642.40 575.00 L 628.80 571.90 L 622.10 569.80 L 615.50 567.30 L 606.90 563.50 L 598.60 559.10 L 590.50 554.20 L 582.90 548.80 L 575.60 542.90 L 568.80 536.70 Z" fill="#fefefc" fill-rule="nonzero" node-id="52" stroke="none" target-height="174" target-width="182.10004" target-x="568.8" target-y="402.7"></path><path d="M 74.00 802.10 L 83.60 805.50 L 96.50 812.00 L 109.60 818.10 L 122.80 823.90 L 136.20 829.20 L 149.90 834.00 L 163.60 838.50 L 177.50 842.60 L 191.40 846.30 L 205.50 849.60 L 238.00 856.10 L 244.00 857.60 L 247.90 859.00 L 251.60 860.70 L 255.00 862.70 L 259.40 866.70 L 261.40 869.20 L 263.10 872.10 L 253.10 871.80 L 243.10 870.90 L 233.30 869.50 L 223.40 867.70 L 203.90 863.00 L 189.50 859.00 L 146.30 845.90 L 114.90 832.10 L 107.00 828.30 L 99.50 824.30 L 94.60 821.30 L 85.60 814.60 L 81.40 810.80 L 77.60 806.70 L 74.00 802.10 Z" fill="#718b40" fill-rule="nonzero" hidden="true" node-id="54" stroke="none" target-height="70" target-width="189.1" target-x="74" target-y="802.1" visibility="hidden"></path><path d="M 282.20 403.60 L 314.50 415.30 L 325.10 419.60 L 345.80 429.30 L 355.80 434.80 L 365.60 440.90 L 383.10 453.40 L 390.90 459.80 L 398.40 466.40 L 405.60 473.40 L 419.00 488.20 L 431.40 504.10 L 439.00 515.10 L 446.30 526.40 L 453.00 537.90 L 439.20 548.40 L 431.80 553.20 L 424.10 557.70 L 416.30 561.80 L 408.20 565.50 L 399.90 568.80 L 391.50 571.50 L 383.00 573.60 L 376.60 574.80 L 370.10 575.60 L 357.10 576.00 L 350.60 575.60 L 344.10 574.80 L 337.60 573.40 L 326.30 570.00 L 321.70 568.10 L 313.00 563.30 L 307.70 559.50 L 302.70 555.20 L 298.00 550.50 L 293.80 545.50 L 289.90 540.10 L 286.40 534.50 L 283.30 528.60 L 280.60 522.60 L 278.40 516.40 L 275.80 507.10 L 274.00 497.70 L 272.70 488.30 L 272.00 478.90 L 271.80 469.40 L 272.20 459.90 L 273.00 450.40 L 275.70 431.50 L 277.60 422.10 L 282.20 403.60 Z" fill="#fdfdfd" fill-rule="nonzero" node-id="56" stroke="none" target-height="172.4" target-width="181.20001" target-x="271.8" target-y="403.6"></path><path d="M 435.10 404.40 L 452.10 434.20 L 457.40 444.30 L 462.30 454.70 L 466.60 465.20 L 469.00 472.40 L 471.10 479.70 L 472.90 487.20 L 460.40 471.80 L 448.40 456.20 L 424.80 424.50 L 425.30 422.10 L 427.10 417.40 L 435.10 404.40 Z" fill="#b73735" fill-rule="nonzero" node-id="58" stroke="none" target-height="82.80002" target-width="48.100006" target-x="424.8" target-y="404.4"></path><path d="M 547.40 483.70 L 558.20 456.50 L 564.20 443.20 L 570.80 430.10 L 575.50 421.50 L 585.90 405.10 L 597.60 423.40 L 588.70 433.00 L 580.20 443.00 L 555.80 473.70 L 547.40 483.70 Z" fill="#b73735" fill-rule="nonzero" node-id="60" stroke="none" target-height="78.600006" target-width="50.19995" target-x="547.4" target-y="405.1"></path><path d="M 550.10 597.30 L 546.30 586.30 L 542.90 575.20 L 541.00 567.70 L 538.10 552.50 L 553.30 567.70 L 567.50 584.00 L 550.10 597.30 Z" fill="#b73735" fill-rule="nonzero" node-id="62" stroke="none" target-height="44.799988" target-width="29.400024" target-x="538.1" target-y="552.5"></path><path d="M 357.30 142.60 L 371.30 138.00 L 385.40 133.90 L 399.70 130.30 L 414.10 127.20 L 428.60 124.60 L 443.20 122.40 L 457.80 120.70 L 472.50 119.50 L 487.20 118.70 L 502.00 118.40 L 516.80 118.60 L 531.50 119.20 L 546.20 120.20 L 560.80 121.60 L 591.00 125.80 L 606.60 128.60 L 622.10 132.00 L 633.70 134.90 L 656.50 141.80 L 667.70 145.80 L 678.80 150.20 L 689.60 155.00 L 700.30 160.20 L 710.70 165.80 L 720.90 171.90 L 730.80 178.40 L 740.40 185.40 L 749.80 192.90 L 759.20 201.20 L 777.70 218.90 L 786.70 228.10 L 795.30 237.70 L 803.60 247.60 L 811.50 257.80 L 818.80 268.20 L 825.60 279.00 L 830.30 287.40 L 834.60 295.90 L 838.40 304.60 L 841.90 313.40 L 844.90 322.40 L 847.30 331.70 L 849.30 341.10 L 850.70 350.80 L 851.10 366.80 L 851.00 398.80 L 850.10 422.80 L 848.80 446.70 L 841.00 551.00 L 838.60 567.90 L 836.80 576.30 L 834.60 584.50 L 832.10 592.60 L 829.00 600.50 L 825.50 608.10 L 821.50 615.60 L 818.10 621.00 L 810.40 631.20 L 806.10 636.10 L 836.10 659.60 L 850.80 671.80 L 865.20 684.50 L 879.10 697.50 L 892.60 711.00 L 902.40 721.50 L 911.80 732.30 L 920.90 743.40 L 929.60 754.80 L 918.70 761.60 L 907.50 767.80 L 896.10 773.50 L 884.40 778.70 L 872.60 783.50 L 860.60 787.80 L 848.40 791.70 L 836.10 795.30 L 819.50 799.50 L 802.90 803.20 L 786.00 806.40 L 760.70 810.50 L 735.50 814.10 L 730.90 829.40 L 728.10 836.90 L 724.70 844.20 L 722.20 848.90 L 716.10 857.50 L 712.60 861.40 L 708.70 865.00 L 704.30 868.30 L 697.90 872.40 L 691.20 876.20 L 684.30 879.50 L 677.10 882.50 L 669.80 885.00 L 662.40 887.20 L 654.90 888.80 L 647.20 890.10 L 639.50 890.90 L 631.90 891.20 L 624.20 891.10 L 616.60 890.40 L 609.00 889.20 L 601.60 887.60 L 594.20 885.30 L 587.00 882.50 L 577.60 880.00 L 568.10 877.90 L 558.60 876.30 L 549.00 875.10 L 536.20 874.10 L 523.30 873.70 L 510.40 874.00 L 497.50 874.80 L 484.60 876.10 L 459.00 879.90 L 433.70 885.00 L 427.80 887.20 L 421.70 889.10 L 415.50 890.60 L 402.70 892.40 L 389.80 892.70 L 383.30 892.30 L 374.70 891.30 L 366.20 889.60 L 357.80 887.30 L 351.70 885.10 L 339.90 879.90 L 328.90 873.30 L 323.80 869.60 L 318.90 865.50 L 314.30 861.10 L 310.10 856.50 L 306.20 851.50 L 302.70 846.30 L 299.60 840.70 L 296.90 834.90 L 294.60 828.80 L 292.90 822.50 L 291.50 815.70 L 251.50 809.40 L 231.30 805.80 L 211.30 801.60 L 198.00 798.50 L 184.90 794.90 L 171.90 791.00 L 159.10 786.60 L 146.60 781.60 L 134.20 776.10 L 125.20 771.60 L 116.30 766.80 L 107.60 761.50 L 99.00 755.80 L 99.10 753.30 L 100.20 748.90 L 101.70 745.90 L 103.80 743.00 L 125.30 719.20 L 137.70 706.30 L 150.40 693.70 L 163.40 681.40 L 176.80 669.50 L 190.40 657.90 L 204.30 646.60 L 218.60 635.70 L 208.90 622.60 L 204.50 615.70 L 200.50 608.60 L 196.90 601.40 L 193.70 593.90 L 190.90 586.30 L 188.70 578.50 L 187.10 570.50 L 184.90 555.90 L 181.40 526.70 L 177.70 482.70 L 173.50 416.60 L 170.90 385.00 L 170.50 375.50 L 170.60 366.00 L 171.30 356.60 L 172.50 347.20 L 174.20 337.90 L 176.40 328.70 L 179.10 319.60 L 182.30 310.70 L 185.90 302.00 L 189.90 293.40 L 194.40 285.00 L 199.30 276.80 L 204.50 268.90 L 210.10 261.30 L 225.60 242.00 L 235.40 230.50 L 245.70 219.30 L 256.40 208.50 L 267.50 198.20 L 279.10 188.30 L 288.00 181.30 L 297.20 174.60 L 306.60 168.30 L 316.30 162.30 L 326.10 156.70 L 336.30 151.60 L 346.60 146.90 L 357.30 142.60 Z M 332.40 169.30 L 369.20 239.80 L 371.80 243.60 L 374.90 247.00 L 381.90 252.90 L 385.90 255.50 L 392.10 258.80 L 405.10 264.40 L 411.60 266.80 L 417.40 268.50 L 423.30 269.60 L 429.20 270.30 L 435.20 270.50 L 441.20 270.20 L 447.10 269.40 L 453.00 268.30 L 458.80 266.60 L 464.40 264.50 L 469.90 262.10 L 475.10 259.30 L 480.20 256.00 L 485.00 252.40 L 489.50 248.50 L 493.60 244.30 L 497.50 239.70 L 500.90 234.80 L 503.90 229.70 L 506.40 224.30 L 508.50 218.50 L 509.30 199.50 L 509.30 190.00 L 508.00 147.00 L 508.00 132.70 L 478.00 134.20 L 447.90 137.00 L 432.90 139.00 L 418.10 141.60 L 403.30 144.60 L 388.70 148.20 L 374.30 152.50 L 363.60 156.10 L 353.10 160.10 L 342.70 164.50 L 332.40 169.30 Z M 521.40 133.10 L 521.80 183.00 L 523.00 207.90 L 524.00 213.20 L 525.50 218.30 L 527.40 223.10 L 529.70 227.80 L 535.30 236.70 L 542.30 244.60 L 547.50 249.30 L 553.20 253.60 L 559.20 257.40 L 565.60 260.70 L 572.10 263.40 L 578.90 265.50 L 584.10 266.70 L 594.50 268.00 L 604.90 267.80 L 610.00 267.10 L 615.00 266.00 L 620.00 264.40 L 624.80 262.50 L 629.50 260.00 L 634.00 257.10 L 638.40 253.70 L 643.30 247.30 L 647.90 240.70 L 652.20 233.90 L 658.00 223.30 L 679.60 179.60 L 685.50 169.10 L 672.40 163.60 L 659.30 158.60 L 646.00 154.10 L 632.50 150.20 L 618.80 146.80 L 605.10 143.70 L 591.30 141.10 L 577.40 138.90 L 558.80 136.40 L 540.10 134.50 L 521.40 133.10 Z M 314.30 182.20 L 300.10 191.30 L 286.80 201.60 L 278.30 209.00 L 270.10 216.70 L 250.70 237.20 L 239.50 249.70 L 226.90 265.60 L 224.20 269.80 L 222.10 274.30 L 221.00 277.40 L 220.40 280.60 L 220.10 284.10 L 231.50 292.80 L 243.10 301.10 L 255.10 309.00 L 267.30 316.60 L 292.40 330.70 L 318.10 343.30 L 323.30 341.70 L 328.30 339.60 L 333.20 337.00 L 337.80 334.00 L 342.20 330.60 L 346.30 326.80 L 350.20 322.70 L 353.70 318.40 L 359.80 309.00 L 364.40 299.10 L 365.50 293.10 L 366.10 287.30 L 366.20 281.60 L 365.90 276.00 L 364.80 268.60 L 363.10 261.30 L 360.70 254.10 L 354.80 240.10 L 345.50 223.00 L 328.30 193.10 L 325.90 190.10 L 322.20 184.20 L 319.50 181.40 L 317.90 180.80 L 316.90 180.80 L 314.30 182.20 Z M 656.40 267.00 L 655.30 271.90 L 654.70 276.80 L 654.50 281.60 L 654.80 286.50 L 655.40 291.30 L 657.90 300.60 L 659.70 305.10 L 662.60 311.00 L 666.00 316.50 L 670.00 321.70 L 674.40 326.60 L 679.20 331.00 L 684.40 334.90 L 688.60 337.60 L 697.30 341.90 L 701.80 343.50 L 715.40 336.50 L 728.80 329.10 L 781.50 297.80 L 794.90 290.40 L 808.50 283.30 L 801.70 272.30 L 794.40 261.70 L 786.60 251.50 L 778.30 241.70 L 769.60 232.20 L 760.60 223.10 L 751.20 214.30 L 741.40 205.90 L 731.40 197.80 L 721.10 190.00 L 700.00 175.40 L 683.20 204.80 L 672.80 225.00 L 668.00 235.20 L 663.70 245.60 L 659.80 256.20 L 656.40 267.00 Z M 521.90 244.40 L 521.60 315.50 L 521.70 333.20 L 522.30 355.20 L 523.20 359.20 L 524.50 362.90 L 526.40 366.40 L 528.70 369.60 L 531.40 372.60 L 534.50 375.30 L 537.80 377.70 L 545.10 381.70 L 549.00 383.20 L 557.00 385.30 L 567.40 386.30 L 569.80 386.10 L 573.90 384.90 L 576.30 383.50 L 578.50 381.60 L 580.50 379.40 L 583.10 375.70 L 589.60 363.50 L 630.80 275.20 L 612.90 278.90 L 606.80 279.90 L 594.70 280.80 L 588.60 280.60 L 582.60 279.80 L 571.20 277.00 L 566.10 275.20 L 561.20 273.00 L 551.70 267.80 L 547.20 264.90 L 534.20 254.90 L 521.90 244.40 Z M 447.40 281.80 L 441.90 282.70 L 436.50 283.00 L 431.10 282.90 L 420.50 281.60 L 407.40 278.10 L 399.70 275.50 L 384.60 269.60 L 431.70 363.30 L 440.80 382.10 L 445.30 383.40 L 450.10 384.40 L 455.20 384.90 L 465.40 384.70 L 470.60 384.00 L 475.80 382.90 L 480.70 381.50 L 485.40 379.60 L 490.00 377.30 L 494.10 374.60 L 497.80 371.60 L 502.50 366.30 L 505.90 360.10 L 507.00 356.70 L 507.80 353.10 L 508.10 349.20 L 508.20 251.00 L 494.40 261.50 L 487.20 266.30 L 474.70 273.40 L 464.20 277.90 L 458.80 279.60 L 453.20 280.90 L 447.40 281.80 Z M 599.50 378.30 L 597.90 384.30 L 597.60 387.30 L 597.80 391.90 L 598.50 396.40 L 603.00 414.60 L 655.10 375.10 L 673.10 363.00 L 688.40 354.40 L 681.00 349.00 L 674.10 343.20 L 667.60 337.10 L 658.70 327.00 L 651.10 316.00 L 647.80 310.10 L 645.00 304.10 L 642.60 297.70 L 640.60 291.10 L 618.90 334.10 L 612.00 348.60 L 605.50 363.30 L 599.50 378.30 Z M 190.50 432.50 L 191.00 437.90 L 192.00 443.10 L 193.50 448.00 L 197.60 457.50 L 200.30 462.00 L 204.70 468.50 L 209.70 474.60 L 220.60 485.90 L 219.40 473.20 L 218.60 460.40 L 218.10 447.50 L 218.30 370.40 L 217.30 344.80 L 215.10 322.60 L 211.70 303.60 L 209.50 294.10 L 205.30 300.30 L 201.60 306.60 L 198.50 313.00 L 195.90 319.50 L 193.70 326.20 L 190.40 339.80 L 189.30 346.80 L 188.30 356.20 L 187.70 365.70 L 187.60 375.30 L 187.90 389.80 L 190.50 432.50 Z M 380.60 295.10 L 377.10 302.90 L 373.00 310.30 L 368.60 317.40 L 363.60 324.30 L 358.30 330.80 L 352.60 337.10 L 346.60 343.00 L 340.30 348.60 L 333.80 354.00 L 344.70 360.60 L 355.30 367.60 L 365.60 375.00 L 406.00 406.00 L 416.30 413.50 L 422.00 400.50 L 424.60 393.10 L 425.30 387.30 L 424.90 384.40 L 424.00 381.40 L 402.20 336.30 L 380.60 295.10 Z M 816.10 295.50 L 811.00 307.90 L 807.40 320.50 L 805.60 329.10 L 804.30 337.80 L 803.50 346.60 L 802.80 359.90 L 802.70 373.20 L 804.10 422.10 L 804.30 444.50 L 803.80 489.50 L 814.70 475.60 L 819.80 468.30 L 824.30 460.70 L 826.90 455.50 L 831.20 444.70 L 832.60 439.00 L 833.60 433.20 L 834.10 427.20 L 835.70 400.30 L 836.30 386.60 L 836.50 372.80 L 836.20 363.70 L 834.60 345.60 L 833.10 336.70 L 831.00 328.10 L 828.40 319.60 L 826.00 313.30 L 823.10 307.30 L 819.90 301.30 L 816.10 295.50 Z M 449.40 397.50 L 475.90 452.10 L 482.20 465.80 L 488.20 479.80 L 507.10 473.40 L 506.30 428.50 L 506.30 383.60 L 499.50 386.80 L 492.70 389.60 L 485.70 392.00 L 478.70 394.00 L 471.50 395.60 L 464.20 396.70 L 456.90 397.40 L 449.40 397.50 Z M 520.40 381.40 L 518.70 473.90 L 535.30 475.90 L 570.10 398.90 L 563.40 398.00 L 556.90 396.80 L 550.50 395.20 L 544.20 393.10 L 536.00 389.80 L 528.10 385.90 L 520.40 381.40 Z M 282.20 403.60 L 277.60 422.10 L 275.70 431.50 L 274.10 440.90 L 272.20 459.90 L 271.80 469.40 L 272.00 478.90 L 272.70 488.30 L 274.00 497.70 L 275.80 507.10 L 278.40 516.40 L 280.60 522.60 L 283.30 528.60 L 286.40 534.50 L 289.90 540.10 L 293.80 545.50 L 298.00 550.50 L 302.70 555.20 L 307.70 559.50 L 313.00 563.30 L 317.30 565.80 L 326.30 570.00 L 337.60 573.40 L 344.10 574.80 L 350.60 575.60 L 357.10 576.00 L 363.60 576.00 L 376.60 574.80 L 383.00 573.60 L 391.50 571.50 L 399.90 568.80 L 408.20 565.50 L 416.30 561.80 L 424.10 557.70 L 431.80 553.20 L 439.20 548.40 L 453.00 537.90 L 446.30 526.40 L 439.00 515.10 L 431.40 504.10 L 419.00 488.20 L 405.60 473.40 L 398.40 466.40 L 390.90 459.80 L 383.10 453.40 L 365.60 440.90 L 355.80 434.80 L 345.80 429.30 L 325.10 419.60 L 314.50 415.30 L 282.20 403.60 Z M 435.10 404.40 L 427.10 417.40 L 425.30 422.10 L 424.80 424.50 L 448.40 456.20 L 460.40 471.80 L 472.90 487.20 L 471.10 479.70 L 469.00 472.40 L 466.60 465.20 L 462.30 454.70 L 457.40 444.30 L 452.10 434.20 L 435.10 404.40 Z M 547.40 483.70 L 555.80 473.70 L 580.20 443.00 L 588.70 433.00 L 597.60 423.40 L 585.90 405.10 L 575.50 421.50 L 570.80 430.10 L 564.20 443.20 L 558.20 456.50 L 547.40 483.70 Z M 568.80 536.70 L 575.60 542.90 L 582.90 548.80 L 590.50 554.20 L 598.60 559.10 L 606.90 563.50 L 615.50 567.30 L 628.80 571.90 L 642.40 575.00 L 649.30 576.00 L 656.30 576.50 L 663.20 576.70 L 670.20 576.30 L 677.10 575.60 L 684.00 574.30 L 690.80 572.60 L 697.60 570.40 L 702.70 568.20 L 707.60 565.80 L 712.20 562.90 L 716.60 559.70 L 724.50 552.30 L 731.30 543.90 L 735.30 537.70 L 738.80 531.30 L 741.70 524.60 L 744.20 517.70 L 746.10 510.70 L 749.20 495.10 L 750.30 486.70 L 750.90 478.20 L 750.80 469.70 L 750.40 461.20 L 749.50 452.80 L 747.50 440.10 L 744.90 427.50 L 738.80 402.70 L 717.60 409.50 L 707.20 413.40 L 686.60 422.50 L 676.70 427.50 L 666.90 433.00 L 657.30 438.80 L 647.90 444.90 L 638.90 451.50 L 630.20 458.30 L 621.70 465.60 L 613.60 473.20 L 605.90 481.20 L 598.60 489.50 L 591.70 498.20 L 585.30 507.30 L 579.30 516.70 L 573.80 526.50 L 568.80 536.70 Z M 193.50 476.80 L 194.70 489.20 L 198.30 540.20 L 199.80 552.80 L 202.80 569.40 L 204.80 577.50 L 207.20 585.50 L 210.20 593.20 L 213.70 600.80 L 220.00 611.70 L 227.90 622.10 L 279.90 598.30 L 259.10 575.90 L 252.60 568.00 L 245.00 557.00 L 241.60 551.10 L 238.70 545.10 L 236.30 538.80 L 232.70 526.20 L 230.60 520.80 L 228.00 515.70 L 225.00 510.80 L 217.90 501.80 L 211.90 495.40 L 193.50 476.80 Z M 800.30 514.70 L 796.90 522.30 L 785.80 550.70 L 780.70 560.60 L 777.30 565.70 L 769.70 575.20 L 763.40 581.90 L 756.80 588.30 L 743.40 600.80 L 770.80 611.40 L 780.00 614.50 L 786.30 616.30 L 792.70 617.60 L 799.20 618.50 L 803.10 613.40 L 809.70 603.00 L 812.50 597.70 L 815.80 590.20 L 818.60 582.70 L 820.90 574.90 L 822.80 567.00 L 825.60 550.80 L 827.10 538.40 L 830.70 488.70 L 831.90 476.70 L 810.10 501.50 L 805.00 507.90 L 800.30 514.70 Z M 474.30 502.00 L 486.20 543.00 L 507.40 547.20 L 517.90 549.90 L 521.50 548.40 L 524.80 546.60 L 530.30 542.30 L 533.50 538.90 L 536.30 535.20 L 538.70 531.10 L 541.90 524.70 L 544.60 517.90 L 549.40 504.20 L 517.00 488.10 L 516.70 542.30 L 514.40 528.90 L 512.80 515.40 L 510.60 488.20 L 501.20 491.00 L 492.10 494.20 L 483.10 497.80 L 474.30 502.00 Z M 444.40 588.50 L 469.30 603.50 L 474.70 590.90 L 479.70 578.20 L 485.40 561.00 L 487.80 552.20 L 476.60 560.90 L 465.80 569.90 L 444.40 588.50 Z M 550.10 597.30 L 567.50 584.00 L 553.30 567.70 L 538.10 552.50 L 539.40 560.10 L 542.90 575.20 L 546.30 586.30 L 550.10 597.30 Z M 500.40 559.70 L 493.20 580.10 L 485.60 600.20 L 498.40 597.80 L 511.40 596.90 L 524.30 597.60 L 530.80 598.50 L 537.30 599.90 L 524.10 559.80 L 500.40 559.70 Z M 556.00 611.70 L 573.60 656.40 L 579.20 652.00 L 585.00 648.10 L 591.10 644.80 L 597.50 642.00 L 604.00 639.80 L 610.80 638.10 L 617.70 636.90 L 624.80 636.20 L 597.40 607.40 L 587.50 598.70 L 582.10 594.80 L 579.30 595.00 L 576.80 595.60 L 574.40 596.60 L 571.10 598.50 L 567.90 601.00 L 556.00 611.70 Z M 393.20 637.90 L 400.80 639.00 L 408.20 640.70 L 415.30 643.00 L 422.20 645.80 L 428.90 649.30 L 435.30 653.10 L 441.40 657.50 L 447.40 662.40 L 455.70 641.50 L 457.90 634.40 L 459.00 629.60 L 459.70 624.70 L 459.90 619.60 L 455.80 613.30 L 453.20 610.40 L 450.30 607.80 L 443.90 603.60 L 440.40 602.10 L 436.80 601.00 L 433.10 600.40 L 428.10 604.00 L 418.80 611.80 L 412.20 618.20 L 393.20 637.90 Z M 239.40 633.40 L 250.10 641.20 L 268.80 653.40 L 284.40 662.10 L 292.40 666.00 L 300.60 669.50 L 308.90 672.60 L 317.40 675.30 L 326.00 677.40 L 334.80 679.10 L 340.80 674.10 L 346.40 668.80 L 367.20 645.70 L 352.20 634.20 L 344.50 628.70 L 336.50 623.60 L 325.40 617.70 L 313.90 613.00 L 307.90 611.20 L 301.70 609.80 L 294.20 610.50 L 286.90 611.80 L 279.60 613.70 L 272.50 616.10 L 265.60 618.90 L 258.80 622.10 L 248.90 627.50 L 239.40 633.40 Z M 357.10 619.10 L 374.20 640.10 L 400.50 611.20 L 386.10 614.30 L 371.60 617.00 L 357.10 619.10 Z M 495.50 610.90 L 491.50 612.30 L 488.00 614.10 L 484.90 616.20 L 479.60 621.60 L 477.40 624.80 L 474.50 629.80 L 471.90 635.20 L 462.90 657.10 L 470.70 654.10 L 478.60 651.70 L 486.60 649.90 L 494.60 648.70 L 502.80 648.00 L 511.00 647.70 L 519.10 647.90 L 527.40 648.60 L 535.50 649.70 L 551.70 653.00 L 559.70 655.20 L 551.30 635.10 L 548.30 628.60 L 545.90 624.40 L 543.30 620.50 L 540.30 616.70 L 536.90 614.60 L 529.90 611.50 L 521.20 609.50 L 516.00 609.00 L 510.80 609.00 L 505.50 609.30 L 495.50 610.90 Z M 620.60 612.20 L 643.00 637.90 L 662.10 620.20 L 620.60 612.20 Z M 705.20 615.30 L 691.40 620.10 L 684.50 622.90 L 677.80 626.20 L 673.60 628.80 L 669.70 631.60 L 666.10 634.80 L 662.80 638.30 L 659.90 642.20 L 657.40 646.60 L 660.30 651.20 L 666.80 659.80 L 672.20 665.90 L 689.50 683.20 L 715.10 673.20 L 727.70 667.70 L 740.10 661.80 L 748.20 657.50 L 763.80 648.10 L 771.30 642.90 L 778.50 637.20 L 785.40 631.10 L 754.30 618.50 L 746.20 615.90 L 738.10 613.90 L 732.70 612.90 L 727.20 612.40 L 721.70 612.30 L 716.30 612.70 L 710.80 613.70 L 705.20 615.30 Z M 116.50 751.20 L 130.10 758.00 L 143.90 764.30 L 158.00 770.00 L 172.30 775.20 L 186.80 779.80 L 201.40 784.00 L 216.20 787.80 L 231.10 791.10 L 251.10 794.90 L 271.10 798.00 L 291.20 800.50 L 291.50 791.20 L 293.30 772.90 L 294.70 763.80 L 297.20 751.80 L 300.20 739.90 L 303.80 728.20 L 307.90 716.60 L 312.50 705.20 L 317.50 693.90 L 307.10 690.10 L 296.80 685.90 L 277.00 676.40 L 257.80 665.60 L 243.80 656.80 L 230.10 647.50 L 219.50 654.80 L 209.20 662.40 L 199.10 670.40 L 189.30 678.60 L 176.50 690.00 L 164.00 701.70 L 151.80 713.80 L 134.00 732.40 L 116.50 751.20 Z M 712.80 692.10 L 717.30 705.10 L 721.40 718.30 L 724.90 731.60 L 728.00 745.00 L 732.90 772.10 L 736.20 799.50 L 756.20 796.70 L 776.10 793.50 L 795.90 789.70 L 810.70 786.50 L 825.40 782.80 L 839.90 778.70 L 854.30 774.30 L 868.60 769.30 L 882.70 763.90 L 896.50 757.90 L 910.20 751.30 L 869.40 709.70 L 845.90 687.40 L 826.30 670.50 L 816.20 662.50 L 805.80 654.80 L 795.10 647.50 L 755.10 671.90 L 741.40 679.40 L 732.10 684.10 L 722.60 688.30 L 712.80 692.10 Z M 350.20 685.00 L 363.70 689.30 L 377.30 693.10 L 391.10 696.30 L 405.00 699.00 L 419.00 701.20 L 433.10 702.80 L 441.60 677.70 L 433.10 668.80 L 428.50 664.60 L 423.60 660.80 L 416.50 656.70 L 412.80 655.20 L 408.90 654.10 L 404.80 653.40 L 396.10 653.00 L 392.00 653.30 L 388.10 654.20 L 384.30 655.50 L 380.70 657.30 L 377.30 659.40 L 372.40 663.10 L 367.70 667.30 L 350.20 685.00 Z M 582.90 674.80 L 584.80 684.70 L 591.10 704.00 L 618.80 700.00 L 632.60 697.50 L 655.20 692.20 L 673.10 686.60 L 655.50 667.90 L 645.00 658.30 L 635.70 651.80 L 631.70 650.40 L 627.60 649.40 L 623.30 649.00 L 619.00 648.90 L 614.70 649.30 L 610.40 650.20 L 606.20 651.40 L 602.20 653.10 L 598.40 655.10 L 594.80 657.50 L 591.60 660.30 L 588.70 663.40 L 586.30 666.90 L 584.30 670.70 L 582.90 674.80 Z M 444.10 704.30 L 458.70 706.00 L 473.30 707.30 L 488.00 708.10 L 510.00 708.70 L 532.00 708.70 L 576.10 707.50 L 571.60 688.20 L 570.10 683.40 L 568.10 679.00 L 566.50 676.20 L 564.50 673.60 L 562.20 671.20 L 555.50 668.00 L 548.40 665.20 L 540.90 662.90 L 533.20 661.20 L 525.40 660.10 L 517.50 659.50 L 509.50 659.50 L 501.70 660.20 L 494.00 661.50 L 488.30 662.90 L 482.90 664.60 L 477.60 666.80 L 472.60 669.30 L 467.80 672.20 L 463.30 675.50 L 459.10 679.20 L 455.30 683.40 L 451.80 687.90 L 448.80 692.80 L 446.30 698.30 L 444.10 704.30 Z M 534.60 724.70 L 571.20 733.60 L 583.30 737.00 L 571.70 738.10 L 560.10 738.70 L 536.90 739.10 L 575.30 759.30 L 588.00 766.40 L 576.80 765.20 L 571.40 764.00 L 563.40 761.70 L 555.50 758.70 L 540.40 751.50 L 528.90 775.50 L 537.70 813.90 L 516.20 818.80 L 509.00 819.50 L 505.50 819.40 L 502.00 818.80 L 498.70 817.70 L 495.30 816.00 L 494.90 807.50 L 495.00 799.00 L 495.70 781.90 L 492.20 785.00 L 486.10 791.80 L 470.30 814.10 L 466.00 819.40 L 461.20 824.30 L 461.80 816.70 L 463.70 809.80 L 465.70 805.50 L 468.10 801.40 L 470.90 797.50 L 475.60 791.90 L 490.80 776.10 L 503.80 778.60 L 487.70 755.90 L 499.00 745.10 L 495.80 742.80 L 492.70 741.20 L 489.40 740.10 L 486.10 739.50 L 479.10 739.20 L 457.60 741.00 L 450.60 740.50 L 447.10 739.70 L 455.70 736.70 L 464.50 734.10 L 473.30 731.90 L 500.20 726.30 L 479.10 723.20 L 415.70 715.20 L 387.70 710.80 L 373.80 708.10 L 360.00 705.00 L 346.30 701.20 L 332.70 696.90 L 327.10 709.80 L 321.80 722.90 L 315.80 740.80 L 313.40 749.80 L 311.40 759.00 L 310.00 768.20 L 309.20 777.70 L 308.10 797.40 L 308.20 804.10 L 309.40 817.30 L 310.70 823.80 L 312.50 830.00 L 314.90 836.00 L 317.10 840.30 L 319.70 844.40 L 322.80 848.40 L 329.90 855.80 L 337.60 862.10 L 341.70 864.70 L 347.40 867.70 L 353.30 870.30 L 359.50 872.50 L 372.20 875.50 L 378.80 876.50 L 388.70 877.50 L 398.70 877.90 L 418.30 877.60 L 413.10 861.20 L 395.70 817.20 L 391.50 805.10 L 389.00 796.90 L 387.00 788.50 L 384.50 775.50 L 383.00 771.40 L 381.10 767.80 L 376.10 761.10 L 368.40 753.70 L 353.70 741.00 L 348.20 734.70 L 346.00 731.20 L 344.10 727.50 L 342.80 723.40 L 342.00 718.90 L 349.00 721.50 L 355.50 724.60 L 361.70 728.10 L 367.50 732.20 L 372.90 736.70 L 378.00 741.50 L 382.80 746.80 L 387.10 752.40 L 391.10 758.30 L 394.80 764.40 L 398.00 770.70 L 400.90 777.30 L 405.60 790.90 L 408.80 804.90 L 416.40 802.60 L 431.00 797.10 L 438.10 793.80 L 447.30 788.90 L 456.20 783.70 L 465.00 778.00 L 477.80 769.00 L 490.40 759.60 L 488.80 767.50 L 487.50 771.30 L 485.70 774.80 L 484.20 776.80 L 482.30 778.60 L 473.10 785.50 L 466.10 790.30 L 458.80 794.60 L 451.30 798.60 L 435.80 805.90 L 412.10 815.50 L 417.50 829.20 L 422.50 843.00 L 427.00 857.00 L 431.10 871.10 L 441.70 869.60 L 483.90 862.40 L 494.50 861.00 L 505.10 860.00 L 515.90 859.60 L 524.90 859.70 L 534.00 860.20 L 543.00 861.10 L 556.40 863.00 L 596.60 870.20 L 603.10 851.90 L 610.10 833.70 L 617.60 815.80 L 604.00 811.80 L 591.10 806.50 L 582.80 802.30 L 574.80 797.50 L 567.10 792.30 L 559.70 786.70 L 552.50 780.60 L 545.70 774.20 L 544.10 759.70 L 551.40 766.80 L 559.00 773.50 L 566.80 779.90 L 579.30 788.60 L 592.40 795.80 L 599.30 798.90 L 606.40 801.40 L 613.80 803.50 L 621.40 805.10 L 627.30 780.20 L 629.70 772.00 L 631.70 766.70 L 634.00 761.50 L 636.80 756.50 L 641.20 751.00 L 646.00 745.70 L 651.10 740.80 L 656.50 736.30 L 668.10 727.90 L 677.10 722.20 L 686.40 717.00 L 685.70 721.70 L 684.50 725.90 L 682.80 729.70 L 678.20 736.80 L 670.80 744.60 L 656.10 757.90 L 653.10 761.10 L 647.90 767.90 L 645.30 774.60 L 643.10 781.30 L 635.70 808.80 L 633.50 815.60 L 619.80 848.90 L 614.60 862.40 L 609.70 876.00 L 623.40 876.50 L 630.60 876.30 L 645.00 875.00 L 659.50 872.20 L 666.40 870.30 L 673.20 867.90 L 679.80 865.10 L 686.00 861.80 L 691.90 858.10 L 696.00 855.00 L 699.90 851.50 L 703.40 847.80 L 706.70 843.80 L 709.60 839.50 L 712.20 834.80 L 714.40 829.80 L 716.20 824.30 L 717.50 815.60 L 718.40 807.00 L 718.80 798.30 L 718.80 789.60 L 718.50 780.80 L 717.50 769.90 L 715.90 759.10 L 713.90 748.40 L 711.20 737.70 L 708.10 727.20 L 704.60 716.80 L 700.70 706.60 L 696.30 696.70 L 683.10 700.60 L 669.80 704.00 L 656.50 707.00 L 636.30 710.80 L 616.10 713.90 L 534.60 724.70 Z" fill="#050504" fill-rule="nonzero" node-id="64" stroke="none" target-height="774.3" target-width="830.6" target-x="99" target-y="118.4"></path><path d="M 448.60 765.40 L 451.30 761.80 L 454.40 758.70 L 457.70 756.10 L 465.20 751.90 L 475.60 748.20 L 494.50 742.90 L 491.70 746.60 L 488.70 749.90 L 485.50 752.70 L 478.20 757.40 L 474.20 759.20 L 468.10 761.40 L 461.60 763.20 L 448.60 765.40 Z" fill="#050504" fill-rule="nonzero" node-id="66" stroke="none" target-height="22.5" target-width="45.899994" target-x="448.6" target-y="742.9"></path><path d="M 536.30 776.70 L 545.00 781.90 L 549.10 785.10 L 553.00 788.60 L 556.50 792.40 L 559.60 796.40 L 561.70 799.70 L 564.70 806.50 L 565.70 810.10 L 566.20 813.70 L 566.40 817.50 L 566.00 821.40 L 565.20 825.50 L 560.80 817.00 L 556.20 808.80 L 536.30 776.70 Z" fill="#050504" fill-rule="nonzero" node-id="68" stroke="none" target-height="48.799988" target-width="30.100037" target-x="536.3" target-y="776.7"></path><path d="M 332.40 169.30 L 342.70 164.50 L 353.10 160.10 L 363.60 156.10 L 374.30 152.50 L 388.70 148.20 L 403.30 144.60 L 418.10 141.60 L 432.90 139.00 L 447.90 137.00 L 478.00 134.20 L 508.00 132.70 L 508.00 147.00 L 509.30 190.00 L 509.30 199.50 L 508.50 218.50 L 506.40 224.30 L 503.90 229.70 L 500.90 234.80 L 497.50 239.70 L 493.60 244.30 L 489.50 248.50 L 485.00 252.40 L 480.20 256.00 L 475.10 259.30 L 469.90 262.10 L 464.40 264.50 L 458.80 266.60 L 453.00 268.30 L 447.10 269.40 L 441.20 270.20 L 435.20 270.50 L 429.20 270.30 L 423.30 269.60 L 417.40 268.50 L 411.60 266.80 L 405.10 264.40 L 392.10 258.80 L 385.90 255.50 L 378.30 250.10 L 374.90 247.00 L 371.80 243.60 L 369.20 239.80 L 332.40 169.30 Z" fill="#c42e30" fill-rule="nonzero" node-id="70" stroke="none" target-height="137.8" target-width="176.9" target-x="332.4" target-y="132.7"></path><path d="M 521.40 133.10 L 540.10 134.50 L 558.80 136.40 L 577.40 138.90 L 591.30 141.10 L 605.10 143.70 L 618.80 146.80 L 632.50 150.20 L 646.00 154.10 L 659.30 158.60 L 672.40 163.60 L 685.50 169.10 L 679.60 179.60 L 658.00 223.30 L 652.20 233.90 L 647.90 240.70 L 643.30 247.30 L 638.40 253.70 L 634.00 257.10 L 629.50 260.00 L 624.80 262.50 L 620.00 264.40 L 615.00 266.00 L 610.00 267.10 L 604.90 267.80 L 599.70 268.10 L 589.30 267.60 L 584.10 266.70 L 578.90 265.50 L 572.10 263.40 L 565.60 260.70 L 559.20 257.40 L 553.20 253.60 L 547.50 249.30 L 542.30 244.60 L 535.30 236.70 L 529.70 227.80 L 527.40 223.10 L 525.50 218.30 L 524.00 213.20 L 523.00 207.90 L 521.80 183.00 L 521.40 133.10 Z" fill="#c52f32" fill-rule="nonzero" node-id="72" stroke="none" target-height="135" target-width="164.09998" target-x="521.4" target-y="133.1"></path><path d="M 314.30 182.20 L 315.70 181.20 L 317.90 180.80 L 319.50 181.40 L 322.20 184.20 L 325.90 190.10 L 328.30 193.10 L 351.20 233.20 L 354.80 240.10 L 360.70 254.10 L 363.10 261.30 L 364.80 268.60 L 365.90 276.00 L 366.20 281.60 L 366.10 287.30 L 365.50 293.10 L 364.40 299.10 L 359.80 309.00 L 353.70 318.40 L 350.20 322.70 L 346.30 326.80 L 342.20 330.60 L 337.80 334.00 L 333.20 337.00 L 328.30 339.60 L 323.30 341.70 L 318.10 343.30 L 292.40 330.70 L 267.30 316.60 L 255.10 309.00 L 243.10 301.10 L 231.50 292.80 L 220.10 284.10 L 220.40 280.60 L 221.00 277.40 L 222.10 274.30 L 224.20 269.80 L 226.90 265.60 L 239.50 249.70 L 250.70 237.20 L 270.10 216.70 L 278.30 209.00 L 286.80 201.60 L 300.10 191.30 L 314.30 182.20 Z" fill="#c52d2f" fill-rule="nonzero" node-id="74" stroke="none" target-height="162.49998" target-width="146.1" target-x="220.1" target-y="180.8"></path><path d="M 656.40 267.00 L 659.80 256.20 L 663.70 245.60 L 668.00 235.20 L 672.80 225.00 L 683.20 204.80 L 700.00 175.40 L 721.10 190.00 L 731.40 197.80 L 741.40 205.90 L 751.20 214.30 L 760.60 223.10 L 769.60 232.20 L 778.30 241.70 L 786.60 251.50 L 794.40 261.70 L 801.70 272.30 L 808.50 283.30 L 794.90 290.40 L 781.50 297.80 L 728.80 329.10 L 715.40 336.50 L 701.80 343.50 L 697.30 341.80 L 688.60 337.60 L 684.40 334.90 L 679.20 331.00 L 674.40 326.60 L 670.00 321.70 L 666.00 316.50 L 662.60 311.00 L 659.70 305.10 L 657.90 300.60 L 655.40 291.30 L 654.80 286.50 L 654.50 281.60 L 654.70 276.80 L 655.30 271.90 L 656.40 267.00 Z" fill="#c33032" fill-rule="nonzero" node-id="76" stroke="none" target-height="168.1" target-width="154" target-x="654.5" target-y="175.4"></path><path d="M 851.50 229.60 L 855.20 230.80 L 861.80 234.00 L 864.70 236.10 L 868.30 239.30 L 871.70 242.80 L 874.70 246.70 L 879.00 252.80 L 890.80 271.80 L 894.70 279.50 L 898.10 287.30 L 901.10 295.20 L 903.80 303.30 L 906.70 314.10 L 909.20 325.10 L 911.10 336.30 L 912.50 347.50 L 914.30 370.20 L 914.80 387.30 L 915.00 404.40 L 914.90 454.30 L 914.60 470.40 L 913.80 486.40 L 912.70 502.40 L 910.70 523.80 L 908.10 545.00 L 905.10 566.30 L 899.90 598.00 L 894.10 629.60 L 903.90 651.00 L 896.70 646.90 L 871.30 625.10 L 875.60 611.80 L 879.20 598.30 L 882.30 584.70 L 884.90 571.10 L 887.00 557.30 L 888.80 543.50 L 890.90 522.60 L 895.40 460.00 L 897.20 394.10 L 897.00 372.20 L 896.50 357.60 L 895.50 343.00 L 893.90 328.40 L 892.50 319.40 L 890.60 310.60 L 888.30 301.80 L 885.50 293.20 L 878.90 276.40 L 870.80 260.20 L 864.80 249.70 L 858.30 239.50 L 851.50 229.60 Z" fill="#849831" fill-rule="nonzero" hidden="true" node-id="78" stroke="none" target-height="421.4" target-width="63.5" target-x="851.5" target-y="229.6" visibility="hidden"></path><path d="M 521.90 244.40 L 534.20 254.90 L 547.20 264.90 L 551.70 267.80 L 561.20 273.00 L 566.10 275.20 L 571.20 277.00 L 582.60 279.80 L 588.60 280.60 L 594.70 280.80 L 606.80 279.90 L 612.90 278.90 L 630.80 275.20 L 589.60 363.50 L 585.50 371.60 L 583.10 375.70 L 580.50 379.40 L 578.50 381.60 L 576.30 383.50 L 573.90 384.90 L 569.80 386.10 L 567.40 386.30 L 560.90 385.90 L 553.00 384.40 L 545.10 381.70 L 541.40 379.90 L 534.50 375.30 L 531.40 372.60 L 528.70 369.60 L 526.40 366.40 L 524.50 362.90 L 523.20 359.20 L 522.30 355.20 L 521.70 333.20 L 521.90 244.40 Z" fill="#c32f30" fill-rule="nonzero" node-id="80" stroke="none" target-height="141.9" target-width="109.099976" target-x="521.7" target-y="244.4"></path><path d="M 239.40 633.40 L 248.90 627.50 L 258.80 622.10 L 265.60 618.90 L 272.50 616.10 L 279.60 613.70 L 286.90 611.80 L 294.20 610.50 L 301.70 609.80 L 307.90 611.20 L 313.90 613.00 L 325.40 617.70 L 336.50 623.60 L 344.50 628.70 L 352.20 634.20 L 367.20 645.70 L 346.40 668.80 L 340.80 674.10 L 334.80 679.10 L 326.00 677.40 L 317.40 675.30 L 308.90 672.60 L 300.60 669.50 L 292.40 666.00 L 284.40 662.10 L 268.80 653.40 L 250.10 641.20 L 239.40 633.40 Z" fill="#c32f30" fill-rule="nonzero" node-id="82" stroke="none" target-height="69.29999" target-width="127.80002" target-x="239.4" target-y="609.8"></path><path d="M 447.40 281.80 L 453.20 280.90 L 458.80 279.60 L 464.20 277.90 L 474.70 273.40 L 487.20 266.30 L 494.40 261.50 L 508.20 251.00 L 508.10 349.20 L 507.80 353.10 L 507.00 356.70 L 505.90 360.10 L 502.50 366.30 L 497.80 371.60 L 494.10 374.60 L 490.00 377.30 L 485.40 379.60 L 480.70 381.50 L 475.80 382.90 L 470.60 384.00 L 465.40 384.70 L 455.20 384.90 L 450.10 384.40 L 445.30 383.40 L 440.80 382.10 L 431.70 363.30 L 384.60 269.60 L 399.70 275.50 L 407.40 278.10 L 420.50 281.60 L 431.10 282.90 L 436.50 283.00 L 441.90 282.70 L 447.40 281.80 Z" fill="#c32e31" fill-rule="nonzero" node-id="84" stroke="none" target-height="133.9" target-width="123.600006" target-x="384.6" target-y="251"></path><path d="M 599.50 378.30 L 605.50 363.30 L 612.00 348.60 L 618.90 334.10 L 640.60 291.10 L 642.60 297.70 L 645.00 304.10 L 647.80 310.10 L 651.10 316.00 L 658.70 327.00 L 667.60 337.10 L 674.10 343.20 L 681.00 349.00 L 688.40 354.40 L 673.10 363.00 L 655.10 375.10 L 603.00 414.60 L 598.50 396.40 L 597.80 391.90 L 597.60 387.30 L 597.90 384.30 L 599.50 378.30 Z" fill="#c63233" fill-rule="nonzero" node-id="86" stroke="none" target-height="123.5" target-width="90.80005" target-x="597.6" target-y="291.1"></path><path d="M 190.50 432.50 L 187.90 389.80 L 187.60 375.30 L 187.70 365.70 L 188.30 356.20 L 189.30 346.80 L 191.90 332.90 L 195.90 319.50 L 198.50 313.00 L 201.60 306.60 L 205.30 300.30 L 209.50 294.10 L 213.60 313.10 L 216.20 332.10 L 218.00 357.60 L 218.30 370.40 L 218.10 447.50 L 218.60 460.40 L 219.40 473.20 L 220.60 485.90 L 209.70 474.60 L 204.70 468.50 L 200.30 462.00 L 197.60 457.50 L 193.50 448.00 L 192.00 443.10 L 191.00 437.90 L 190.50 432.50 Z" fill="#c02c2f" fill-rule="nonzero" node-id="88" stroke="none" target-height="191.79999" target-width="33" target-x="187.6" target-y="294.1"></path><path d="M 380.60 295.10 L 402.20 336.30 L 424.00 381.40 L 424.90 384.40 L 425.30 387.30 L 424.60 393.10 L 422.00 400.50 L 416.30 413.50 L 406.00 406.00 L 365.60 375.00 L 355.30 367.60 L 344.70 360.60 L 333.80 354.00 L 340.30 348.60 L 352.60 337.10 L 358.30 330.80 L 363.60 324.30 L 368.60 317.40 L 373.00 310.30 L 377.10 302.90 L 380.60 295.10 Z" fill="#c32e2f" fill-rule="nonzero" node-id="90" stroke="none" target-height="118.399994" target-width="91.5" target-x="333.8" target-y="295.1"></path><path d="M 816.10 295.50 L 819.90 301.30 L 823.10 307.30 L 826.00 313.30 L 828.40 319.60 L 831.00 328.10 L 833.10 336.70 L 834.60 345.60 L 836.20 363.70 L 836.50 372.80 L 836.30 386.60 L 835.70 400.30 L 833.60 433.20 L 832.60 439.00 L 831.20 444.70 L 826.90 455.50 L 824.30 460.70 L 819.80 468.30 L 814.70 475.60 L 803.80 489.50 L 804.30 444.50 L 804.10 422.10 L 802.70 373.20 L 802.80 359.90 L 803.50 346.60 L 804.30 337.80 L 805.60 329.10 L 807.40 320.50 L 811.00 307.90 L 816.10 295.50 Z" fill="#c52f30" fill-rule="nonzero" node-id="92" stroke="none" target-height="194" target-width="33.799988" target-x="802.7" target-y="295.5"></path><path d="M 449.40 397.50 L 456.90 397.40 L 464.20 396.70 L 471.50 395.60 L 478.70 394.00 L 485.70 392.00 L 492.70 389.60 L 499.50 386.80 L 506.30 383.60 L 506.30 428.50 L 507.10 473.40 L 488.20 479.80 L 482.20 465.80 L 475.90 452.10 L 449.40 397.50 Z" fill="#c42f33" fill-rule="nonzero" node-id="94" stroke="none" target-height="96.19998" target-width="57.700012" target-x="449.4" target-y="383.6"></path><path d="M 520.40 381.40 L 528.10 385.90 L 536.00 389.80 L 544.20 393.10 L 550.50 395.20 L 556.90 396.80 L 563.40 398.00 L 570.10 398.90 L 535.30 475.90 L 518.70 473.90 L 520.40 381.40 Z" fill="#c33033" fill-rule="nonzero" node-id="96" stroke="none" target-height="94.5" target-width="51.399963" target-x="518.7" target-y="381.4"></path><path d="M 193.50 476.80 L 211.90 495.40 L 217.90 501.80 L 225.00 510.80 L 228.00 515.70 L 230.60 520.80 L 232.70 526.20 L 236.30 538.80 L 238.70 545.10 L 241.60 551.10 L 245.00 557.00 L 252.60 568.00 L 259.10 575.90 L 279.90 598.30 L 227.90 622.10 L 220.00 611.70 L 213.70 600.80 L 210.20 593.20 L 207.20 585.50 L 204.80 577.50 L 201.10 561.20 L 198.30 540.20 L 194.70 489.20 L 193.50 476.80 Z" fill="#c32f31" fill-rule="nonzero" node-id="98" stroke="none" target-height="145.29999" target-width="86.399994" target-x="193.5" target-y="476.8"></path><path d="M 800.30 514.70 L 805.00 507.90 L 810.10 501.50 L 831.90 476.70 L 830.70 488.70 L 827.10 538.40 L 824.40 558.90 L 820.90 574.90 L 818.60 582.70 L 815.80 590.20 L 812.50 597.70 L 806.60 608.30 L 799.20 618.50 L 792.70 617.60 L 786.30 616.30 L 780.00 614.50 L 770.80 611.40 L 743.40 600.80 L 756.80 588.30 L 763.40 581.90 L 769.70 575.20 L 777.30 565.70 L 780.70 560.60 L 785.80 550.70 L 796.90 522.30 L 800.30 514.70 Z" fill="#c43030" fill-rule="nonzero" node-id="100" stroke="none" target-height="141.79999" target-width="88.5" target-x="743.4" target-y="476.7"></path><path d="M 474.30 502.00 L 483.10 497.80 L 492.10 494.20 L 501.20 491.00 L 510.60 488.20 L 512.80 515.40 L 514.40 528.90 L 516.70 542.30 L 517.00 488.10 L 549.40 504.20 L 544.60 517.90 L 541.90 524.70 L 538.70 531.10 L 536.30 535.20 L 533.50 538.90 L 530.30 542.30 L 527.70 544.60 L 521.50 548.40 L 517.90 549.90 L 507.40 547.20 L 486.20 543.00 L 474.30 502.00 Z" fill="#bd2b30" fill-rule="nonzero" node-id="102" stroke="none" target-height="61.80002" target-width="75.10004" target-x="474.3" target-y="488.1"></path><path d="M 444.40 588.50 L 465.80 569.90 L 476.60 560.90 L 487.80 552.20 L 485.40 561.00 L 479.70 578.20 L 474.70 590.90 L 469.30 603.50 L 444.40 588.50 Z" fill="#c12c2e" fill-rule="nonzero" node-id="104" stroke="none" target-height="51.299988" target-width="43.399994" target-x="444.4" target-y="552.2"></path><path d="M 500.40 559.70 L 524.10 559.80 L 537.30 599.90 L 530.80 598.50 L 524.30 597.60 L 511.40 596.90 L 498.40 597.80 L 485.60 600.20 L 493.20 580.10 L 500.40 559.70 Z" fill="#bf2f30" fill-rule="nonzero" node-id="106" stroke="none" target-height="40.5" target-width="51.69998" target-x="485.6" target-y="559.7"></path><path d="M 556.00 611.70 L 567.90 601.00 L 571.10 598.50 L 574.40 596.60 L 576.80 595.60 L 582.10 594.80 L 587.50 598.70 L 597.40 607.40 L 624.80 636.20 L 617.70 636.90 L 610.80 638.10 L 604.00 639.80 L 597.50 642.00 L 591.10 644.80 L 585.00 648.10 L 579.20 652.00 L 573.60 656.40 L 556.00 611.70 Z" fill="#c42f2f" fill-rule="nonzero" node-id="108" stroke="none" target-height="61.600037" target-width="68.79999" target-x="556" target-y="594.8"></path><path d="M 393.20 637.90 L 412.20 618.20 L 418.80 611.80 L 428.10 604.00 L 433.10 600.40 L 436.80 601.00 L 440.40 602.10 L 443.90 603.60 L 447.20 605.50 L 450.30 607.80 L 453.20 610.40 L 455.80 613.30 L 459.90 619.60 L 459.70 624.70 L 459.00 629.60 L 457.90 634.40 L 455.70 641.50 L 447.40 662.40 L 441.40 657.50 L 435.30 653.10 L 428.90 649.30 L 422.20 645.80 L 415.30 643.00 L 408.20 640.70 L 400.80 639.00 L 393.20 637.90 Z" fill="#be2d2f" fill-rule="nonzero" node-id="110" stroke="none" target-height="62" target-width="66.69998" target-x="393.2" target-y="600.4"></path><path d="M 357.10 619.10 L 371.60 617.00 L 386.10 614.30 L 400.50 611.20 L 374.20 640.10 L 357.10 619.10 Z" fill="#be363a" fill-rule="nonzero" node-id="112" stroke="none" target-height="28.899963" target-width="43.399994" target-x="357.1" target-y="611.2"></path><path d="M 495.50 610.90 L 505.50 609.30 L 510.80 609.00 L 516.00 609.00 L 521.20 609.50 L 529.90 611.50 L 536.90 614.60 L 540.30 616.70 L 543.30 620.50 L 545.90 624.40 L 548.30 628.60 L 551.30 635.10 L 559.70 655.20 L 551.70 653.00 L 535.50 649.70 L 527.40 648.60 L 519.10 647.90 L 511.00 647.70 L 502.80 648.00 L 494.60 648.70 L 486.60 649.90 L 478.60 651.70 L 470.70 654.10 L 462.90 657.10 L 471.90 635.20 L 474.50 629.80 L 477.40 624.80 L 479.60 621.60 L 484.90 616.20 L 488.00 614.10 L 491.50 612.30 L 495.50 610.90 Z" fill="#c02c2e" fill-rule="nonzero" node-id="114" stroke="none" target-height="48.099976" target-width="96.80002" target-x="462.9" target-y="609"></path><path d="M 620.60 612.20 L 662.10 620.20 L 643.00 637.90 L 620.60 612.20 Z" fill="#9c3837" fill-rule="nonzero" node-id="116" stroke="none" target-height="25.700012" target-width="41.5" target-x="620.6" target-y="612.2"></path><path d="M 705.20 615.30 L 710.80 613.70 L 716.30 612.70 L 721.70 612.30 L 727.20 612.40 L 732.70 612.90 L 738.10 613.90 L 746.20 615.90 L 754.30 618.50 L 785.40 631.10 L 778.50 637.20 L 771.30 642.90 L 763.80 648.10 L 748.20 657.50 L 740.10 661.80 L 727.70 667.70 L 715.10 673.20 L 689.50 683.20 L 672.20 665.90 L 666.80 659.80 L 660.30 651.20 L 657.40 646.60 L 659.90 642.20 L 662.80 638.30 L 666.10 634.80 L 669.70 631.60 L 673.60 628.80 L 677.80 626.20 L 684.50 622.90 L 691.40 620.10 L 705.20 615.30 Z" fill="#c22e2f" fill-rule="nonzero" node-id="118" stroke="none" target-height="70.900024" target-width="128" target-x="657.4" target-y="612.3"></path><path d="M 116.50 751.20 L 134.00 732.40 L 151.80 713.80 L 164.00 701.70 L 176.50 690.00 L 189.30 678.60 L 199.10 670.40 L 209.20 662.40 L 219.50 654.80 L 230.10 647.50 L 243.80 656.80 L 257.80 665.60 L 277.00 676.40 L 296.80 685.90 L 307.10 690.10 L 317.50 693.90 L 312.50 705.20 L 307.90 716.60 L 303.80 728.20 L 300.20 739.90 L 297.20 751.80 L 294.70 763.80 L 293.30 772.90 L 291.50 791.20 L 291.20 800.50 L 271.10 798.00 L 251.10 794.90 L 231.10 791.10 L 216.20 787.80 L 201.40 784.00 L 186.80 779.80 L 172.30 775.20 L 158.00 770.00 L 143.90 764.30 L 130.10 758.00 L 116.50 751.20 Z" fill="#c53033" fill-rule="nonzero" node-id="120" stroke="none" target-height="153" target-width="201" target-x="116.5" target-y="647.5"></path><path d="M 712.80 692.10 L 722.60 688.30 L 732.10 684.10 L 741.40 679.40 L 755.10 671.90 L 795.10 647.50 L 805.80 654.80 L 816.20 662.50 L 826.30 670.50 L 845.90 687.40 L 869.40 709.70 L 910.20 751.30 L 896.50 757.90 L 882.70 763.90 L 868.60 769.30 L 854.30 774.30 L 839.90 778.70 L 825.40 782.80 L 810.70 786.50 L 795.90 789.70 L 776.10 793.50 L 756.20 796.70 L 736.20 799.50 L 732.90 772.10 L 728.00 745.00 L 724.90 731.60 L 721.40 718.30 L 717.30 705.10 L 712.80 692.10 Z" fill="#c43032" fill-rule="nonzero" node-id="122" stroke="none" target-height="152" target-width="197.40002" target-x="712.8" target-y="647.5"></path><path d="M 350.20 685.00 L 367.70 667.30 L 372.40 663.10 L 377.30 659.40 L 380.70 657.30 L 384.30 655.50 L 388.10 654.20 L 392.00 653.30 L 396.10 653.00 L 404.80 653.40 L 408.90 654.00 L 412.80 655.20 L 420.10 658.60 L 423.60 660.80 L 428.50 664.60 L 433.10 668.80 L 441.60 677.70 L 433.10 702.80 L 419.00 701.20 L 405.00 699.00 L 391.10 696.30 L 377.30 693.10 L 363.70 689.30 L 350.20 685.00 Z" fill="#c22d2e" fill-rule="nonzero" node-id="124" stroke="none" target-height="49.799988" target-width="91.399994" target-x="350.2" target-y="653"></path><path d="M 582.90 674.80 L 584.30 670.70 L 586.30 666.90 L 588.70 663.40 L 591.60 660.30 L 594.80 657.50 L 598.40 655.10 L 602.20 653.10 L 606.20 651.40 L 610.40 650.20 L 614.70 649.30 L 619.00 648.90 L 623.30 649.00 L 627.60 649.40 L 631.70 650.40 L 635.70 651.80 L 645.00 658.30 L 655.50 667.90 L 673.10 686.60 L 655.20 692.20 L 632.60 697.50 L 618.80 700.00 L 591.10 704.00 L 584.80 684.70 L 582.90 674.80 Z" fill="#bf302d" fill-rule="nonzero" node-id="126" stroke="none" target-height="55.099976" target-width="90.19995" target-x="582.9" target-y="648.9"></path><path d="M 444.10 704.30 L 446.30 698.30 L 448.80 692.80 L 451.80 687.90 L 455.30 683.40 L 459.10 679.20 L 463.30 675.50 L 467.80 672.20 L 472.60 669.30 L 477.60 666.80 L 482.90 664.60 L 488.30 662.90 L 494.00 661.50 L 501.70 660.20 L 509.50 659.50 L 517.50 659.50 L 525.40 660.10 L 533.20 661.20 L 540.90 662.90 L 548.40 665.20 L 555.50 668.00 L 562.20 671.20 L 564.50 673.60 L 566.50 676.20 L 568.10 679.00 L 570.10 683.40 L 571.60 688.20 L 576.10 707.50 L 532.00 708.70 L 510.00 708.70 L 488.00 708.10 L 473.30 707.30 L 458.70 706.00 L 444.10 704.30 Z" fill="#c12a2c" fill-rule="nonzero" node-id="128" stroke="none" target-height="49.200012" target-width="131.99997" target-x="444.1" target-y="659.5"></path><path d="M 534.60 724.70 L 616.10 713.90 L 636.30 710.80 L 656.50 707.00 L 669.80 704.00 L 683.10 700.60 L 696.30 696.70 L 700.70 706.60 L 704.60 716.80 L 708.10 727.20 L 711.20 737.70 L 713.90 748.40 L 715.90 759.10 L 717.50 769.90 L 718.50 780.80 L 718.80 789.60 L 718.80 798.30 L 718.40 807.00 L 717.50 815.60 L 716.20 824.30 L 714.40 829.80 L 712.20 834.80 L 709.60 839.50 L 706.70 843.80 L 703.40 847.80 L 699.90 851.50 L 696.00 855.00 L 691.90 858.10 L 686.00 861.80 L 679.80 865.10 L 673.20 867.90 L 666.40 870.30 L 659.50 872.20 L 652.30 873.80 L 637.80 875.80 L 623.40 876.50 L 609.70 876.00 L 614.60 862.40 L 619.80 848.90 L 633.50 815.60 L 635.70 808.80 L 643.10 781.30 L 645.30 774.60 L 647.90 767.90 L 653.10 761.10 L 656.10 757.90 L 670.80 744.60 L 678.20 736.80 L 682.80 729.70 L 684.50 725.90 L 685.70 721.70 L 686.40 717.00 L 677.10 722.20 L 668.10 727.90 L 656.50 736.30 L 651.10 740.80 L 646.00 745.70 L 641.20 751.00 L 636.80 756.50 L 634.00 761.50 L 631.70 766.70 L 629.70 772.00 L 627.30 780.20 L 621.40 805.10 L 613.80 803.50 L 606.40 801.40 L 599.30 798.90 L 592.40 795.80 L 579.30 788.60 L 566.80 779.90 L 559.00 773.50 L 551.40 766.80 L 544.10 759.70 L 545.70 774.20 L 552.50 780.60 L 559.70 786.70 L 567.10 792.30 L 574.80 797.50 L 582.80 802.30 L 591.10 806.50 L 604.00 811.80 L 617.60 815.80 L 610.10 833.70 L 603.10 851.90 L 596.60 870.20 L 556.40 863.00 L 543.00 861.10 L 534.00 860.20 L 524.90 859.70 L 515.90 859.60 L 505.10 860.00 L 494.50 861.00 L 483.90 862.40 L 441.70 869.60 L 431.10 871.10 L 427.00 857.00 L 422.50 843.00 L 417.50 829.20 L 412.10 815.50 L 435.80 805.90 L 451.30 798.60 L 458.80 794.60 L 466.10 790.30 L 473.10 785.50 L 482.30 778.60 L 484.20 776.80 L 485.70 774.80 L 487.50 771.30 L 488.80 767.50 L 490.40 759.60 L 477.80 769.00 L 465.00 778.00 L 456.20 783.70 L 447.30 788.90 L 438.10 793.80 L 431.00 797.10 L 416.40 802.60 L 408.80 804.90 L 405.60 790.90 L 400.90 777.30 L 398.00 770.70 L 394.80 764.40 L 391.10 758.30 L 387.10 752.40 L 382.80 746.80 L 378.00 741.50 L 372.90 736.70 L 367.50 732.20 L 361.70 728.10 L 355.50 724.60 L 349.00 721.50 L 342.00 718.90 L 342.80 723.40 L 344.10 727.50 L 346.00 731.20 L 348.20 734.70 L 353.70 741.00 L 368.40 753.70 L 376.10 761.10 L 381.10 767.80 L 383.00 771.40 L 384.50 775.50 L 387.00 788.50 L 389.00 796.90 L 391.50 805.10 L 395.70 817.20 L 413.10 861.20 L 418.30 877.60 L 398.70 877.90 L 388.70 877.50 L 378.80 876.50 L 365.80 874.20 L 359.50 872.50 L 353.30 870.30 L 347.40 867.70 L 341.70 864.70 L 333.70 859.10 L 326.30 852.20 L 322.80 848.40 L 319.70 844.40 L 317.10 840.30 L 314.90 836.00 L 312.50 830.00 L 310.70 823.80 L 309.40 817.30 L 308.20 804.10 L 308.10 797.40 L 309.20 777.70 L 310.00 768.20 L 311.40 759.00 L 313.40 749.80 L 318.60 731.80 L 321.80 722.90 L 327.10 709.80 L 332.70 696.90 L 346.30 701.20 L 360.00 705.00 L 373.80 708.10 L 387.70 710.80 L 415.70 715.20 L 479.10 723.20 L 500.20 726.30 L 473.30 731.90 L 464.50 734.10 L 455.70 736.70 L 447.10 739.70 L 450.60 740.50 L 457.60 741.00 L 479.10 739.20 L 486.10 739.50 L 489.40 740.10 L 492.70 741.20 L 495.80 742.80 L 499.00 745.10 L 487.70 755.90 L 503.80 778.60 L 490.80 776.10 L 475.60 791.90 L 470.90 797.50 L 468.10 801.40 L 465.70 805.50 L 463.70 809.80 L 461.80 816.70 L 461.20 824.30 L 466.00 819.40 L 470.30 814.10 L 486.10 791.80 L 492.20 785.00 L 495.70 781.90 L 495.00 799.00 L 494.90 807.50 L 495.30 816.00 L 498.70 817.70 L 502.00 818.80 L 505.50 819.40 L 509.00 819.50 L 516.20 818.80 L 537.70 813.90 L 528.90 775.50 L 540.40 751.50 L 555.50 758.70 L 563.40 761.70 L 571.40 764.00 L 576.80 765.20 L 588.00 766.40 L 575.30 759.30 L 536.90 739.10 L 560.10 738.70 L 571.70 738.10 L 583.30 737.00 L 571.20 733.60 L 534.60 724.70 Z M 448.60 765.40 L 461.60 763.20 L 468.10 761.40 L 474.20 759.20 L 478.20 757.40 L 485.50 752.70 L 488.70 749.90 L 491.70 746.60 L 494.50 742.90 L 475.60 748.20 L 465.20 751.90 L 457.70 756.10 L 454.40 758.70 L 451.30 761.80 L 448.60 765.40 Z M 536.30 776.70 L 556.20 808.80 L 560.80 817.00 L 565.20 825.50 L 566.00 821.40 L 566.40 817.50 L 566.20 813.70 L 565.70 810.10 L 564.70 806.50 L 561.70 799.70 L 559.60 796.40 L 556.50 792.40 L 553.00 788.60 L 549.10 785.10 L 545.00 781.90 L 536.30 776.70 Z" fill="#305dbc" fill-rule="nonzero" node-id="130" stroke="none" target-height="181.20001" target-width="410.69998" target-x="308.1" target-y="696.7"></path><path d="M 916.20 817.30 L 926.00 812.60 L 935.50 807.40 L 947.60 799.60 L 958.90 790.70 L 964.10 785.70 L 969.00 780.40 L 976.40 794.40 L 968.80 801.10 L 961.00 807.20 L 952.80 812.80 L 944.30 818.00 L 935.60 822.70 L 926.60 827.10 L 912.90 833.10 L 898.90 838.50 L 870.60 848.20 L 859.80 851.40 L 848.90 854.10 L 816.00 861.20 L 805.20 864.10 L 791.10 868.90 L 784.20 871.80 L 777.80 876.90 L 771.70 882.40 L 748.80 906.00 L 742.80 911.70 L 736.60 916.90 L 727.70 923.20 L 722.80 926.00 L 713.20 930.80 L 703.30 935.10 L 693.30 939.00 L 683.00 942.50 L 672.60 945.40 L 662.10 947.80 L 651.50 949.60 L 640.80 950.90 L 632.10 951.40 L 623.50 951.50 L 615.00 951.20 L 606.30 950.50 L 597.70 949.30 L 590.70 947.80 L 583.90 945.70 L 563.60 938.50 L 552.10 935.40 L 542.60 934.10 L 531.10 933.60 L 519.60 933.70 L 508.10 934.30 L 499.60 935.20 L 491.10 936.50 L 482.60 938.30 L 453.20 945.70 L 442.40 947.90 L 431.50 949.60 L 420.50 950.90 L 409.50 951.70 L 398.40 952.00 L 387.40 951.70 L 376.50 950.90 L 368.30 949.80 L 352.30 946.60 L 344.40 944.40 L 336.70 941.80 L 329.10 938.80 L 321.60 935.30 L 310.10 929.00 L 306.30 926.10 L 302.80 923.00 L 293.30 912.50 L 303.10 915.60 L 311.60 919.90 L 320.30 923.70 L 329.20 927.20 L 338.20 930.20 L 347.40 932.90 L 356.60 935.10 L 366.00 936.80 L 375.40 938.20 L 384.90 939.10 L 394.40 939.50 L 403.90 939.50 L 413.40 939.00 L 422.80 938.00 L 432.20 936.50 L 441.50 934.50 L 469.80 926.30 L 479.60 924.10 L 489.50 922.20 L 499.50 920.90 L 509.50 920.10 L 519.50 919.90 L 529.50 920.30 L 539.40 921.30 L 546.80 922.50 L 554.00 924.20 L 577.90 931.80 L 587.60 934.20 L 597.40 936.00 L 607.30 937.30 L 617.30 938.10 L 627.20 938.30 L 637.20 938.00 L 647.20 937.20 L 657.20 935.90 L 667.00 934.10 L 676.70 931.80 L 693.10 926.80 L 699.80 924.20 L 706.30 921.30 L 712.50 918.00 L 720.60 913.00 L 728.30 907.60 L 735.60 901.60 L 742.50 895.20 L 749.10 888.40 L 755.40 881.20 L 761.20 873.70 L 766.70 865.90 L 771.80 857.90 L 804.60 851.80 L 821.00 848.30 L 837.30 844.40 L 853.40 840.00 L 869.40 835.20 L 881.30 831.30 L 904.70 822.30 L 916.20 817.30 Z" fill="#768335" fill-rule="nonzero" hidden="true" node-id="132" stroke="none" target-height="171.59998" target-width="683.10004" target-x="293.3" target-y="780.4" visibility="hidden"></path></svg>