<?xml version="1.0" standalone="no"?><!DOCTYPE svg PUBLIC "-//W3C//DTD SVG 1.1//EN" "http://www.w3.org/Graphics/SVG/1.1/DTD/svg11.dtd"><svg height="200" node-id="1" sillyvg="true" template-height="200" template-width="200" version="1.1" viewBox="0 0 200 200" width="200" xmlns="http://www.w3.org/2000/svg" xmlns:xlink="http://www.w3.org/1999/xlink"><defs node-id="128"></defs><path d="M 172.70 133.80 L 174.00 128.10 L 174.50 123.80 L 174.70 119.70 L 174.40 113.70 L 172.50 103.80 L 170.00 94.40 L 169.00 92.20 L 165.90 86.60 L 161.40 79.90 L 156.20 73.40 L 150.80 68.30 L 143.00 62.80 L 137.50 59.80 L 121.60 53.80 L 116.80 52.40 L 118.30 50.00 L 121.90 46.70 L 124.10 45.30 L 126.50 44.20 L 128.80 43.80 L 126.90 42.10 L 124.80 41.30 L 121.00 40.90 L 118.20 41.10 L 111.80 42.50 L 107.30 44.00 L 107.90 42.70 L 108.70 42.00 L 109.70 41.50 L 111.30 41.30 L 110.80 40.70 L 108.80 39.70 L 107.20 39.50 L 102.10 39.90 L 98.30 41.00 L 93.50 43.00 L 90.30 44.80 L 87.80 46.70 L 84.10 51.10 L 83.00 52.00 L 72.80 54.30 L 56.30 60.90 L 43.10 72.40 L 34.90 83.80 L 30.70 90.20 L 29.00 93.70 L 27.70 97.60 L 26.10 105.40 L 25.40 111.60 L 25.30 116.30 L 25.90 122.20 L 27.60 130.90 L 29.20 135.90 L 31.40 141.60 L 34.30 146.10 L 36.50 148.50 L 40.30 152.00 L 44.70 155.40 L 49.20 158.50 L 57.60 163.50 L 60.60 165.00 L 66.70 167.30 L 79.60 170.40 L 103.40 171.50 L 120.90 170.50 L 125.60 169.80 L 134.70 167.50 L 142.60 164.20 L 146.50 162.00 L 154.70 155.90 L 161.40 149.60 L 165.80 144.80 L 169.30 140.20 L 172.00 135.70 L 172.70 133.80 Z" fill="#000000" fill-rule="nonzero" node-id="132" stroke="none" target-height="132" target-width="149.4" target-x="25.3" target-y="39.5"></path><g node-id="427"><path d="M 100.00 171.50 L 92.20 171.30 L 84.90 170.60 L 78.00 169.60 L 71.50 168.10 L 65.00 166.20 L 59.10 163.90 L 53.60 161.20 L 48.60 158.20 L 44.40 155.10 L 40.70 151.80 L 37.40 148.30 L 34.60 144.70 L 32.20 140.80 L 30.30 136.60 L 28.70 132.30 L 27.60 127.80 L 26.90 123.00 L 26.70 118.00 L 26.90 112.60 L 27.60 107.50 L 28.80 102.40 L 30.50 97.50 L 32.50 92.70 L 35.00 88.10 L 37.80 83.70 L 41.00 79.50 L 48.40 71.80 L 57.00 65.10 L 61.70 62.30 L 71.70 57.60 L 77.10 55.70 L 82.60 54.20 L 88.20 53.20 L 94.00 52.50 L 100.00 52.30 L 106.00 52.50 L 111.80 53.20 L 117.40 54.20 L 122.90 55.70 L 128.30 57.60 L 138.30 62.30 L 143.00 65.10 L 151.60 71.80 L 159.00 79.50 L 162.20 83.70 L 165.00 88.10 L 167.50 92.70 L 169.50 97.50 L 171.20 102.40 L 172.30 107.50 L 173.10 112.60 L 173.30 118.00 L 173.10 123.00 L 172.40 127.80 L 171.30 132.30 L 169.70 136.60 L 167.70 140.80 L 165.40 144.70 L 162.60 148.30 L 159.30 151.80 L 155.60 155.10 L 151.40 158.20 L 146.40 161.20 L 140.90 163.90 L 135.00 166.20 L 128.50 168.10 L 122.00 169.60 L 115.10 170.60 L 107.80 171.30 L 100.00 171.50 Z" fill="#fff2d4" fill-rule="nonzero" group-id="1" node-id="136" stroke="none" target-height="119.2" target-width="146.6" target-x="26.7" target-y="52.3"></path><path d="M 100.00 55.30 L 105.80 55.50 L 111.50 56.10 L 116.90 57.20 L 122.20 58.60 L 132.40 62.60 L 137.10 65.00 L 145.80 70.90 L 149.80 74.20 L 156.80 81.60 L 162.50 89.80 L 166.70 98.70 L 168.30 103.40 L 169.40 108.10 L 170.10 113.00 L 170.30 118.00 L 170.10 123.00 L 169.40 127.60 L 168.20 132.00 L 166.70 136.00 L 164.80 139.90 L 162.50 143.50 L 159.80 146.90 L 156.80 150.00 L 153.50 153.00 L 149.70 155.70 L 144.80 158.60 L 139.50 161.20 L 133.70 163.40 L 127.40 165.30 L 121.00 166.70 L 114.40 167.70 L 107.40 168.30 L 100.00 168.50 L 92.60 168.30 L 85.60 167.70 L 79.00 166.70 L 72.60 165.30 L 66.30 163.40 L 60.50 161.20 L 55.10 158.60 L 50.30 155.70 L 46.50 153.00 L 43.10 150.00 L 40.20 146.90 L 37.50 143.50 L 35.20 139.90 L 33.30 136.00 L 31.70 132.00 L 30.60 127.60 L 29.90 123.00 L 29.70 118.00 L 29.90 113.00 L 30.60 108.10 L 31.70 103.40 L 33.20 98.70 L 37.50 89.80 L 40.20 85.60 L 43.20 81.60 L 50.20 74.20 L 58.50 67.80 L 62.90 65.00 L 72.60 60.40 L 77.80 58.60 L 83.00 57.20 L 88.50 56.10 L 94.10 55.50 L 100.00 55.30 M 100.00 49.30 L 93.80 49.50 L 87.70 50.20 L 81.90 51.30 L 76.20 52.80 L 70.60 54.80 L 65.20 57.10 L 60.10 59.70 L 55.20 62.70 L 50.60 66.10 L 46.30 69.70 L 42.30 73.60 L 38.60 77.70 L 35.20 82.10 L 32.30 86.70 L 29.80 91.50 L 27.60 96.50 L 25.90 101.70 L 24.70 107.00 L 23.90 112.40 L 23.70 118.00 L 23.90 123.30 L 24.60 128.40 L 25.80 133.20 L 27.50 137.80 L 29.60 142.20 L 32.10 146.30 L 35.10 150.20 L 38.50 153.90 L 42.50 157.40 L 46.90 160.70 L 52.10 163.80 L 57.80 166.60 L 63.90 169.00 L 70.60 171.00 L 77.30 172.50 L 84.40 173.60 L 92.00 174.30 L 100.00 174.50 L 108.00 174.30 L 115.50 173.60 L 122.60 172.50 L 129.30 171.00 L 136.00 169.00 L 142.20 166.60 L 147.80 163.80 L 153.00 160.70 L 157.50 157.40 L 161.40 153.90 L 164.90 150.20 L 167.90 146.30 L 170.40 142.20 L 172.50 137.80 L 174.10 133.20 L 175.30 128.40 L 176.10 123.30 L 176.30 118.00 L 176.00 112.40 L 175.30 107.00 L 174.10 101.70 L 172.40 96.50 L 170.20 91.50 L 167.70 86.70 L 164.70 82.10 L 161.40 77.70 L 157.70 73.60 L 153.70 69.70 L 149.40 66.10 L 144.70 62.70 L 139.90 59.70 L 134.80 57.10 L 129.40 54.80 L 123.80 52.80 L 118.10 51.30 L 112.30 50.20 L 106.20 49.50 L 100.00 49.30 Z" fill="#000000" fill-rule="nonzero" group-id="1" node-id="138" stroke="none" target-height="125.2" target-width="152.6" target-x="23.7" target-y="49.3"></path></g><path d="M 90.40 97.40 L 91.60 96.30 L 92.60 96.00 L 94.80 96.30 L 99.80 95.60 L 101.50 95.70 L 103.30 96.10 L 100.80 96.40 L 107.00 96.80 L 108.80 97.30 L 110.70 98.30 L 113.00 100.30 L 114.30 102.00 L 115.70 104.30 L 118.20 109.90 L 119.40 111.70 L 120.70 113.00 L 122.90 114.40 L 125.00 115.20 L 127.20 115.50 L 130.30 115.40 L 129.30 116.50 L 126.60 116.80 L 127.90 117.40 L 130.00 117.70 L 131.00 117.40 L 131.90 116.70 L 131.80 118.10 L 130.70 118.60 L 132.60 118.60 L 135.00 116.20 L 136.30 115.40 L 139.80 114.40 L 143.60 114.40 L 145.30 114.90 L 146.70 115.70 L 145.30 114.30 L 143.50 113.60 L 146.50 114.30 L 147.60 115.00 L 148.90 117.30 L 148.80 116.00 L 148.30 114.90 L 150.60 116.00 L 151.80 117.10 L 152.80 118.50 L 153.40 120.50 L 153.30 123.80 L 153.00 124.80 L 152.30 125.80 L 153.40 125.30 L 154.00 124.30 L 153.90 125.80 L 152.70 128.70 L 151.60 130.20 L 148.80 133.20 L 146.20 134.90 L 145.60 135.60 L 144.80 137.50 L 144.20 135.80 L 144.80 134.50 L 144.00 134.50 L 141.20 135.30 L 139.80 136.20 L 138.80 137.50 L 139.00 135.80 L 137.30 136.30 L 134.90 138.00 L 133.90 139.30 L 133.50 138.50 L 133.70 137.80 L 132.50 138.70 L 131.30 140.50 L 131.20 141.60 L 131.50 142.70 L 132.60 144.00 L 130.80 143.60 L 129.10 141.50 L 128.40 141.30 L 128.00 142.10 L 127.60 144.90 L 127.20 145.40 L 122.50 147.10 L 118.50 150.00 L 114.70 151.60 L 112.30 151.90 L 109.00 151.70 L 111.70 151.40 L 113.60 150.80 L 109.10 150.90 L 107.00 150.30 L 109.40 150.40 L 110.20 150.30 L 110.70 149.90 L 107.80 149.60 L 105.70 150.00 L 101.30 151.70 L 97.00 152.30 L 94.80 151.90 L 97.30 151.80 L 98.70 151.30 L 95.00 151.40 L 93.40 150.90 L 90.30 149.30 L 81.70 149.50 L 79.50 149.20 L 76.80 147.80 L 73.90 145.00 L 74.10 145.90 L 75.40 147.80 L 77.10 149.40 L 75.10 148.80 L 72.60 147.40 L 71.40 146.10 L 70.00 144.10 L 68.70 140.60 L 66.80 139.40 L 65.70 139.10 L 64.30 139.40 L 65.80 138.60 L 67.20 138.80 L 67.10 138.60 L 65.50 137.90 L 62.90 137.60 L 61.40 138.00 L 59.90 138.90 L 60.40 137.40 L 61.90 136.20 L 58.80 135.80 L 54.00 135.80 L 51.10 134.80 L 50.00 133.90 L 49.10 132.70 L 48.60 131.20 L 49.80 132.40 L 50.40 132.70 L 51.20 132.60 L 49.00 130.30 L 48.30 128.90 L 47.80 126.90 L 49.10 127.60 L 45.80 123.70 L 45.50 122.90 L 45.60 121.00 L 45.90 120.10 L 46.50 119.30 L 46.60 120.80 L 46.90 121.10 L 47.40 118.60 L 48.90 116.50 L 51.70 115.10 L 50.70 116.60 L 50.70 117.80 L 53.60 115.50 L 57.70 114.50 L 57.80 114.30 L 57.30 114.20 L 57.70 114.00 L 59.00 113.90 L 61.90 114.60 L 63.40 115.50 L 65.50 117.80 L 66.30 118.30 L 67.90 118.50 L 69.70 118.30 L 72.30 117.30 L 73.70 116.10 L 72.90 117.80 L 71.70 118.90 L 73.60 118.50 L 76.80 116.50 L 78.20 114.70 L 80.80 108.40 L 82.30 106.00 L 80.50 107.60 L 79.40 109.20 L 81.40 105.70 L 82.60 104.30 L 87.50 100.60 L 90.40 97.40 Z" fill="#e8ce9e" fill-rule="nonzero" node-id="141" stroke="none" target-height="56.700005" target-width="108.5" target-x="45.5" target-y="95.6"></path><path d="M 101.40 96.70 L 105.40 97.30 L 108.70 98.30 L 111.40 99.80 L 113.20 101.60 L 114.40 103.40 L 118.10 111.10 L 120.80 114.90 L 124.10 117.70 L 126.70 118.50 L 127.50 118.40 L 128.10 117.90 L 127.50 119.00 L 126.00 119.10 L 126.70 119.40 L 128.40 119.80 L 130.50 119.20 L 129.80 120.10 L 128.70 120.30 L 130.20 120.60 L 131.40 120.30 L 132.80 119.50 L 136.20 116.60 L 139.60 115.40 L 141.20 115.20 L 144.90 115.70 L 142.00 115.60 L 140.00 116.30 L 143.60 116.00 L 146.70 116.50 L 148.20 117.10 L 150.60 119.00 L 150.70 118.50 L 150.00 117.40 L 149.20 116.70 L 150.30 117.20 L 152.10 119.20 L 152.70 121.40 L 151.90 125.10 L 151.40 126.40 L 150.10 128.40 L 151.70 127.50 L 152.40 126.50 L 151.90 128.40 L 151.20 129.70 L 148.50 132.30 L 146.40 133.30 L 139.20 135.20 L 133.90 137.30 L 131.30 139.30 L 130.60 140.50 L 130.40 141.60 L 130.60 142.70 L 129.60 141.40 L 129.30 139.90 L 128.90 139.90 L 127.90 140.90 L 126.30 143.90 L 125.20 144.70 L 121.30 146.60 L 118.00 148.80 L 113.30 150.00 L 112.00 149.90 L 115.30 149.30 L 116.40 148.80 L 117.30 147.70 L 110.20 149.30 L 107.40 149.40 L 110.30 148.50 L 107.90 148.50 L 104.50 149.20 L 102.10 150.50 L 98.40 150.80 L 95.90 150.40 L 89.90 148.60 L 88.20 148.40 L 83.70 148.80 L 80.30 148.30 L 74.60 145.10 L 72.30 142.80 L 72.30 141.80 L 71.60 142.60 L 71.60 143.40 L 73.40 145.60 L 71.90 145.10 L 70.50 143.40 L 69.80 140.40 L 68.50 138.50 L 66.40 137.50 L 64.60 137.10 L 62.10 137.40 L 63.30 136.40 L 64.70 136.20 L 58.90 135.10 L 54.40 134.90 L 53.30 134.40 L 51.40 132.30 L 53.50 133.40 L 54.70 133.60 L 51.20 131.40 L 49.20 129.20 L 48.70 127.90 L 49.80 128.90 L 50.80 129.00 L 48.40 126.20 L 46.70 123.30 L 46.50 121.00 L 46.90 122.40 L 47.50 122.60 L 47.70 119.00 L 48.80 117.40 L 49.90 116.70 L 49.20 119.00 L 49.60 121.10 L 50.70 118.50 L 51.60 117.30 L 53.10 116.30 L 56.80 115.50 L 61.30 116.10 L 59.20 115.30 L 57.70 115.10 L 59.00 115.00 L 61.80 115.40 L 63.20 116.00 L 65.50 118.30 L 68.00 119.90 L 69.40 120.30 L 71.00 120.10 L 72.80 119.40 L 76.80 117.10 L 78.90 115.50 L 80.20 114.10 L 83.60 105.80 L 84.60 104.00 L 88.30 100.40 L 91.00 98.80 L 94.20 97.40 L 98.90 96.60 L 101.40 96.70 Z" fill="#b79f77" fill-rule="nonzero" node-id="143" stroke="none" target-height="54.200005" target-width="106.2" target-x="46.5" target-y="96.6"></path><path d="M 170.30 118.00 L 170.10 113.30 L 168.50 104.20 L 167.10 99.80 L 164.70 94.10 L 161.80 88.60 L 158.20 83.40 L 154.10 78.50 L 149.60 74.00 L 144.50 69.90 L 139.00 66.20 L 133.20 63.00 L 127.00 60.20 L 117.10 57.20 L 106.60 55.60 L 105.70 57.60 L 106.20 60.50 L 109.70 59.80 L 113.30 59.70 L 117.00 60.00 L 124.00 61.50 L 133.20 64.80 L 131.30 64.40 L 129.60 64.50 L 128.00 64.90 L 125.90 66.10 L 129.20 66.10 L 134.70 66.90 L 138.40 68.00 L 143.90 70.70 L 147.00 73.10 L 145.40 72.60 L 143.80 72.60 L 139.80 73.70 L 144.70 74.30 L 149.70 76.50 L 154.20 80.30 L 155.90 82.30 L 158.80 87.10 L 156.30 86.00 L 154.30 85.70 L 152.50 85.80 L 150.30 86.70 L 153.10 87.30 L 155.40 88.20 L 157.20 89.40 L 160.10 92.60 L 162.30 97.20 L 163.00 99.90 L 163.50 106.30 L 160.80 105.30 L 158.40 104.90 L 156.30 105.00 L 153.10 105.80 L 150.50 107.00 L 148.30 108.50 L 145.50 111.30 L 150.70 109.20 L 155.00 109.00 L 158.40 109.80 L 160.50 110.90 L 163.00 113.00 L 161.00 112.10 L 157.20 111.80 L 155.60 112.10 L 152.20 113.40 L 155.30 113.70 L 157.70 114.50 L 159.60 115.60 L 162.60 118.80 L 163.60 120.80 L 164.60 123.90 L 165.10 127.00 L 165.30 130.00 L 165.00 134.40 L 164.20 131.00 L 162.10 128.00 L 161.90 133.40 L 161.30 136.10 L 159.80 139.80 L 157.90 143.30 L 155.70 146.40 L 153.50 149.00 L 148.00 154.30 L 149.50 152.10 L 150.40 149.80 L 151.00 147.50 L 151.30 143.90 L 149.20 147.60 L 146.70 150.80 L 143.80 153.70 L 137.90 158.20 L 135.20 159.80 L 129.10 162.70 L 131.20 160.80 L 132.70 157.60 L 129.40 160.70 L 123.90 163.60 L 120.50 164.80 L 112.20 166.90 L 114.90 166.00 L 116.90 164.90 L 118.50 163.70 L 120.20 161.80 L 115.50 164.40 L 108.00 166.20 L 98.30 166.90 L 84.10 166.10 L 91.60 165.30 L 99.00 163.10 L 93.30 163.80 L 84.20 164.10 L 78.10 163.50 L 73.70 162.60 L 69.80 161.40 L 65.40 159.30 L 72.30 160.10 L 74.70 160.00 L 77.10 159.30 L 68.40 157.30 L 65.00 156.00 L 60.20 153.60 L 56.70 151.20 L 53.70 148.80 L 50.40 145.20 L 51.80 148.10 L 54.20 150.80 L 57.40 153.60 L 51.80 150.10 L 49.70 148.30 L 47.00 145.20 L 45.20 142.20 L 42.90 136.50 L 42.10 130.70 L 41.30 133.00 L 41.20 137.30 L 41.60 139.10 L 43.10 142.70 L 40.80 140.00 L 38.20 135.10 L 37.20 131.90 L 36.70 127.00 L 36.90 124.20 L 37.60 121.20 L 38.60 119.00 L 39.70 117.30 L 42.70 114.80 L 46.60 113.30 L 50.30 113.00 L 47.70 111.80 L 45.60 111.30 L 43.50 111.30 L 40.40 112.10 L 38.50 113.20 L 40.30 110.60 L 41.90 109.00 L 43.50 108.00 L 46.00 107.30 L 43.50 107.10 L 41.40 107.20 L 39.70 107.70 L 37.50 109.10 L 35.90 110.70 L 34.60 112.50 L 33.40 115.60 L 34.00 111.50 L 36.30 103.50 L 41.00 92.60 L 38.80 94.40 L 37.20 96.90 L 38.90 92.10 L 40.90 87.90 L 43.30 84.10 L 47.80 78.50 L 51.10 75.40 L 49.80 77.50 L 49.70 79.90 L 51.70 76.70 L 55.50 72.00 L 61.00 67.30 L 63.50 65.80 L 66.90 64.40 L 65.20 66.20 L 63.70 68.90 L 67.80 65.30 L 72.80 62.40 L 78.40 60.60 L 84.20 59.90 L 87.50 56.30 L 81.30 57.60 L 75.50 59.40 L 69.90 61.50 L 64.60 64.10 L 59.40 67.20 L 54.70 70.50 L 50.30 74.20 L 46.20 78.10 L 42.50 82.50 L 39.30 87.00 L 36.50 91.70 L 34.10 96.70 L 32.20 101.80 L 30.80 107.10 L 30.00 112.50 L 29.70 118.00 L 29.90 123.00 L 30.60 127.70 L 31.70 132.00 L 33.30 136.10 L 35.20 139.90 L 37.50 143.50 L 40.20 146.90 L 43.20 150.00 L 46.50 153.00 L 50.30 155.70 L 55.20 158.60 L 60.50 161.20 L 66.30 163.40 L 72.60 165.30 L 79.00 166.70 L 85.60 167.70 L 92.60 168.30 L 100.00 168.50 L 107.40 168.30 L 114.40 167.70 L 121.00 166.70 L 127.40 165.30 L 133.70 163.40 L 139.50 161.20 L 144.80 158.60 L 149.70 155.70 L 153.50 153.00 L 156.80 150.00 L 159.80 146.90 L 162.50 143.50 L 164.80 139.90 L 166.70 136.10 L 168.20 132.00 L 169.40 127.60 L 170.10 123.00 L 170.30 118.00 Z" fill="#e8ce9e" fill-rule="nonzero" node-id="145" stroke="none" target-height="112.9" target-width="140.6" target-x="29.7" target-y="55.6"></path><path d="M 154.70 106.80 L 157.90 107.30 L 162.10 108.60 L 165.50 110.80 L 167.30 113.50 L 165.20 111.70 L 162.70 110.80 L 164.60 113.00 L 165.50 114.60 L 166.20 116.50 L 166.40 118.80 L 164.90 116.30 L 163.30 115.00 L 160.40 113.80 L 158.20 113.60 L 160.40 115.30 L 163.20 118.80 L 164.50 121.30 L 165.40 124.20 L 165.90 127.90 L 165.90 130.40 L 164.80 136.60 L 164.50 140.40 L 167.70 133.60 L 169.70 126.20 L 170.30 118.00 L 170.00 111.80 L 166.50 108.80 L 163.20 107.10 L 160.80 106.50 L 158.10 106.40 L 154.70 106.80 Z" fill="#b79f77" fill-rule="nonzero" node-id="147" stroke="none" target-height="33.999992" target-width="15.600006" target-x="154.7" target-y="106.4"></path><path d="M 163.70 91.90 L 162.00 90.10 L 158.80 87.80 L 156.80 87.10 L 154.40 86.90 L 156.70 87.60 L 158.40 88.60 L 160.00 89.90 L 161.80 92.00 L 163.50 94.70 L 167.60 105.10 L 169.40 108.20 L 168.10 102.60 L 166.10 97.20 L 163.70 91.90 Z" fill="#b79f77" fill-rule="nonzero" node-id="149" stroke="none" target-height="21.299995" target-width="15" target-x="154.4" target-y="86.9"></path><path d="M 62.70 162.10 L 63.00 162.00 L 62.50 161.00 L 60.70 159.70 L 59.30 158.20 L 55.70 156.20 L 52.70 153.10 L 53.10 154.60 L 54.50 156.40 L 52.40 154.90 L 49.30 151.30 L 47.60 148.30 L 47.80 150.20 L 48.40 151.80 L 51.10 155.30 L 51.00 156.20 L 58.60 160.30 L 62.70 162.10 Z" fill="#b79f77" fill-rule="nonzero" node-id="151" stroke="none" target-height="13.800003" target-width="15.400002" target-x="47.6" target-y="148.3"></path><path d="M 47.30 151.70 L 45.20 149.30 L 44.40 147.10 L 44.30 148.60 L 45.00 150.70 L 43.00 148.80 L 39.90 144.70 L 38.30 141.30 L 37.30 138.20 L 36.60 135.10 L 36.10 130.70 L 35.50 133.10 L 35.30 130.80 L 35.90 125.80 L 38.30 118.20 L 36.20 120.60 L 35.00 124.10 L 34.90 121.00 L 36.10 115.40 L 37.90 111.50 L 36.00 112.80 L 34.80 114.30 L 33.80 116.10 L 33.00 119.00 L 32.40 117.00 L 32.10 112.80 L 33.00 106.50 L 30.60 108.00 L 29.90 112.90 L 29.70 118.00 L 29.90 123.00 L 30.60 127.70 L 31.80 132.10 L 33.30 136.10 L 35.30 140.00 L 37.60 143.60 L 40.30 147.00 L 43.30 150.20 L 46.70 153.10 L 50.70 155.80 L 49.30 153.70 L 47.30 151.70 Z" fill="#b79f77" fill-rule="nonzero" node-id="153" stroke="none" target-height="49.300003" target-width="21" target-x="29.7" target-y="106.5"></path><path d="M 146.90 130.90 L 150.40 127.00 L 152.00 123.20 L 152.20 121.50 L 151.90 119.90 L 150.80 118.10 L 151.20 120.10 L 151.20 121.60 L 150.90 122.90 L 150.00 124.50 L 150.20 122.60 L 150.10 120.90 L 149.50 119.50 L 148.60 118.30 L 147.00 117.30 L 144.60 116.50 L 142.10 116.30 L 139.70 116.60 L 135.30 118.40 L 131.10 121.00 L 129.10 121.10 L 125.70 119.60 L 121.80 116.80 L 119.50 114.60 L 118.10 112.40 L 114.30 104.70 L 113.10 102.90 L 110.40 100.40 L 108.00 99.10 L 105.60 98.30 L 101.70 97.70 L 96.70 97.90 L 92.10 99.10 L 89.70 100.40 L 86.90 102.90 L 80.50 114.60 L 78.20 116.80 L 72.50 120.60 L 70.90 121.10 L 68.90 121.00 L 62.70 117.40 L 60.40 116.60 L 57.90 116.30 L 55.40 116.50 L 53.00 117.30 L 51.40 118.30 L 50.50 119.50 L 49.90 120.90 L 49.80 122.60 L 50.00 124.50 L 49.10 122.90 L 48.80 121.60 L 48.80 120.10 L 49.30 118.10 L 48.20 119.90 L 47.90 121.50 L 48.00 123.20 L 49.70 127.00 L 53.20 130.90 L 50.80 129.90 L 49.40 128.80 L 51.20 130.70 L 53.20 132.10 L 55.70 133.20 L 66.00 136.00 L 67.90 136.80 L 68.90 137.60 L 70.20 140.00 L 70.30 138.20 L 74.60 143.20 L 77.70 145.20 L 81.60 146.90 L 83.30 147.30 L 100.00 149.40 L 116.70 147.30 L 120.40 146.10 L 125.40 143.20 L 129.70 138.20 L 129.80 140.00 L 131.10 137.60 L 132.10 136.80 L 134.00 136.00 L 144.30 133.20 L 146.80 132.10 L 148.80 130.70 L 150.60 128.80 L 149.30 129.90 L 146.90 130.90 Z" fill="#000000" fill-rule="nonzero" node-id="155" stroke="none" target-height="51.699997" target-width="104.299995" target-x="47.9" target-y="97.7"></path><g node-id="428"><path d="M 77.60 100.30 L 55.90 100.10 L 54.70 98.80 L 54.70 97.00 L 55.90 95.80 L 56.80 95.60 L 78.60 95.80 L 79.80 97.00 L 79.80 98.80 L 78.60 100.10 L 77.60 100.30 Z" fill="#000000" fill-rule="nonzero" group-id="2" node-id="159" stroke="none" target-height="4.7000046" target-width="25.100002" target-x="54.7" target-y="95.6"></path><g node-id="463"><path d="M 62.80 93.60 L 66.20 91.60 L 69.70 90.50 L 73.30 89.90 L 77.00 90.00 L 81.00 90.90 L 83.80 92.60 L 85.20 94.40 L 85.90 97.30 L 85.60 99.00 L 84.70 100.20 L 82.60 101.40 L 80.50 101.50 L 80.40 101.10 L 81.80 100.30 L 83.20 98.40 L 83.00 96.90 L 81.40 95.20 L 79.90 94.60 L 76.60 94.00 L 69.80 93.70 L 62.90 94.00 L 62.80 93.60 Z" fill="#ffffff" fill-rule="nonzero" group-id="2,37" node-id="163" stroke="none" target-height="11.599998" target-width="23.100002" target-x="62.8" target-y="89.9"></path></g><g node-id="464"><path d="M 53.00 97.90 L 52.90 95.90 L 53.20 94.90 L 54.80 93.20 L 55.90 92.80 L 56.90 93.10 L 57.90 94.30 L 56.50 95.80 L 55.30 95.90 L 54.20 96.60 L 53.30 97.90 L 53.00 97.90 Z" fill="#000000" fill-rule="nonzero" group-id="2,38" node-id="168" stroke="none" target-height="5.0999985" target-width="5" target-x="52.9" target-y="92.8"></path></g><path d="M 62.30 101.30 L 62.10 102.30 L 61.50 103.20 L 60.60 103.80 L 59.60 104.00 L 58.50 103.80 L 57.60 103.20 L 57.10 102.30 L 56.90 101.30 L 57.10 100.20 L 57.60 99.30 L 58.50 98.80 L 59.60 98.50 L 60.60 98.80 L 61.50 99.30 L 62.10 100.20 L 62.30 101.30 Z" fill="#000000" fill-rule="nonzero" group-id="2" node-id="171" stroke="none" target-height="5.5" target-width="5.3999977" target-x="56.9" target-y="98.5"></path><g node-id="465"><path d="M 58.70 102.40 L 59.50 101.50 L 60.70 101.50 L 61.50 100.80 L 61.60 101.90 L 60.80 103.10 L 59.60 103.50 L 58.80 102.90 L 58.70 102.40 Z" fill="#ffffff" fill-rule="nonzero" group-id="2,39" node-id="175" stroke="none" target-height="2.699997" target-width="2.8999977" target-x="58.7" target-y="100.8"></path></g><g node-id="466"><path d="M 57.50 105.50 L 60.90 104.90 L 61.70 104.50 L 62.50 103.70 L 65.20 103.00 L 65.60 103.10 L 66.00 104.00 L 66.00 105.70 L 65.50 106.50 L 64.50 107.40 L 62.40 107.70 L 59.60 107.20 L 57.40 105.80 L 57.50 105.50 Z" fill="#ffffff" fill-rule="nonzero" group-id="2,40" node-id="180" stroke="none" target-height="4.699997" target-width="8.599998" target-x="57.4" target-y="103"></path></g><path d="M 62.30 96.70 L 73.70 96.20 L 77.50 96.90 L 73.70 97.20 L 62.30 96.70 Z" fill="#ffffff" fill-rule="nonzero" group-id="2,41" node-id="185" stroke="none" target-height="1" target-width="15.200001" target-x="62.3" target-y="96.2"></path></g><g node-id="429"><path d="M 143.10 100.30 L 121.40 100.10 L 120.20 98.80 L 120.20 97.00 L 121.40 95.80 L 122.30 95.60 L 144.00 95.80 L 145.30 97.00 L 145.30 98.80 L 144.00 100.10 L 143.10 100.30 Z" fill="#000000" fill-rule="nonzero" group-id="3" node-id="191" stroke="none" target-height="4.7000046" target-width="25.100006" target-x="120.2" target-y="95.6"></path><g node-id="468"><path d="M 128.30 93.60 L 131.70 91.60 L 135.20 90.50 L 138.70 89.90 L 142.50 90.00 L 146.50 90.90 L 149.30 92.60 L 150.70 94.40 L 151.40 97.30 L 151.10 99.00 L 150.20 100.20 L 148.10 101.40 L 146.00 101.50 L 145.80 101.10 L 147.30 100.30 L 148.70 98.40 L 148.50 96.90 L 146.90 95.20 L 145.40 94.60 L 142.10 94.00 L 135.20 93.70 L 128.40 94.00 L 128.30 93.60 Z" fill="#ffffff" fill-rule="nonzero" group-id="3,42" node-id="195" stroke="none" target-height="11.599998" target-width="23.09999" target-x="128.3" target-y="89.9"></path></g><g node-id="469"><path d="M 118.50 97.90 L 118.30 95.90 L 118.70 94.90 L 120.30 93.20 L 121.40 92.80 L 122.40 93.10 L 123.40 94.30 L 122.00 95.80 L 120.80 95.90 L 119.70 96.60 L 118.70 97.90 L 118.50 97.90 Z" fill="#000000" fill-rule="nonzero" group-id="3,43" node-id="200" stroke="none" target-height="5.0999985" target-width="5.0999985" target-x="118.3" target-y="92.8"></path></g><path d="M 127.80 101.30 L 127.60 102.30 L 127.00 103.20 L 126.10 103.80 L 125.10 104.00 L 124.00 103.80 L 123.10 103.20 L 122.50 102.30 L 122.30 101.30 L 122.50 100.20 L 123.10 99.30 L 124.00 98.80 L 125.10 98.50 L 126.10 98.80 L 127.00 99.30 L 127.60 100.20 L 127.80 101.30 Z" fill="#000000" fill-rule="nonzero" group-id="3" node-id="203" stroke="none" target-height="5.5" target-width="5.5" target-x="122.3" target-y="98.5"></path><g node-id="470"><path d="M 124.20 102.40 L 125.00 101.50 L 126.20 101.50 L 127.00 100.80 L 127.10 101.90 L 126.30 103.10 L 125.10 103.50 L 124.30 102.90 L 124.20 102.40 Z" fill="#ffffff" fill-rule="nonzero" group-id="3,44" node-id="207" stroke="none" target-height="2.699997" target-width="2.9000015" target-x="124.2" target-y="100.8"></path></g><g node-id="471"><path d="M 123.00 105.50 L 126.40 104.90 L 127.20 104.50 L 128.00 103.70 L 130.70 103.00 L 131.10 103.10 L 131.50 104.00 L 131.50 105.70 L 131.00 106.50 L 130.00 107.40 L 127.90 107.70 L 125.10 107.20 L 122.80 105.80 L 123.00 105.50 Z" fill="#ffffff" fill-rule="nonzero" group-id="3,45" node-id="212" stroke="none" target-height="4.699997" target-width="8.699997" target-x="122.8" target-y="103"></path></g><path d="M 127.80 96.70 L 139.20 96.20 L 143.00 96.90 L 139.20 97.20 L 127.80 96.70 Z" fill="#ffffff" fill-rule="nonzero" group-id="3,46" node-id="217" stroke="none" target-height="1" target-width="15.199997" target-x="127.8" target-y="96.2"></path></g><g node-id="430"><path d="M 100.00 148.10 L 94.40 147.80 L 89.40 147.20 L 84.90 146.30 L 80.60 144.90 L 77.10 143.40 L 74.40 141.70 L 72.60 140.00 L 71.40 138.40 L 70.70 136.80 L 70.40 135.00 L 70.70 133.30 L 71.40 131.70 L 72.60 130.00 L 74.40 128.40 L 77.10 126.70 L 80.60 125.10 L 84.90 123.80 L 89.40 122.80 L 94.40 122.20 L 100.00 122.00 L 105.60 122.20 L 110.60 122.80 L 115.00 123.80 L 119.40 125.10 L 122.90 126.70 L 125.60 128.40 L 127.40 130.00 L 128.60 131.70 L 129.30 133.30 L 129.60 135.00 L 129.30 136.80 L 128.60 138.40 L 127.40 140.00 L 125.60 141.70 L 122.90 143.40 L 119.40 144.90 L 115.00 146.30 L 110.60 147.20 L 105.60 147.80 L 100.00 148.10 Z" fill="#ffd41d" fill-rule="nonzero" group-id="4" node-id="223" stroke="none" target-height="26.100006" target-width="59.200005" target-x="70.4" target-y="122"></path><path d="M 100.00 123.50 L 109.90 124.30 L 118.30 126.30 L 121.60 127.70 L 124.20 129.20 L 126.00 130.70 L 127.20 132.10 L 127.80 133.60 L 128.10 135.00 L 127.80 136.50 L 127.20 138.00 L 126.00 139.40 L 124.20 140.90 L 121.60 142.40 L 118.30 143.80 L 114.20 145.00 L 105.20 146.40 L 100.00 146.60 L 94.80 146.40 L 85.80 145.00 L 81.70 143.80 L 78.30 142.40 L 75.70 140.90 L 74.00 139.40 L 72.80 138.00 L 72.20 136.50 L 71.90 135.00 L 72.20 133.60 L 72.80 132.10 L 74.00 130.70 L 75.70 129.20 L 78.30 127.70 L 81.70 126.30 L 90.10 124.30 L 100.00 123.50 M 100.00 120.50 L 94.30 120.80 L 88.80 121.50 L 83.40 122.70 L 78.80 124.20 L 75.90 125.60 L 71.60 128.80 L 70.10 130.70 L 69.20 132.80 L 68.90 135.00 L 69.20 137.30 L 70.10 139.40 L 71.60 141.30 L 75.90 144.50 L 78.80 145.80 L 83.40 147.40 L 88.80 148.60 L 94.30 149.30 L 100.00 149.60 L 105.70 149.30 L 111.20 148.60 L 116.50 147.40 L 121.20 145.80 L 124.10 144.50 L 128.30 141.30 L 129.80 139.40 L 130.70 137.30 L 131.10 135.00 L 130.70 132.80 L 129.80 130.70 L 128.30 128.80 L 124.10 125.60 L 121.20 124.20 L 116.50 122.70 L 111.20 121.50 L 105.70 120.80 L 100.00 120.50 Z" fill="#000000" fill-rule="nonzero" group-id="4" node-id="225" stroke="none" target-height="29.100006" target-width="62.200005" target-x="68.9" target-y="120.5"></path></g><path d="M 121.00 127.40 L 112.20 126.90 L 109.60 128.40 L 108.40 129.40 L 108.40 129.70 L 110.50 130.20 L 117.20 133.70 L 123.50 134.80 L 123.70 134.90 L 122.40 135.20 L 121.10 136.00 L 123.80 135.70 L 125.30 136.20 L 125.50 136.90 L 125.10 138.20 L 123.80 139.90 L 120.60 142.20 L 117.90 143.30 L 118.60 142.60 L 119.40 140.90 L 117.80 142.30 L 115.70 143.50 L 111.20 145.10 L 106.80 145.70 L 109.20 143.90 L 106.50 144.90 L 102.00 145.60 L 105.50 144.00 L 106.90 143.00 L 108.90 140.80 L 107.00 142.20 L 105.10 142.90 L 99.50 143.70 L 92.70 143.10 L 85.10 141.30 L 86.10 142.40 L 88.10 143.50 L 91.50 144.20 L 88.70 144.00 L 84.30 142.80 L 81.50 141.60 L 78.10 139.10 L 79.30 141.00 L 81.70 142.50 L 78.40 141.30 L 76.60 140.10 L 75.60 139.00 L 74.70 137.00 L 74.70 136.10 L 75.10 135.70 L 76.70 135.00 L 75.70 135.90 L 76.60 135.80 L 79.40 134.20 L 81.90 133.60 L 81.50 134.20 L 81.40 135.30 L 83.10 133.30 L 84.90 132.10 L 91.00 130.20 L 90.70 130.10 L 90.60 128.70 L 86.50 129.60 L 82.00 127.30 L 77.10 128.30 L 74.80 129.80 L 73.30 131.40 L 72.00 133.80 L 72.10 136.50 L 72.80 137.90 L 74.00 139.40 L 75.70 140.80 L 78.30 142.30 L 81.60 143.70 L 90.00 145.80 L 100.00 146.50 L 109.90 145.80 L 118.30 143.70 L 121.60 142.30 L 124.20 140.80 L 126.00 139.40 L 127.10 137.90 L 127.80 136.50 L 128.00 135.00 L 127.20 132.20 L 126.20 130.90 L 124.10 129.10 L 121.00 127.40 Z" fill="#c19d06" fill-rule="nonzero" node-id="228" stroke="none" target-height="19.599998" target-width="56" target-x="72" target-y="126.9"></path><path d="M 89.00 127.50 L 90.10 130.10 L 91.70 131.90 L 100.10 133.70 L 105.50 132.70 L 109.90 130.20 L 111.00 128.80 L 111.40 127.50 L 111.30 126.20 L 110.80 125.20 L 109.90 124.30 L 108.00 123.30 L 90.50 123.70 L 89.00 127.50 Z" fill="#000000" fill-rule="nonzero" node-id="230" stroke="none" target-height="10.399994" target-width="22.400002" target-x="89" target-y="123.3"></path><g node-id="431"><path d="M 100.00 132.50 L 94.80 131.80 L 92.90 131.10 L 91.30 130.00 L 90.40 128.80 L 90.10 127.50 L 90.40 126.20 L 91.30 125.00 L 92.90 124.00 L 97.10 122.70 L 100.00 122.50 L 105.20 123.20 L 107.10 124.00 L 108.70 125.10 L 109.60 126.20 L 109.90 127.50 L 109.60 128.80 L 108.70 130.00 L 107.10 131.10 L 102.90 132.30 L 100.00 132.50 Z" fill="#ffb000" fill-rule="nonzero" group-id="5" node-id="234" stroke="none" target-height="10" target-width="19.800003" target-x="90.1" target-y="122.5"></path><path d="M 100.00 123.50 L 104.50 124.10 L 107.70 125.50 L 108.60 126.50 L 108.90 127.50 L 108.60 128.60 L 107.70 129.60 L 104.50 131.00 L 102.40 131.40 L 100.00 131.50 L 95.50 131.00 L 92.30 129.60 L 91.30 128.60 L 91.10 127.50 L 91.30 126.50 L 92.30 125.50 L 93.60 124.70 L 97.60 123.70 L 100.00 123.50 M 100.00 121.50 L 94.70 122.20 L 92.40 123.10 L 90.70 124.20 L 89.30 126.30 L 89.10 127.50 L 89.30 128.80 L 90.70 130.80 L 92.40 132.00 L 94.70 132.90 L 97.30 133.40 L 100.00 133.50 L 105.20 132.90 L 107.60 132.00 L 109.30 130.80 L 110.70 128.80 L 110.90 127.50 L 110.70 126.30 L 109.30 124.20 L 107.60 123.10 L 105.20 122.20 L 100.00 121.50 Z" fill="#000000" fill-rule="nonzero" group-id="5" node-id="236" stroke="none" target-height="12" target-width="21.800003" target-x="89.1" target-y="121.5"></path></g><path d="M 108.90 127.50 L 108.70 126.70 L 107.70 127.10 L 105.30 129.60 L 101.30 130.00 L 98.50 129.40 L 97.10 129.90 L 94.80 129.30 L 91.30 126.60 L 91.10 127.50 L 91.40 128.60 L 92.30 129.60 L 93.60 130.30 L 97.60 131.40 L 100.00 131.60 L 102.40 131.40 L 106.40 130.30 L 107.70 129.60 L 108.60 128.60 L 108.90 127.50 Z" fill="#cc6600" fill-rule="nonzero" node-id="239" stroke="none" target-height="5.0000076" target-width="17.800003" target-x="91.1" target-y="126.6"></path><g node-id="432"><path d="M 131.00 135.10 L 123.70 134.40 L 120.40 133.60 L 111.80 129.90 L 109.10 129.10 L 103.60 128.30 L 96.40 128.30 L 93.60 128.60 L 88.20 129.90 L 79.60 133.60 L 76.30 134.40 L 69.00 135.10 L 65.30 134.90 L 59.30 133.70 L 56.70 132.60 L 54.60 131.30 L 53.00 129.80 L 51.50 127.60 L 50.70 125.50 L 50.50 124.10 L 51.00 121.50 L 52.10 119.90 L 53.70 118.70 L 55.60 117.90 L 57.90 117.70 L 60.00 117.90 L 64.60 119.50 L 68.10 121.50 L 71.00 121.50 L 72.70 120.90 L 77.50 118.00 L 80.10 115.50 L 82.30 112.70 L 85.30 106.90 L 86.90 104.60 L 88.50 102.90 L 92.40 100.60 L 97.30 99.40 L 102.70 99.40 L 105.70 99.90 L 109.60 101.60 L 111.50 102.90 L 113.20 104.60 L 114.70 106.90 L 117.70 112.70 L 119.90 115.50 L 122.50 118.00 L 127.30 120.90 L 130.60 121.70 L 131.90 121.50 L 137.80 118.50 L 142.20 117.70 L 144.50 117.90 L 146.40 118.70 L 147.90 119.90 L 149.00 121.50 L 149.40 122.80 L 149.30 125.50 L 148.50 127.60 L 147.00 129.80 L 145.40 131.30 L 143.30 132.60 L 137.90 134.40 L 131.00 135.10 Z" fill="#ffd41d" fill-rule="nonzero" group-id="6" node-id="243" stroke="none" target-height="35.700005" target-width="98.899994" target-x="50.5" target-y="99.4"></path><path d="M 100.00 100.80 L 102.30 100.90 L 106.80 101.90 L 110.40 104.00 L 111.90 105.50 L 113.40 107.60 L 115.80 112.50 L 118.70 116.50 L 121.50 119.10 L 124.50 121.30 L 126.70 122.30 L 130.60 123.20 L 132.30 123.00 L 138.20 119.90 L 142.10 119.20 L 143.90 119.30 L 146.40 120.60 L 147.80 122.70 L 147.80 125.50 L 145.90 128.90 L 144.20 130.30 L 142.20 131.50 L 139.60 132.50 L 135.50 133.30 L 131.00 133.60 L 124.10 132.90 L 120.90 132.20 L 112.30 128.50 L 109.50 127.70 L 103.70 126.80 L 96.20 126.80 L 93.20 127.10 L 87.70 128.50 L 79.10 132.20 L 75.90 132.90 L 69.00 133.60 L 64.50 133.30 L 60.40 132.50 L 57.80 131.50 L 55.70 130.30 L 54.10 128.90 L 52.90 127.10 L 52.00 124.10 L 52.60 121.50 L 54.70 119.80 L 57.80 119.20 L 59.70 119.30 L 63.80 120.80 L 67.70 123.00 L 69.40 123.20 L 73.30 122.30 L 75.40 121.20 L 78.50 119.10 L 81.30 116.50 L 84.20 112.50 L 86.60 107.60 L 88.00 105.50 L 89.60 104.00 L 93.20 101.90 L 97.70 100.90 L 100.00 100.80 M 100.00 97.80 L 94.30 98.40 L 91.70 99.30 L 89.20 100.60 L 86.60 102.70 L 85.10 104.40 L 81.00 111.90 L 79.00 114.50 L 76.70 116.80 L 72.30 119.50 L 70.80 120.00 L 68.50 120.10 L 62.70 117.00 L 60.20 116.40 L 57.90 116.20 L 54.30 116.70 L 51.50 118.30 L 50.50 119.50 L 49.10 122.40 L 49.20 125.70 L 50.60 129.10 L 51.90 130.80 L 53.60 132.50 L 55.90 133.90 L 58.70 135.10 L 65.10 136.40 L 69.00 136.60 L 76.60 135.90 L 80.10 135.00 L 88.70 131.30 L 91.30 130.60 L 93.80 130.00 L 100.00 129.70 L 106.20 130.00 L 108.70 130.60 L 111.30 131.30 L 119.90 135.00 L 123.40 135.90 L 131.00 136.60 L 134.90 136.40 L 141.30 135.10 L 144.20 133.90 L 146.40 132.50 L 148.20 130.80 L 150.30 127.40 L 151.00 124.00 L 150.40 120.80 L 148.50 118.30 L 147.20 117.40 L 144.00 116.30 L 139.80 116.40 L 137.30 117.00 L 134.80 118.20 L 131.50 120.10 L 129.20 120.00 L 127.70 119.50 L 123.40 116.80 L 121.00 114.50 L 119.00 111.90 L 114.90 104.40 L 113.40 102.70 L 110.80 100.60 L 108.30 99.30 L 105.70 98.40 L 100.00 97.80 Z" fill="#000000" fill-rule="nonzero" group-id="6" node-id="245" stroke="none" target-height="38.800003" target-width="101.9" target-x="49.1" target-y="97.8"></path></g><path d="M 92.90 104.00 L 92.60 107.20 L 93.20 109.60 L 93.90 110.70 L 95.10 111.40 L 96.30 111.60 L 97.10 111.30 L 97.90 109.60 L 97.90 107.30 L 97.40 105.50 L 96.90 104.70 L 95.10 103.60 L 93.40 103.60 L 92.90 104.00 Z" fill="#c19d06" fill-rule="nonzero" node-id="248" stroke="none" target-height="8" target-width="5.300003" target-x="92.6" target-y="103.6"></path><path d="M 107.10 104.00 L 107.40 107.20 L 106.80 109.60 L 106.10 110.70 L 104.90 111.40 L 103.70 111.60 L 102.90 111.30 L 102.10 109.60 L 102.10 107.30 L 102.60 105.50 L 103.10 104.70 L 104.90 103.60 L 106.60 103.60 L 107.10 104.00 Z" fill="#c19d06" fill-rule="nonzero" node-id="250" stroke="none" target-height="8" target-width="5.300003" target-x="102.1" target-y="103.6"></path><g node-id="433"><g node-id="473"><path d="M 96.90 107.10 L 97.20 109.50 L 96.90 110.40 L 96.40 110.90 L 95.70 110.90 L 94.80 110.30 L 93.60 108.20 L 93.30 105.80 L 93.60 104.90 L 94.10 104.40 L 94.80 104.40 L 95.70 105.00 L 96.90 107.10 Z" fill="#000000" fill-rule="nonzero" group-id="7,47" node-id="256" stroke="none" target-height="6.5" target-width="3.899994" target-x="93.3" target-y="104.4"></path></g></g><g node-id="434"><g node-id="474"><path d="M 105.80 104.40 L 106.40 104.90 L 106.70 105.80 L 106.40 108.20 L 105.80 109.50 L 104.30 110.90 L 103.60 110.90 L 103.10 110.40 L 102.80 109.50 L 103.10 107.10 L 104.30 105.00 L 105.10 104.50 L 105.80 104.40 Z" fill="#000000" fill-rule="nonzero" group-id="8,48" node-id="264" stroke="none" target-height="6.5" target-width="3.899994" target-x="102.8" target-y="104.4"></path></g></g><path d="M 108.70 69.70 L 109.20 63.20 L 109.90 60.40 L 111.60 56.40 L 113.60 53.10 L 115.90 50.10 L 120.40 45.70 L 123.70 43.40 L 116.60 43.80 L 113.70 44.50 L 109.70 46.00 L 106.40 47.80 L 103.60 49.90 L 99.80 54.00 L 97.90 56.90 L 98.60 53.80 L 101.10 48.50 L 102.50 46.40 L 106.30 42.20 L 102.10 43.00 L 98.70 44.00 L 95.80 45.20 L 90.90 48.40 L 86.80 52.80 L 84.20 57.80 L 83.30 61.20" fill="#fff2d4" fill-rule="nonzero" node-id="268" stroke="#000000" stroke-linecap="round" stroke-width="6" target-height="27.499996" target-width="40.399994" target-x="83.3" target-y="42.2"></path><g node-id="435"><path d="M 119.40 43.50 L 108.30 46.70 L 104.80 48.90 L 102.30 51.10 L 100.20 53.40 L 97.90 56.90 L 99.00 52.70 L 103.50 43.10 L 97.70 44.40 L 92.60 47.20 L 89.60 49.60 L 87.50 52.00 L 85.00 57.70 L 85.00 60.00 L 85.60 58.80 L 88.50 55.60 L 91.30 53.30 L 91.80 53.30 L 92.20 54.00 L 90.60 58.00 L 91.60 57.90 L 94.30 55.20 L 96.50 51.40 L 95.70 54.80 L 94.10 58.20 L 94.10 59.70 L 94.70 61.30 L 96.50 63.00 L 97.70 60.20 L 98.50 59.50 L 101.50 58.10 L 102.40 57.20 L 104.70 53.10 L 106.00 51.70 L 107.60 50.40 L 110.30 49.20 L 113.30 48.40 L 108.20 52.80 L 106.60 55.50 L 106.40 58.00 L 109.40 55.50 L 107.70 59.00 L 106.60 63.60 L 106.80 67.10 L 107.40 69.10 L 108.90 65.40 L 109.60 61.40 L 110.90 57.90 L 112.60 54.60 L 116.00 50.00 L 120.40 45.80 L 119.40 43.50 Z" fill="#e8ce9e" fill-rule="nonzero" group-id="9" node-id="272" stroke="none" target-height="26" target-width="35.4" target-x="85" target-y="43.1"></path><path d="M 85.00 60.10 L 85.00 60.00 Z" fill="#e8ce9e" fill-rule="nonzero" group-id="9" node-id="274" stroke="none" target-height="0.099998474" target-width="0" target-x="85" target-y="60"></path></g><path d="M 125.30 43.00 L 124.70 42.10 L 123.80 41.80 L 119.10 41.90 L 115.10 42.50 L 111.60 43.50 L 108.40 44.80 L 103.40 48.00 L 107.70 43.10 L 107.90 42.10 L 107.50 41.20 L 106.10 40.70 L 101.70 41.50 L 98.10 42.50 L 92.20 45.50 L 88.00 49.00 L 85.50 51.90 L 83.90 54.60 L 82.70 57.20 L 81.70 61.10 L 81.70 61.70 L 82.50 62.60 L 83.10 62.80 L 84.30 62.50 L 84.70 62.00 L 86.20 57.30 L 88.90 52.80 L 92.70 49.00 L 95.10 47.50 L 98.10 46.00 L 101.80 44.70 L 98.50 49.90 L 97.20 53.10 L 96.30 57.30 L 96.90 58.20 L 98.00 58.50 L 99.00 58.10 L 101.70 54.20 L 106.30 49.90 L 109.70 47.80 L 112.20 46.70 L 118.60 45.20 L 113.30 50.70 L 110.10 55.90 L 108.70 59.00 L 107.70 62.20 L 107.20 65.80 L 107.20 69.80 L 107.30 70.40 L 108.10 71.20 L 109.50 71.10 L 110.30 70.20 L 110.80 63.60 L 111.50 61.00 L 113.00 57.20 L 114.90 54.00 L 117.10 51.20 L 121.40 47.10 L 125.00 44.40 L 125.30 43.00 Z" fill="#000000" fill-rule="nonzero" node-id="277" stroke="none" target-height="30.499996" target-width="43.600006" target-x="81.7" target-y="40.7"></path><path d="M 29.00 111.90 L 31.70 105.60 L 33.20 103.30 L 35.10 101.30 L 32.20 108.70 L 30.60 115.80 L 30.20 119.50 L 30.40 123.00 L 31.10 120.10 L 32.10 118.70 L 31.20 122.70 L 31.00 125.50 L 31.20 128.30 L 32.10 131.40 L 32.50 128.50 L 33.90 126.60 L 33.40 130.10 L 33.40 132.60 L 33.80 135.20 L 34.80 138.20 L 35.00 135.80 L 35.90 134.50 L 36.30 138.20 L 37.50 142.60 L 38.60 144.30 L 43.80 150.50 L 48.00 154.40 L 49.80 155.40 L 47.20 152.20 L 46.20 149.60 L 50.10 154.00 L 52.20 155.80 L 58.30 159.70 L 62.20 161.40 L 59.70 159.30 L 58.80 157.30 L 61.40 159.70 L 66.10 162.60 L 71.60 164.40 L 77.10 165.00 L 74.70 165.80 L 70.80 166.10 L 68.20 165.70 L 63.90 164.40 L 59.50 162.60 L 54.70 160.40 L 47.50 156.00 L 37.50 147.20 L 29.60 132.90 L 27.40 123.20 L 29.00 111.90 Z" fill="#000000" fill-rule="nonzero" node-id="279" stroke="none" target-height="64.8" target-width="49.699997" target-x="27.4" target-y="101.3"></path><path d="M 171.00 111.90 L 168.30 105.60 L 166.80 103.30 L 164.90 101.30 L 167.80 108.70 L 169.40 115.80 L 169.80 119.50 L 169.60 123.00 L 168.80 120.10 L 167.90 118.70 L 168.80 122.70 L 169.00 125.50 L 168.80 128.30 L 167.90 131.40 L 167.50 128.50 L 166.10 126.60 L 166.60 130.10 L 166.60 132.60 L 166.20 135.20 L 165.20 138.20 L 165.00 135.80 L 164.10 134.50 L 163.70 138.20 L 162.40 142.60 L 161.40 144.30 L 156.20 150.50 L 152.00 154.40 L 150.20 155.40 L 152.80 152.20 L 153.70 149.60 L 149.90 154.00 L 147.80 155.80 L 141.70 159.70 L 137.70 161.40 L 140.30 159.30 L 141.20 157.30 L 138.60 159.70 L 133.90 162.60 L 128.30 164.40 L 122.90 165.00 L 125.30 165.80 L 129.20 166.10 L 131.80 165.70 L 136.10 164.40 L 140.50 162.60 L 145.20 160.40 L 152.50 156.00 L 162.50 147.20 L 170.30 132.90 L 172.60 123.20 L 171.00 111.90 Z" fill="#000000" fill-rule="nonzero" node-id="281" stroke="none" target-height="64.8" target-width="49.700005" target-x="122.9" target-y="101.3"></path><g node-id="436"><path d="M 92.60 109.20 L 94.10 110.80 L 95.70 111.60 L 97.40 110.90 L 98.20 109.80 L 98.60 110.40 L 98.70 111.90 L 97.60 113.20 L 96.00 113.30 L 94.10 112.40 L 92.70 110.30 L 92.40 109.20 L 92.60 109.20 Z" fill="#000000" fill-rule="nonzero" group-id="10" node-id="285" stroke="none" target-height="4.100006" target-width="6.2999954" target-x="92.4" target-y="109.2"></path></g><g node-id="437"><path d="M 107.60 109.20 L 106.70 111.40 L 105.90 112.40 L 104.00 113.40 L 102.40 113.20 L 101.30 111.90 L 101.20 111.10 L 101.80 109.80 L 102.60 110.90 L 104.30 111.60 L 105.90 110.80 L 107.60 109.20 Z" fill="#000000" fill-rule="nonzero" group-id="11" node-id="290" stroke="none" target-height="4.2000046" target-width="6.4000015" target-x="101.2" target-y="109.2"></path></g><path d="M 105.00 105.60 L 104.20 107.70 L 104.20 108.70 L 104.90 108.70 L 105.70 107.30 L 105.40 105.40 L 105.00 105.60 Z" fill="#b27b00" fill-rule="nonzero" node-id="293" stroke="none" target-height="3.2999954" target-width="1.5" target-x="104.2" target-y="105.4"></path><path d="M 95.00 105.60 L 95.80 107.70 L 95.80 108.70 L 95.10 108.70 L 94.30 107.30 L 94.60 105.40 L 95.00 105.60 Z" fill="#b27b00" fill-rule="nonzero" node-id="295" stroke="none" target-height="3.2999954" target-width="1.5" target-x="94.3" target-y="105.4"></path><path d="M 133.80 122.30 L 132.40 122.90 L 130.80 123.20 L 129.00 123.00 L 126.30 122.20 L 123.40 120.50 L 120.70 118.40 L 118.20 115.90 L 116.20 113.20 L 113.60 107.90 L 110.80 104.40 L 109.30 103.20 L 106.70 102.70 L 106.20 102.90 L 108.20 103.50 L 110.30 105.40 L 114.00 113.40 L 114.30 115.10 L 114.20 117.60 L 115.20 115.40 L 115.30 113.70 L 116.00 114.60 L 117.60 117.70 L 119.10 123.10 L 119.70 118.90 L 120.90 119.70 L 126.00 124.90 L 128.20 125.70 L 129.90 125.70 L 132.50 124.80 L 129.80 125.10 L 128.70 124.90 L 127.40 123.80 L 130.20 124.20 L 132.80 124.10 L 139.60 120.30 L 142.40 119.80 L 144.10 120.70 L 144.70 122.00 L 144.60 123.70 L 143.70 124.70 L 144.90 124.30 L 145.50 123.70 L 145.90 122.90 L 145.90 121.10 L 146.50 121.60 L 146.90 123.60 L 146.20 125.90 L 145.00 127.00 L 143.30 127.70 L 140.60 128.20 L 142.50 128.90 L 144.70 129.00 L 143.60 130.20 L 140.10 131.70 L 137.50 132.10 L 133.80 131.70 L 131.50 131.10 L 133.40 132.90 L 132.50 133.20 L 128.80 132.70 L 124.10 130.90 L 124.80 132.00 L 125.80 132.80 L 125.20 132.80 L 119.90 131.10 L 118.60 130.30 L 116.70 128.30 L 115.00 127.20 L 110.80 125.40 L 106.20 124.90 L 110.60 127.00 L 103.50 125.80 L 100.20 125.80 L 93.10 126.30 L 92.70 126.10 L 92.90 125.80 L 94.90 124.70 L 91.50 125.30 L 90.10 125.90 L 84.80 129.30 L 80.30 131.20 L 78.30 131.60 L 74.30 131.10 L 70.60 131.50 L 72.50 131.90 L 73.20 132.40 L 72.30 132.90 L 68.60 133.00 L 67.00 132.40 L 67.10 131.90 L 63.30 131.50 L 59.30 131.80 L 57.90 131.10 L 55.20 128.60 L 54.10 126.90 L 53.30 124.30 L 53.90 122.60 L 55.50 121.50 L 56.90 122.10 L 58.10 123.80 L 58.10 121.80 L 57.00 120.10 L 57.90 120.20 L 58.80 120.80 L 59.60 121.60 L 60.00 122.80 L 61.10 121.90 L 61.20 120.50 L 62.80 120.70 L 65.30 121.90 L 67.10 123.80 L 67.40 124.80 L 67.20 126.00 L 66.20 126.60 L 65.10 126.10 L 66.00 127.50 L 66.80 127.70 L 68.20 127.20 L 71.20 124.70 L 76.80 122.70 L 78.70 120.70 L 79.50 121.20 L 79.20 122.30 L 79.50 122.30 L 80.30 121.40 L 81.90 117.30 L 82.60 116.10 L 86.30 111.50 L 88.90 105.60 L 91.30 103.50 L 94.50 102.10 L 97.40 101.70 L 99.10 102.50 L 99.90 103.40 L 100.00 104.00 L 100.50 102.80 L 99.90 101.50 L 100.20 101.40 L 102.40 102.20 L 102.60 102.60 L 102.30 103.00 L 103.50 102.30 L 103.80 101.30 L 104.40 101.30 L 109.00 102.90 L 106.60 101.80 L 104.30 101.10 L 100.00 100.80 L 97.70 100.90 L 93.30 101.80 L 89.70 104.00 L 88.10 105.50 L 86.60 107.60 L 83.80 113.20 L 81.80 115.90 L 79.30 118.40 L 76.60 120.50 L 73.70 122.10 L 71.00 123.00 L 69.20 123.20 L 67.60 122.90 L 61.30 119.70 L 59.20 119.20 L 57.20 119.20 L 55.50 119.50 L 54.10 120.10 L 53.00 121.10 L 52.30 122.30 L 52.00 123.80 L 52.20 125.20 L 52.80 126.90 L 54.20 128.90 L 57.40 131.30 L 59.70 132.20 L 63.20 133.10 L 67.20 133.50 L 71.30 133.50 L 75.10 133.10 L 78.80 132.30 L 87.70 128.50 L 90.50 127.70 L 96.30 126.80 L 100.00 126.70 L 103.80 126.80 L 109.60 127.70 L 112.30 128.50 L 121.30 132.30 L 124.90 133.10 L 128.80 133.50 L 132.80 133.50 L 136.80 133.10 L 140.40 132.20 L 142.60 131.30 L 145.90 128.90 L 147.20 126.90 L 147.90 125.20 L 148.00 123.80 L 147.70 122.30 L 147.00 121.10 L 145.90 120.20 L 144.60 119.50 L 142.90 119.20 L 138.70 119.70 L 136.40 120.70 L 133.80 122.30 Z" fill="#c19d06" fill-rule="nonzero" node-id="297" stroke="none" target-height="32.699997" target-width="96" target-x="52" target-y="100.8"></path><path d="M 96.80 123.50 L 101.20 123.10 L 105.60 123.90 L 104.70 123.00 L 101.80 121.70 L 101.90 121.30 L 102.50 121.20 L 104.40 121.90 L 103.20 120.50 L 100.10 119.50 L 100.40 119.10 L 102.30 118.80 L 102.20 118.60 L 100.80 118.00 L 99.80 117.90 L 98.60 118.30 L 97.50 119.40 L 98.30 120.00 L 100.30 120.10 L 100.00 120.40 L 96.60 121.20 L 98.10 121.60 L 99.70 121.40 L 97.70 122.20 L 94.20 123.20 L 94.90 123.60 L 96.80 123.50 Z" fill="#ffeb99" fill-rule="nonzero" node-id="299" stroke="none" target-height="6" target-width="11.400002" target-x="94.2" target-y="117.9"></path><path d="M 96.80 95.50 L 101.20 95.00 L 105.60 95.90 L 104.70 95.00 L 101.80 93.70 L 101.90 93.30 L 102.50 93.20 L 104.40 93.90 L 103.20 92.50 L 100.10 91.50 L 100.40 91.10 L 102.30 90.80 L 102.20 90.60 L 100.80 90.00 L 99.80 89.90 L 98.60 90.30 L 97.50 91.40 L 98.30 92.00 L 100.30 92.00 L 100.00 92.40 L 96.60 93.20 L 98.10 93.60 L 99.70 93.30 L 97.70 94.20 L 94.20 95.20 L 94.90 95.60 L 96.80 95.50 Z" fill="#e8ce9e" fill-rule="nonzero" node-id="301" stroke="none" target-height="6" target-width="11.400002" target-x="94.2" target-y="89.9"></path><g node-id="438"><path d="M 54.90 124.20 L 55.40 125.30 L 56.70 127.10 L 59.30 128.60 L 61.00 130.50 L 61.00 130.80 L 59.50 131.40 L 57.40 131.10 L 55.80 129.50 L 54.60 126.90 L 54.40 125.50 L 54.70 124.20 L 54.90 124.20 Z" fill="#000000" fill-rule="nonzero" group-id="12" node-id="305" stroke="none" target-height="7.199997" target-width="6.5999985" target-x="54.4" target-y="124.2"></path></g><g node-id="439"><path d="M 145.30 124.20 L 145.40 126.90 L 144.20 129.50 L 142.60 131.10 L 140.50 131.40 L 139.00 130.80 L 139.00 130.50 L 140.70 128.60 L 143.30 127.10 L 144.60 125.30 L 145.10 124.20 L 145.30 124.20 Z" fill="#000000" fill-rule="nonzero" group-id="13" node-id="310" stroke="none" target-height="7.199997" target-width="6.399994" target-x="139" target-y="124.2"></path></g><g node-id="440"><path d="M 95.10 102.70 L 97.10 102.90 L 98.90 104.10 L 100.00 106.00 L 100.00 107.10 L 99.20 108.20 L 98.10 106.50 L 97.60 105.10 L 96.60 103.80 L 95.10 102.70 Z" fill="#ffeb99" fill-rule="nonzero" group-id="14" node-id="315" stroke="none" target-height="5.5" target-width="4.9000015" target-x="95.1" target-y="102.7"></path></g><g node-id="441"><path d="M 104.90 102.90 L 102.80 104.40 L 101.90 106.50 L 100.80 108.20 L 100.00 107.10 L 99.90 106.00 L 101.10 104.10 L 102.90 102.90 L 103.90 102.70 L 104.90 102.90 Z" fill="#ffeb99" fill-rule="nonzero" group-id="15" node-id="320" stroke="none" target-height="5.5" target-width="5" target-x="99.9" target-y="102.7"></path></g><g node-id="442"><path d="M 110.10 110.40 L 111.50 111.50 L 113.30 113.60 L 113.50 115.40 L 113.00 116.40 L 111.60 115.00 L 110.10 110.40 Z" fill="#ffeb99" fill-rule="nonzero" group-id="16" node-id="325" stroke="none" target-height="6" target-width="3.4000015" target-x="110.1" target-y="110.4"></path></g><g node-id="443"><path d="M 89.10 107.10 L 89.60 108.10 L 89.40 109.90 L 87.70 112.10 L 86.20 113.10 L 87.80 108.50 L 89.10 107.10 Z" fill="#ffeb99" fill-rule="nonzero" group-id="17" node-id="330" stroke="none" target-height="6" target-width="3.4000015" target-x="86.2" target-y="107.1"></path></g><g node-id="444"><path d="M 121.20 121.30 L 122.30 122.70 L 125.10 124.80 L 126.00 126.60 L 124.90 126.70 L 123.10 125.80 L 121.50 123.20 L 121.20 121.30 Z" fill="#c19d06" fill-rule="nonzero" group-id="18" node-id="335" stroke="none" target-height="5.399994" target-width="4.800003" target-x="121.2" target-y="121.3"></path></g><g node-id="445"><path d="M 62.90 121.50 L 64.30 121.40 L 65.70 121.80 L 67.00 122.90 L 67.10 123.70 L 66.40 124.60 L 65.30 123.80 L 64.80 123.10 L 62.90 121.50 Z" fill="#c19d06" fill-rule="nonzero" group-id="19" node-id="340" stroke="none" target-height="3.199997" target-width="4.199997" target-x="62.9" target-y="121.4"></path></g><g node-id="446"><path d="M 135.80 123.70 L 136.30 121.90 L 137.40 120.40 L 138.20 119.90 L 139.20 119.60 L 141.30 119.60 L 143.20 120.40 L 144.00 121.20 L 144.40 122.30 L 144.20 123.40 L 143.40 124.20 L 141.60 124.30 L 141.70 124.00 L 142.90 123.50 L 143.00 123.00 L 142.20 122.10 L 141.20 122.00 L 139.10 123.00 L 136.10 123.90 L 135.80 123.70 Z" fill="#c19d06" fill-rule="nonzero" group-id="20" node-id="345" stroke="none" target-height="4.7000046" target-width="8.599991" target-x="135.8" target-y="119.6"></path></g><g node-id="447"><path d="M 110.90 124.20 L 114.70 124.50 L 116.60 125.10 L 118.40 126.20 L 121.10 128.60 L 123.40 131.40 L 123.30 131.70 L 122.20 131.80 L 119.30 130.90 L 115.60 126.80 L 112.60 125.10 L 110.90 124.50 L 110.90 124.20 Z" fill="#ffeb99" fill-rule="nonzero" group-id="21" node-id="350" stroke="none" target-height="7.600006" target-width="12.5" target-x="110.9" target-y="124.2"></path></g><g node-id="448"><path d="M 49.90 85.00 L 49.80 82.30 L 50.50 79.80 L 51.70 77.50 L 55.20 73.60 L 57.30 71.90 L 61.80 69.60 L 61.90 69.80 L 60.00 71.40 L 56.70 74.90 L 53.20 81.10 L 50.20 85.10 L 49.90 85.00 Z" fill="#e8ce9e" fill-rule="nonzero" group-id="22" node-id="355" stroke="none" target-height="15.5" target-width="12.100002" target-x="49.8" target-y="69.6"></path></g><g node-id="449"><path d="M 146.20 89.20 L 149.20 88.60 L 152.20 88.90 L 155.00 90.10 L 157.40 91.90 L 159.60 94.10 L 161.20 96.60 L 162.20 99.30 L 162.80 102.10 L 162.50 102.20 L 161.40 99.70 L 159.90 97.40 L 158.10 95.40 L 156.00 93.90 L 146.20 89.50 L 146.20 89.20 Z" fill="#e8ce9e" fill-rule="nonzero" group-id="23" node-id="360" stroke="none" target-height="13.599998" target-width="16.600006" target-x="146.2" target-y="88.6"></path></g><g node-id="450"><path d="M 130.90 69.00 L 132.60 68.30 L 134.30 68.00 L 136.00 68.20 L 140.90 70.00 L 143.80 71.80 L 137.40 70.30 L 132.60 69.70 L 130.90 69.00 Z" fill="#e8ce9e" fill-rule="nonzero" group-id="24" node-id="365" stroke="none" target-height="3.800003" target-width="12.900009" target-x="130.9" target-y="68"></path></g><g node-id="451"><path d="M 137.40 157.80 L 139.60 156.30 L 143.50 152.80 L 149.60 144.50 L 151.40 142.50 L 151.70 142.60 L 151.30 146.40 L 150.60 148.10 L 149.00 150.50 L 144.80 154.30 L 142.50 155.80 L 140.00 157.10 L 137.50 158.10 L 137.40 157.80 Z" fill="#000000" fill-rule="nonzero" group-id="25" node-id="370" stroke="none" target-height="15.600006" target-width="14.300003" target-x="137.4" target-y="142.5"></path></g><g node-id="452"><path d="M 62.80 154.70 L 68.00 156.10 L 72.70 157.90 L 75.20 158.60 L 80.40 159.20 L 83.10 159.20 L 83.20 159.50 L 77.80 160.50 L 75.00 160.60 L 69.40 159.80 L 66.80 158.80 L 64.50 157.20 L 62.60 154.90 L 62.80 154.70 Z" fill="#000000" fill-rule="nonzero" group-id="26" node-id="375" stroke="none" target-height="5.900009" target-width="20.599998" target-x="62.6" target-y="154.7"></path></g><g node-id="453"><path d="M 155.40 89.40 L 157.20 89.20 L 158.80 89.70 L 160.10 90.70 L 161.70 93.50 L 162.30 95.00 L 162.70 98.00 L 162.40 98.10 L 160.10 94.60 L 157.10 92.10 L 155.40 89.70 L 155.40 89.40 Z" fill="#000000" fill-rule="nonzero" group-id="27" node-id="380" stroke="none" target-height="8.900002" target-width="7.300003" target-x="155.4" target-y="89.2"></path></g><g node-id="454"><path d="M 65.70 73.00 L 65.80 71.20 L 67.00 69.00 L 70.50 67.00 L 75.10 65.80 L 75.20 66.10 L 70.50 69.60 L 68.70 71.70 L 65.90 73.10 L 65.70 73.00 Z" fill="#e8ce9e" fill-rule="nonzero" group-id="28" node-id="385" stroke="none" target-height="7.2999954" target-width="9.5" target-x="65.7" target-y="65.8"></path></g><g node-id="455"><path d="M 94.70 142.40 L 100.90 141.70 L 106.50 139.50 L 110.80 138.50 L 111.00 138.70 L 109.60 140.80 L 106.80 142.80 L 103.40 143.50 L 98.90 143.60 L 95.60 143.10 L 94.50 142.70 L 94.70 142.40 Z" fill="#ffeb99" fill-rule="nonzero" group-id="29" node-id="390" stroke="none" target-height="5.100006" target-width="16.5" target-x="94.5" target-y="138.5"></path></g><g node-id="456"><path d="M 84.70 136.40 L 88.10 137.70 L 92.60 140.00 L 97.90 141.10 L 97.90 141.40 L 94.20 142.00 L 92.20 141.90 L 88.30 141.20 L 86.50 140.20 L 85.10 138.60 L 84.40 136.60 L 84.70 136.40 Z" fill="#ffeb99" fill-rule="nonzero" group-id="30" node-id="395" stroke="none" target-height="5.600006" target-width="13.5" target-x="84.4" target-y="136.4"></path></g><g node-id="457"><path d="M 95.30 95.90 L 97.60 94.90 L 101.40 94.00 L 102.80 94.20 L 104.00 94.80 L 105.00 95.90 L 102.40 96.20 L 100.20 95.80 L 95.30 95.90 Z" fill="#000000" fill-rule="nonzero" group-id="31" node-id="400" stroke="none" target-height="2.199997" target-width="9.699997" target-x="95.3" target-y="94"></path></g><g node-id="458"><path d="M 104.60 152.40 L 101.30 154.20 L 98.60 154.70 L 97.20 154.50 L 96.00 153.60 L 95.30 152.40 L 99.90 153.00 L 104.60 152.40 Z" fill="#e8ce9e" fill-rule="nonzero" group-id="32" node-id="405" stroke="none" target-height="2.300003" target-width="9.299995" target-x="95.3" target-y="152.4"></path></g><g node-id="459"><path d="M 120.00 45.20 L 115.40 49.40 L 110.90 52.60 L 107.20 57.20 L 104.30 62.80 L 103.80 62.70 L 104.50 57.80 L 106.10 53.00 L 107.80 50.00 L 110.00 47.20 L 111.30 46.00 L 114.50 44.50 L 118.10 44.20 L 120.00 44.60 L 120.00 45.20 Z" fill="#000000" fill-rule="nonzero" group-id="33" node-id="410" stroke="none" target-height="18.599998" target-width="16.199997" target-x="103.8" target-y="44.2"></path></g><g node-id="460"><path d="M 154.60 143.80 L 155.80 141.30 L 157.50 136.30 L 158.00 133.70 L 158.20 126.20 L 158.60 123.40 L 159.00 123.20 L 160.60 124.90 L 161.70 127.00 L 162.20 130.00 L 162.00 131.60 L 160.00 137.20 L 158.60 139.70 L 154.90 144.00 L 154.60 143.80 Z" fill="#e8ce9e" fill-rule="nonzero" group-id="34" node-id="415" stroke="none" target-height="20.800003" target-width="7.599991" target-x="154.6" target-y="123.2"></path></g><g node-id="461"><path d="M 53.60 73.30 L 53.80 71.50 L 54.50 69.90 L 55.60 68.80 L 60.00 66.30 L 63.30 65.80 L 63.30 66.10 L 60.70 67.70 L 56.70 71.90 L 55.50 72.70 L 53.80 73.50 L 53.60 73.30 Z" fill="#000000" fill-rule="nonzero" group-id="35" node-id="420" stroke="none" target-height="7.699997" target-width="9.700001" target-x="53.6" target-y="65.8"></path></g><path d="M 148.10 74.50 L 150.20 74.60 L 152.10 75.30 L 153.60 76.50 L 157.10 81.30 L 158.20 85.10 L 158.00 85.20 L 155.90 82.20 L 153.20 79.80 L 150.30 77.80 L 147.90 74.70 L 148.10 74.50 Z" fill="#000000" fill-rule="nonzero" group-id="36" node-id="425" stroke="none" target-height="10.699997" target-width="10.300003" target-x="147.9" target-y="74.5"></path></svg>